M48
; DRILL file {KiCad (5.1.6)-1} date 02/27/21 16:35:58
; FORMAT={-:-/ absolute / inch / decimal}
; #@! TF.CreationDate,2021-02-27T16:35:58+01:00
; #@! TF.GenerationSoftware,Kicad,Pcbnew,(5.1.6)-1
; #@! TF.FileFunction,Plated,1,2,PTH
FMAT,2
INCH
T1C0.0197
T2C0.0236
T3C0.0315
T4C0.0394
T5C0.0402
T6C0.1260
%
G90
G05
T1
X7.5827Y-5.5118
X7.6104Y-5.445
X7.6104Y-5.5786
X7.6772Y-5.4173
X7.6772Y-5.6063
X7.744Y-5.445
X7.744Y-5.5786
X7.7717Y-5.5118
X4.0394Y-2.7559
X4.067Y-2.6891
X4.067Y-2.8227
X4.1339Y-2.6614
X4.1339Y-2.8504
X4.2007Y-2.6891
X4.2007Y-2.8227
X4.2283Y-2.7559
T2
X5.122Y-4.9488
X5.2677Y-5.2126
X5.9843Y-4.9803
T3
X6.4363Y-4.8665
X6.4363Y-4.9665
X6.4363Y-5.0665
X6.4363Y-5.1665
X6.4363Y-5.2665
X6.4363Y-5.3665
X6.4363Y-5.4665
X6.4363Y-5.5665
X7.1463Y-4.8665
X7.1463Y-4.9665
X7.1463Y-5.0665
X7.1463Y-5.1665
X7.1463Y-5.2665
X7.1463Y-5.3665
X7.1463Y-5.4665
X7.1463Y-5.5665
T4
X7.2835Y-5.315
X5.7126Y-5.126
X5.811Y-5.126
X7.2835Y-5.6102
X6.6929Y-2.7559
X6.6929Y-2.8559
X6.6929Y-2.9559
X6.6929Y-3.0559
X7.2835Y-4.8228
X6.122Y-2.878
X6.122Y-2.9764
X6.2008Y-5.4134
X6.2008Y-5.5118
X5.7126Y-5.437
X5.811Y-5.437
X5.689Y-2.9882
X5.7874Y-2.9882
X5.2087Y-2.8819
X5.2087Y-2.9803
T5
X4.0276Y-3.4626
X4.0276Y-3.5626
X4.0276Y-3.6626
X4.0276Y-3.7626
X4.0276Y-3.8626
X4.0276Y-3.9626
X4.0276Y-4.0626
X4.0276Y-4.1626
X4.0276Y-4.2626
X4.0276Y-4.3626
X4.0276Y-4.4626
X4.0276Y-4.5626
X4.0276Y-4.6626
X4.0276Y-4.7626
X4.0276Y-4.8626
X4.0276Y-4.9626
X4.0276Y-5.0626
X4.0276Y-5.1626
X4.0276Y-5.2626
X5.0276Y-3.4626
X5.0276Y-3.5626
X5.0276Y-3.6626
X5.0276Y-3.7626
X5.0276Y-3.8626
X5.0276Y-3.9626
X5.0276Y-4.0626
X5.0276Y-4.1626
X5.0276Y-4.2626
X5.0276Y-4.3626
X5.0276Y-4.4626
X5.0276Y-4.5626
X5.0276Y-4.6626
X5.0276Y-4.7626
X5.0276Y-4.8626
X5.0276Y-4.9626
X5.0276Y-5.0626
X5.0276Y-5.1626
X5.0276Y-5.2626
T6
X7.6772Y-5.5118
X4.1339Y-2.7559
T0
M30
