%TF.GenerationSoftware,KiCad,Pcbnew,(5.1.6)-1*%
%TF.CreationDate,2021-02-27T16:35:54+01:00*%
%TF.ProjectId,07_LBAM_DFR,30375f4c-4241-44d5-9f44-46522e6b6963,rev?*%
%TF.SameCoordinates,Original*%
%TF.FileFunction,Other,Fab,Top*%
%FSLAX46Y46*%
G04 Gerber Fmt 4.6, Leading zero omitted, Abs format (unit mm)*
G04 Created by KiCad (PCBNEW (5.1.6)-1) date 2021-02-27 16:35:54*
%MOMM*%
%LPD*%
G01*
G04 APERTURE LIST*
%TA.AperFunction,Profile*%
%ADD10C,0.150000*%
%TD*%
%ADD11C,0.127000*%
%ADD12C,0.200000*%
%ADD13C,0.100000*%
%ADD14C,0.120000*%
%ADD15C,0.015000*%
%ADD16C,0.150000*%
%ADD17C,0.075000*%
%ADD18C,0.060000*%
G04 APERTURE END LIST*
D10*
X162747549Y-105000000D02*
G75*
G03*
X162747549Y-105000000I-12747549J0D01*
G01*
X180000000Y-65000000D02*
X195000000Y-65000000D01*
X157000000Y-65000000D02*
X180000000Y-65000000D01*
X195000000Y-65000000D02*
G75*
G02*
X200000000Y-70000000I0J-5000000D01*
G01*
X200000000Y-140000000D02*
G75*
G02*
X195000000Y-145000000I-5000000J0D01*
G01*
X105000000Y-145000000D02*
G75*
G02*
X100000000Y-140000000I0J5000000D01*
G01*
X100000000Y-70000000D02*
G75*
G02*
X105000000Y-65000000I5000000J0D01*
G01*
X100000000Y-140000000D02*
X100000000Y-70000000D01*
X195000000Y-145000000D02*
X105000000Y-145000000D01*
X200000000Y-70000000D02*
X200000000Y-140000000D01*
X105000000Y-65000000D02*
X157000000Y-65000000D01*
D11*
%TO.C,U2*%
X119060000Y-134900000D02*
X128950000Y-134900000D01*
X119060000Y-135800000D02*
X119060000Y-134900000D01*
X110930000Y-135800000D02*
X119060000Y-135800000D01*
X110930000Y-134900000D02*
X110930000Y-135800000D01*
X101050000Y-134900000D02*
X110930000Y-134900000D01*
X124000000Y-80500000D02*
X124000000Y-86700000D01*
X106000000Y-80500000D02*
X124000000Y-80500000D01*
X106000000Y-86700000D02*
X106000000Y-80500000D01*
X106000000Y-86700000D02*
X101050000Y-86700000D01*
X124000000Y-86700000D02*
X106000000Y-86700000D01*
X128950000Y-86700000D02*
X124000000Y-86700000D01*
X128950000Y-134900000D02*
X128950000Y-86700000D01*
X101050000Y-86700000D02*
X101050000Y-134900000D01*
D12*
X100530000Y-87830000D02*
G75*
G03*
X100530000Y-87830000I-100000J0D01*
G01*
D13*
%TO.C,Q1*%
X137050000Y-133500000D02*
X134600000Y-133500000D01*
X137620000Y-134050000D02*
X137620000Y-134900000D01*
X137050000Y-133500000D02*
X137620000Y-134050000D01*
X137620000Y-134900000D02*
X134580000Y-134900000D01*
X134580000Y-133500000D02*
X134580000Y-134900000D01*
D11*
%TO.C,U1*%
X182660000Y-122340000D02*
X182660000Y-142660000D01*
X182660000Y-142660000D02*
X162340000Y-142660000D01*
X162340000Y-142660000D02*
X162340000Y-122340000D01*
X162340000Y-122340000D02*
X182660000Y-122340000D01*
D12*
X161800000Y-123610000D02*
G75*
G03*
X161800000Y-123610000I-100000J0D01*
G01*
D13*
%TO.C,J18*%
X142650000Y-127850000D02*
X142650000Y-133600000D01*
X142650000Y-133600000D02*
X150050000Y-133600000D01*
X150050000Y-133600000D02*
X150050000Y-127850000D01*
X150050000Y-127850000D02*
X142650000Y-127850000D01*
X144475000Y-127850000D02*
X145100000Y-128850000D01*
X145100000Y-128850000D02*
X145725000Y-127850000D01*
%TO.C,J26*%
X142650000Y-135750000D02*
X142650000Y-141500000D01*
X142650000Y-141500000D02*
X150050000Y-141500000D01*
X150050000Y-141500000D02*
X150050000Y-135750000D01*
X150050000Y-135750000D02*
X142650000Y-135750000D01*
X144475000Y-135750000D02*
X145100000Y-136750000D01*
X145100000Y-136750000D02*
X145725000Y-135750000D01*
%TO.C,J27*%
X153150000Y-78050000D02*
X158900000Y-78050000D01*
X158900000Y-78050000D02*
X158900000Y-70650000D01*
X158900000Y-70650000D02*
X153150000Y-70650000D01*
X153150000Y-70650000D02*
X153150000Y-78050000D01*
X153150000Y-76225000D02*
X154150000Y-75600000D01*
X154150000Y-75600000D02*
X153150000Y-74975000D01*
%TO.C,R7*%
X101800000Y-81175000D02*
X102600000Y-81175000D01*
X102600000Y-81175000D02*
X102600000Y-82775000D01*
X102600000Y-82775000D02*
X101800000Y-82775000D01*
X101800000Y-82775000D02*
X101800000Y-81175000D01*
%TO.C,R12*%
X130600000Y-109000000D02*
X129800000Y-109000000D01*
X129800000Y-109000000D02*
X129800000Y-107400000D01*
X129800000Y-107400000D02*
X130600000Y-107400000D01*
X130600000Y-107400000D02*
X130600000Y-109000000D01*
%TO.C,R13*%
X132500000Y-130600000D02*
X131700000Y-130600000D01*
X131700000Y-130600000D02*
X131700000Y-129000000D01*
X131700000Y-129000000D02*
X132500000Y-129000000D01*
X132500000Y-129000000D02*
X132500000Y-130600000D01*
%TO.C,R16*%
X135700000Y-137025000D02*
X136500000Y-137025000D01*
X136500000Y-137025000D02*
X136500000Y-138625000D01*
X136500000Y-138625000D02*
X135700000Y-138625000D01*
X135700000Y-138625000D02*
X135700000Y-137025000D01*
%TO.C,R17*%
X136700000Y-129900000D02*
X137500000Y-129900000D01*
X137500000Y-129900000D02*
X137500000Y-131500000D01*
X137500000Y-131500000D02*
X136700000Y-131500000D01*
X136700000Y-131500000D02*
X136700000Y-129900000D01*
%TO.C,R18*%
X135500000Y-131500000D02*
X134700000Y-131500000D01*
X134700000Y-131500000D02*
X134700000Y-129900000D01*
X134700000Y-129900000D02*
X135500000Y-129900000D01*
X135500000Y-129900000D02*
X135500000Y-131500000D01*
%TO.C,R34*%
X160100000Y-125800000D02*
X160100000Y-126600000D01*
X160100000Y-126600000D02*
X158500000Y-126600000D01*
X158500000Y-126600000D02*
X158500000Y-125800000D01*
X158500000Y-125800000D02*
X160100000Y-125800000D01*
%TO.C,R36*%
X160100000Y-128100000D02*
X160100000Y-128900000D01*
X160100000Y-128900000D02*
X158500000Y-128900000D01*
X158500000Y-128900000D02*
X158500000Y-128100000D01*
X158500000Y-128100000D02*
X160100000Y-128100000D01*
%TO.C,J9*%
X149450000Y-78250000D02*
X149450000Y-72500000D01*
X149450000Y-72500000D02*
X142050000Y-72500000D01*
X142050000Y-72500000D02*
X142050000Y-78250000D01*
X142050000Y-78250000D02*
X149450000Y-78250000D01*
X147625000Y-78250000D02*
X147000000Y-77250000D01*
X147000000Y-77250000D02*
X146375000Y-78250000D01*
%TO.C,J4*%
X129950000Y-78150000D02*
X135700000Y-78150000D01*
X135700000Y-78150000D02*
X135700000Y-70750000D01*
X135700000Y-70750000D02*
X129950000Y-70750000D01*
X129950000Y-70750000D02*
X129950000Y-78150000D01*
X129950000Y-76325000D02*
X130950000Y-75700000D01*
X130950000Y-75700000D02*
X129950000Y-75075000D01*
%TO.C,J1*%
X183730000Y-121865000D02*
X184365000Y-121230000D01*
X183730000Y-123770000D02*
X183730000Y-121865000D01*
X186270000Y-123770000D02*
X183730000Y-123770000D01*
X186270000Y-121230000D02*
X186270000Y-123770000D01*
X184365000Y-121230000D02*
X186270000Y-121230000D01*
%TO.C,J2*%
X183730000Y-141865000D02*
X184365000Y-141230000D01*
X183730000Y-143770000D02*
X183730000Y-141865000D01*
X186270000Y-143770000D02*
X183730000Y-143770000D01*
X186270000Y-141230000D02*
X186270000Y-143770000D01*
X184365000Y-141230000D02*
X186270000Y-141230000D01*
%TO.C,J3*%
X184365000Y-133730000D02*
X186270000Y-133730000D01*
X186270000Y-133730000D02*
X186270000Y-136270000D01*
X186270000Y-136270000D02*
X183730000Y-136270000D01*
X183730000Y-136270000D02*
X183730000Y-134365000D01*
X183730000Y-134365000D02*
X184365000Y-133730000D01*
%TO.C,J5*%
X156150000Y-140000000D02*
X155150000Y-139375000D01*
X155150000Y-140625000D02*
X156150000Y-140000000D01*
X155150000Y-135050000D02*
X155150000Y-142450000D01*
X160900000Y-135050000D02*
X155150000Y-135050000D01*
X160900000Y-142450000D02*
X160900000Y-135050000D01*
X155150000Y-142450000D02*
X160900000Y-142450000D01*
D14*
%TO.C,U4*%
X164920000Y-85240000D02*
X164920000Y-66190000D01*
X164920000Y-66190000D02*
X196670000Y-66190000D01*
X164920000Y-85240000D02*
X164920000Y-91590000D01*
X164920000Y-91590000D02*
X196670000Y-91590000D01*
X196670000Y-91590000D02*
X196670000Y-66190000D01*
%TD*%
%TO.C,U2*%
D15*
X107968095Y-136763571D02*
X108301428Y-136763571D01*
X108444285Y-137287380D02*
X107968095Y-137287380D01*
X107968095Y-136287380D01*
X108444285Y-136287380D01*
X108825238Y-137239761D02*
X108968095Y-137287380D01*
X109206190Y-137287380D01*
X109301428Y-137239761D01*
X109349047Y-137192142D01*
X109396666Y-137096904D01*
X109396666Y-137001666D01*
X109349047Y-136906428D01*
X109301428Y-136858809D01*
X109206190Y-136811190D01*
X109015714Y-136763571D01*
X108920476Y-136715952D01*
X108872857Y-136668333D01*
X108825238Y-136573095D01*
X108825238Y-136477857D01*
X108872857Y-136382619D01*
X108920476Y-136335000D01*
X109015714Y-136287380D01*
X109253809Y-136287380D01*
X109396666Y-136335000D01*
X109825238Y-137287380D02*
X109825238Y-136287380D01*
X110206190Y-136287380D01*
X110301428Y-136335000D01*
X110349047Y-136382619D01*
X110396666Y-136477857D01*
X110396666Y-136620714D01*
X110349047Y-136715952D01*
X110301428Y-136763571D01*
X110206190Y-136811190D01*
X109825238Y-136811190D01*
X110730000Y-136287380D02*
X111349047Y-136287380D01*
X111015714Y-136668333D01*
X111158571Y-136668333D01*
X111253809Y-136715952D01*
X111301428Y-136763571D01*
X111349047Y-136858809D01*
X111349047Y-137096904D01*
X111301428Y-137192142D01*
X111253809Y-137239761D01*
X111158571Y-137287380D01*
X110872857Y-137287380D01*
X110777619Y-137239761D01*
X110730000Y-137192142D01*
X111730000Y-136382619D02*
X111777619Y-136335000D01*
X111872857Y-136287380D01*
X112110952Y-136287380D01*
X112206190Y-136335000D01*
X112253809Y-136382619D01*
X112301428Y-136477857D01*
X112301428Y-136573095D01*
X112253809Y-136715952D01*
X111682380Y-137287380D01*
X112301428Y-137287380D01*
X112730000Y-136906428D02*
X113491904Y-136906428D01*
X113968095Y-137287380D02*
X113968095Y-136287380D01*
X114206190Y-136287380D01*
X114349047Y-136335000D01*
X114444285Y-136430238D01*
X114491904Y-136525476D01*
X114539523Y-136715952D01*
X114539523Y-136858809D01*
X114491904Y-137049285D01*
X114444285Y-137144523D01*
X114349047Y-137239761D01*
X114206190Y-137287380D01*
X113968095Y-137287380D01*
X114968095Y-136763571D02*
X115301428Y-136763571D01*
X115444285Y-137287380D02*
X114968095Y-137287380D01*
X114968095Y-136287380D01*
X115444285Y-136287380D01*
X115730000Y-136287380D02*
X116063333Y-137287380D01*
X116396666Y-136287380D01*
X116730000Y-137287380D02*
X116730000Y-136287380D01*
X117301428Y-137287380D02*
X116872857Y-136715952D01*
X117301428Y-136287380D02*
X116730000Y-136858809D01*
X117730000Y-137287380D02*
X117730000Y-136287380D01*
X118063333Y-136287380D02*
X118634761Y-136287380D01*
X118349047Y-137287380D02*
X118349047Y-136287380D01*
X119539523Y-137192142D02*
X119491904Y-137239761D01*
X119349047Y-137287380D01*
X119253809Y-137287380D01*
X119110952Y-137239761D01*
X119015714Y-137144523D01*
X118968095Y-137049285D01*
X118920476Y-136858809D01*
X118920476Y-136715952D01*
X118968095Y-136525476D01*
X119015714Y-136430238D01*
X119110952Y-136335000D01*
X119253809Y-136287380D01*
X119349047Y-136287380D01*
X119491904Y-136335000D01*
X119539523Y-136382619D01*
%TO.C,Q1*%
D16*
X133147619Y-136914285D02*
X133100000Y-136866666D01*
X133052380Y-136771428D01*
X133052380Y-136533333D01*
X133100000Y-136438095D01*
X133147619Y-136390476D01*
X133242857Y-136342857D01*
X133338095Y-136342857D01*
X133480952Y-136390476D01*
X134052380Y-136961904D01*
X134052380Y-136342857D01*
X134052380Y-135914285D02*
X133052380Y-135914285D01*
X134052380Y-135342857D01*
X133052380Y-135342857D01*
X133052380Y-134961904D02*
X133052380Y-134295238D01*
X134052380Y-134723809D01*
X133052380Y-133723809D02*
X133052380Y-133628571D01*
X133100000Y-133533333D01*
X133147619Y-133485714D01*
X133242857Y-133438095D01*
X133433333Y-133390476D01*
X133671428Y-133390476D01*
X133861904Y-133438095D01*
X133957142Y-133485714D01*
X134004761Y-133533333D01*
X134052380Y-133628571D01*
X134052380Y-133723809D01*
X134004761Y-133819047D01*
X133957142Y-133866666D01*
X133861904Y-133914285D01*
X133671428Y-133961904D01*
X133433333Y-133961904D01*
X133242857Y-133914285D01*
X133147619Y-133866666D01*
X133100000Y-133819047D01*
X133052380Y-133723809D01*
X133052380Y-132771428D02*
X133052380Y-132676190D01*
X133100000Y-132580952D01*
X133147619Y-132533333D01*
X133242857Y-132485714D01*
X133433333Y-132438095D01*
X133671428Y-132438095D01*
X133861904Y-132485714D01*
X133957142Y-132533333D01*
X134004761Y-132580952D01*
X134052380Y-132676190D01*
X134052380Y-132771428D01*
X134004761Y-132866666D01*
X133957142Y-132914285D01*
X133861904Y-132961904D01*
X133671428Y-133009523D01*
X133433333Y-133009523D01*
X133242857Y-132961904D01*
X133147619Y-132914285D01*
X133100000Y-132866666D01*
X133052380Y-132771428D01*
X133147619Y-132057142D02*
X133100000Y-132009523D01*
X133052380Y-131914285D01*
X133052380Y-131676190D01*
X133100000Y-131580952D01*
X133147619Y-131533333D01*
X133242857Y-131485714D01*
X133338095Y-131485714D01*
X133480952Y-131533333D01*
X134052380Y-132104761D01*
X134052380Y-131485714D01*
D17*
X136052380Y-134473809D02*
X136004761Y-134450000D01*
X135957142Y-134402380D01*
X135885714Y-134330952D01*
X135838095Y-134307142D01*
X135790476Y-134307142D01*
X135814285Y-134426190D02*
X135766666Y-134402380D01*
X135719047Y-134354761D01*
X135695238Y-134259523D01*
X135695238Y-134092857D01*
X135719047Y-133997619D01*
X135766666Y-133950000D01*
X135814285Y-133926190D01*
X135909523Y-133926190D01*
X135957142Y-133950000D01*
X136004761Y-133997619D01*
X136028571Y-134092857D01*
X136028571Y-134259523D01*
X136004761Y-134354761D01*
X135957142Y-134402380D01*
X135909523Y-134426190D01*
X135814285Y-134426190D01*
X136504761Y-134426190D02*
X136219047Y-134426190D01*
X136361904Y-134426190D02*
X136361904Y-133926190D01*
X136314285Y-133997619D01*
X136266666Y-134045238D01*
X136219047Y-134069047D01*
%TO.C,H3*%
D16*
X188428571Y-144652380D02*
X188428571Y-143652380D01*
X188761904Y-144366666D01*
X189095238Y-143652380D01*
X189095238Y-144652380D01*
X189714285Y-144652380D02*
X189619047Y-144604761D01*
X189571428Y-144557142D01*
X189523809Y-144461904D01*
X189523809Y-144176190D01*
X189571428Y-144080952D01*
X189619047Y-144033333D01*
X189714285Y-143985714D01*
X189857142Y-143985714D01*
X189952380Y-144033333D01*
X190000000Y-144080952D01*
X190047619Y-144176190D01*
X190047619Y-144461904D01*
X190000000Y-144557142D01*
X189952380Y-144604761D01*
X189857142Y-144652380D01*
X189714285Y-144652380D01*
X190904761Y-143985714D02*
X190904761Y-144652380D01*
X190476190Y-143985714D02*
X190476190Y-144509523D01*
X190523809Y-144604761D01*
X190619047Y-144652380D01*
X190761904Y-144652380D01*
X190857142Y-144604761D01*
X190904761Y-144557142D01*
X191380952Y-143985714D02*
X191380952Y-144652380D01*
X191380952Y-144080952D02*
X191428571Y-144033333D01*
X191523809Y-143985714D01*
X191666666Y-143985714D01*
X191761904Y-144033333D01*
X191809523Y-144128571D01*
X191809523Y-144652380D01*
X192142857Y-143985714D02*
X192523809Y-143985714D01*
X192285714Y-143652380D02*
X192285714Y-144509523D01*
X192333333Y-144604761D01*
X192428571Y-144652380D01*
X192523809Y-144652380D01*
X192857142Y-144652380D02*
X192857142Y-143985714D01*
X192857142Y-143652380D02*
X192809523Y-143700000D01*
X192857142Y-143747619D01*
X192904761Y-143700000D01*
X192857142Y-143652380D01*
X192857142Y-143747619D01*
X193333333Y-143985714D02*
X193333333Y-144652380D01*
X193333333Y-144080952D02*
X193380952Y-144033333D01*
X193476190Y-143985714D01*
X193619047Y-143985714D01*
X193714285Y-144033333D01*
X193761904Y-144128571D01*
X193761904Y-144652380D01*
X194666666Y-143985714D02*
X194666666Y-144795238D01*
X194619047Y-144890476D01*
X194571428Y-144938095D01*
X194476190Y-144985714D01*
X194333333Y-144985714D01*
X194238095Y-144938095D01*
X194666666Y-144604761D02*
X194571428Y-144652380D01*
X194380952Y-144652380D01*
X194285714Y-144604761D01*
X194238095Y-144557142D01*
X194190476Y-144461904D01*
X194190476Y-144176190D01*
X194238095Y-144080952D01*
X194285714Y-144033333D01*
X194380952Y-143985714D01*
X194571428Y-143985714D01*
X194666666Y-144033333D01*
X195142857Y-144652380D02*
X195142857Y-143652380D01*
X195142857Y-144128571D02*
X195714285Y-144128571D01*
X195714285Y-144652380D02*
X195714285Y-143652380D01*
X196333333Y-144652380D02*
X196238095Y-144604761D01*
X196190476Y-144557142D01*
X196142857Y-144461904D01*
X196142857Y-144176190D01*
X196190476Y-144080952D01*
X196238095Y-144033333D01*
X196333333Y-143985714D01*
X196476190Y-143985714D01*
X196571428Y-144033333D01*
X196619047Y-144080952D01*
X196666666Y-144176190D01*
X196666666Y-144461904D01*
X196619047Y-144557142D01*
X196571428Y-144604761D01*
X196476190Y-144652380D01*
X196333333Y-144652380D01*
X197238095Y-144652380D02*
X197142857Y-144604761D01*
X197095238Y-144509523D01*
X197095238Y-143652380D01*
X198000000Y-144604761D02*
X197904761Y-144652380D01*
X197714285Y-144652380D01*
X197619047Y-144604761D01*
X197571428Y-144509523D01*
X197571428Y-144128571D01*
X197619047Y-144033333D01*
X197714285Y-143985714D01*
X197904761Y-143985714D01*
X198000000Y-144033333D01*
X198047619Y-144128571D01*
X198047619Y-144223809D01*
X197571428Y-144319047D01*
X198238095Y-144747619D02*
X199000000Y-144747619D01*
X199238095Y-144652380D02*
X199238095Y-143652380D01*
X199619047Y-143652380D01*
X199714285Y-143700000D01*
X199761904Y-143747619D01*
X199809523Y-143842857D01*
X199809523Y-143985714D01*
X199761904Y-144080952D01*
X199714285Y-144128571D01*
X199619047Y-144176190D01*
X199238095Y-144176190D01*
X200666666Y-144652380D02*
X200666666Y-144128571D01*
X200619047Y-144033333D01*
X200523809Y-143985714D01*
X200333333Y-143985714D01*
X200238095Y-144033333D01*
X200666666Y-144604761D02*
X200571428Y-144652380D01*
X200333333Y-144652380D01*
X200238095Y-144604761D01*
X200190476Y-144509523D01*
X200190476Y-144414285D01*
X200238095Y-144319047D01*
X200333333Y-144271428D01*
X200571428Y-144271428D01*
X200666666Y-144223809D01*
X201571428Y-144652380D02*
X201571428Y-143652380D01*
X201571428Y-144604761D02*
X201476190Y-144652380D01*
X201285714Y-144652380D01*
X201190476Y-144604761D01*
X201142857Y-144557142D01*
X201095238Y-144461904D01*
X201095238Y-144176190D01*
X201142857Y-144080952D01*
X201190476Y-144033333D01*
X201285714Y-143985714D01*
X201476190Y-143985714D01*
X201571428Y-144033333D01*
X194538095Y-140452380D02*
X194538095Y-139452380D01*
X194538095Y-139928571D02*
X195109523Y-139928571D01*
X195109523Y-140452380D02*
X195109523Y-139452380D01*
X195490476Y-139452380D02*
X196109523Y-139452380D01*
X195776190Y-139833333D01*
X195919047Y-139833333D01*
X196014285Y-139880952D01*
X196061904Y-139928571D01*
X196109523Y-140023809D01*
X196109523Y-140261904D01*
X196061904Y-140357142D01*
X196014285Y-140404761D01*
X195919047Y-140452380D01*
X195633333Y-140452380D01*
X195538095Y-140404761D01*
X195490476Y-140357142D01*
%TO.C,H1*%
X98428571Y-74652380D02*
X98428571Y-73652380D01*
X98761904Y-74366666D01*
X99095238Y-73652380D01*
X99095238Y-74652380D01*
X99714285Y-74652380D02*
X99619047Y-74604761D01*
X99571428Y-74557142D01*
X99523809Y-74461904D01*
X99523809Y-74176190D01*
X99571428Y-74080952D01*
X99619047Y-74033333D01*
X99714285Y-73985714D01*
X99857142Y-73985714D01*
X99952380Y-74033333D01*
X100000000Y-74080952D01*
X100047619Y-74176190D01*
X100047619Y-74461904D01*
X100000000Y-74557142D01*
X99952380Y-74604761D01*
X99857142Y-74652380D01*
X99714285Y-74652380D01*
X100904761Y-73985714D02*
X100904761Y-74652380D01*
X100476190Y-73985714D02*
X100476190Y-74509523D01*
X100523809Y-74604761D01*
X100619047Y-74652380D01*
X100761904Y-74652380D01*
X100857142Y-74604761D01*
X100904761Y-74557142D01*
X101380952Y-73985714D02*
X101380952Y-74652380D01*
X101380952Y-74080952D02*
X101428571Y-74033333D01*
X101523809Y-73985714D01*
X101666666Y-73985714D01*
X101761904Y-74033333D01*
X101809523Y-74128571D01*
X101809523Y-74652380D01*
X102142857Y-73985714D02*
X102523809Y-73985714D01*
X102285714Y-73652380D02*
X102285714Y-74509523D01*
X102333333Y-74604761D01*
X102428571Y-74652380D01*
X102523809Y-74652380D01*
X102857142Y-74652380D02*
X102857142Y-73985714D01*
X102857142Y-73652380D02*
X102809523Y-73700000D01*
X102857142Y-73747619D01*
X102904761Y-73700000D01*
X102857142Y-73652380D01*
X102857142Y-73747619D01*
X103333333Y-73985714D02*
X103333333Y-74652380D01*
X103333333Y-74080952D02*
X103380952Y-74033333D01*
X103476190Y-73985714D01*
X103619047Y-73985714D01*
X103714285Y-74033333D01*
X103761904Y-74128571D01*
X103761904Y-74652380D01*
X104666666Y-73985714D02*
X104666666Y-74795238D01*
X104619047Y-74890476D01*
X104571428Y-74938095D01*
X104476190Y-74985714D01*
X104333333Y-74985714D01*
X104238095Y-74938095D01*
X104666666Y-74604761D02*
X104571428Y-74652380D01*
X104380952Y-74652380D01*
X104285714Y-74604761D01*
X104238095Y-74557142D01*
X104190476Y-74461904D01*
X104190476Y-74176190D01*
X104238095Y-74080952D01*
X104285714Y-74033333D01*
X104380952Y-73985714D01*
X104571428Y-73985714D01*
X104666666Y-74033333D01*
X105142857Y-74652380D02*
X105142857Y-73652380D01*
X105142857Y-74128571D02*
X105714285Y-74128571D01*
X105714285Y-74652380D02*
X105714285Y-73652380D01*
X106333333Y-74652380D02*
X106238095Y-74604761D01*
X106190476Y-74557142D01*
X106142857Y-74461904D01*
X106142857Y-74176190D01*
X106190476Y-74080952D01*
X106238095Y-74033333D01*
X106333333Y-73985714D01*
X106476190Y-73985714D01*
X106571428Y-74033333D01*
X106619047Y-74080952D01*
X106666666Y-74176190D01*
X106666666Y-74461904D01*
X106619047Y-74557142D01*
X106571428Y-74604761D01*
X106476190Y-74652380D01*
X106333333Y-74652380D01*
X107238095Y-74652380D02*
X107142857Y-74604761D01*
X107095238Y-74509523D01*
X107095238Y-73652380D01*
X108000000Y-74604761D02*
X107904761Y-74652380D01*
X107714285Y-74652380D01*
X107619047Y-74604761D01*
X107571428Y-74509523D01*
X107571428Y-74128571D01*
X107619047Y-74033333D01*
X107714285Y-73985714D01*
X107904761Y-73985714D01*
X108000000Y-74033333D01*
X108047619Y-74128571D01*
X108047619Y-74223809D01*
X107571428Y-74319047D01*
X108238095Y-74747619D02*
X109000000Y-74747619D01*
X109238095Y-74652380D02*
X109238095Y-73652380D01*
X109619047Y-73652380D01*
X109714285Y-73700000D01*
X109761904Y-73747619D01*
X109809523Y-73842857D01*
X109809523Y-73985714D01*
X109761904Y-74080952D01*
X109714285Y-74128571D01*
X109619047Y-74176190D01*
X109238095Y-74176190D01*
X110666666Y-74652380D02*
X110666666Y-74128571D01*
X110619047Y-74033333D01*
X110523809Y-73985714D01*
X110333333Y-73985714D01*
X110238095Y-74033333D01*
X110666666Y-74604761D02*
X110571428Y-74652380D01*
X110333333Y-74652380D01*
X110238095Y-74604761D01*
X110190476Y-74509523D01*
X110190476Y-74414285D01*
X110238095Y-74319047D01*
X110333333Y-74271428D01*
X110571428Y-74271428D01*
X110666666Y-74223809D01*
X111571428Y-74652380D02*
X111571428Y-73652380D01*
X111571428Y-74604761D02*
X111476190Y-74652380D01*
X111285714Y-74652380D01*
X111190476Y-74604761D01*
X111142857Y-74557142D01*
X111095238Y-74461904D01*
X111095238Y-74176190D01*
X111142857Y-74080952D01*
X111190476Y-74033333D01*
X111285714Y-73985714D01*
X111476190Y-73985714D01*
X111571428Y-74033333D01*
X104538095Y-70452380D02*
X104538095Y-69452380D01*
X104538095Y-69928571D02*
X105109523Y-69928571D01*
X105109523Y-70452380D02*
X105109523Y-69452380D01*
X106109523Y-70452380D02*
X105538095Y-70452380D01*
X105823809Y-70452380D02*
X105823809Y-69452380D01*
X105728571Y-69595238D01*
X105633333Y-69690476D01*
X105538095Y-69738095D01*
%TO.C,U1*%
D15*
X167894761Y-144017380D02*
X167894761Y-143017380D01*
X168132857Y-143017380D01*
X168275714Y-143065000D01*
X168370952Y-143160238D01*
X168418571Y-143255476D01*
X168466190Y-143445952D01*
X168466190Y-143588809D01*
X168418571Y-143779285D01*
X168370952Y-143874523D01*
X168275714Y-143969761D01*
X168132857Y-144017380D01*
X167894761Y-144017380D01*
X169228095Y-143493571D02*
X168894761Y-143493571D01*
X168894761Y-144017380D02*
X168894761Y-143017380D01*
X169370952Y-143017380D01*
X170323333Y-144017380D02*
X169990000Y-143541190D01*
X169751904Y-144017380D02*
X169751904Y-143017380D01*
X170132857Y-143017380D01*
X170228095Y-143065000D01*
X170275714Y-143112619D01*
X170323333Y-143207857D01*
X170323333Y-143350714D01*
X170275714Y-143445952D01*
X170228095Y-143493571D01*
X170132857Y-143541190D01*
X169751904Y-143541190D01*
X170942380Y-143017380D02*
X171037619Y-143017380D01*
X171132857Y-143065000D01*
X171180476Y-143112619D01*
X171228095Y-143207857D01*
X171275714Y-143398333D01*
X171275714Y-143636428D01*
X171228095Y-143826904D01*
X171180476Y-143922142D01*
X171132857Y-143969761D01*
X171037619Y-144017380D01*
X170942380Y-144017380D01*
X170847142Y-143969761D01*
X170799523Y-143922142D01*
X170751904Y-143826904D01*
X170704285Y-143636428D01*
X170704285Y-143398333D01*
X170751904Y-143207857D01*
X170799523Y-143112619D01*
X170847142Y-143065000D01*
X170942380Y-143017380D01*
X171656666Y-143112619D02*
X171704285Y-143065000D01*
X171799523Y-143017380D01*
X172037619Y-143017380D01*
X172132857Y-143065000D01*
X172180476Y-143112619D01*
X172228095Y-143207857D01*
X172228095Y-143303095D01*
X172180476Y-143445952D01*
X171609047Y-144017380D01*
X172228095Y-144017380D01*
X172704285Y-144017380D02*
X172894761Y-144017380D01*
X172990000Y-143969761D01*
X173037619Y-143922142D01*
X173132857Y-143779285D01*
X173180476Y-143588809D01*
X173180476Y-143207857D01*
X173132857Y-143112619D01*
X173085238Y-143065000D01*
X172990000Y-143017380D01*
X172799523Y-143017380D01*
X172704285Y-143065000D01*
X172656666Y-143112619D01*
X172609047Y-143207857D01*
X172609047Y-143445952D01*
X172656666Y-143541190D01*
X172704285Y-143588809D01*
X172799523Y-143636428D01*
X172990000Y-143636428D01*
X173085238Y-143588809D01*
X173132857Y-143541190D01*
X173180476Y-143445952D01*
X173656666Y-144017380D02*
X173847142Y-144017380D01*
X173942380Y-143969761D01*
X173990000Y-143922142D01*
X174085238Y-143779285D01*
X174132857Y-143588809D01*
X174132857Y-143207857D01*
X174085238Y-143112619D01*
X174037619Y-143065000D01*
X173942380Y-143017380D01*
X173751904Y-143017380D01*
X173656666Y-143065000D01*
X173609047Y-143112619D01*
X173561428Y-143207857D01*
X173561428Y-143445952D01*
X173609047Y-143541190D01*
X173656666Y-143588809D01*
X173751904Y-143636428D01*
X173942380Y-143636428D01*
X174037619Y-143588809D01*
X174085238Y-143541190D01*
X174132857Y-143445952D01*
%TO.C,J18*%
D16*
X142611904Y-135157142D02*
X142564285Y-135204761D01*
X142421428Y-135252380D01*
X142326190Y-135252380D01*
X142183333Y-135204761D01*
X142088095Y-135109523D01*
X142040476Y-135014285D01*
X141992857Y-134823809D01*
X141992857Y-134680952D01*
X142040476Y-134490476D01*
X142088095Y-134395238D01*
X142183333Y-134300000D01*
X142326190Y-134252380D01*
X142421428Y-134252380D01*
X142564285Y-134300000D01*
X142611904Y-134347619D01*
X143183333Y-135252380D02*
X143088095Y-135204761D01*
X143040476Y-135157142D01*
X142992857Y-135061904D01*
X142992857Y-134776190D01*
X143040476Y-134680952D01*
X143088095Y-134633333D01*
X143183333Y-134585714D01*
X143326190Y-134585714D01*
X143421428Y-134633333D01*
X143469047Y-134680952D01*
X143516666Y-134776190D01*
X143516666Y-135061904D01*
X143469047Y-135157142D01*
X143421428Y-135204761D01*
X143326190Y-135252380D01*
X143183333Y-135252380D01*
X143945238Y-134585714D02*
X143945238Y-135252380D01*
X143945238Y-134680952D02*
X143992857Y-134633333D01*
X144088095Y-134585714D01*
X144230952Y-134585714D01*
X144326190Y-134633333D01*
X144373809Y-134728571D01*
X144373809Y-135252380D01*
X144850000Y-134585714D02*
X144850000Y-135252380D01*
X144850000Y-134680952D02*
X144897619Y-134633333D01*
X144992857Y-134585714D01*
X145135714Y-134585714D01*
X145230952Y-134633333D01*
X145278571Y-134728571D01*
X145278571Y-135252380D01*
X145516666Y-135347619D02*
X146278571Y-135347619D01*
X146707142Y-134252380D02*
X146802380Y-134252380D01*
X146897619Y-134300000D01*
X146945238Y-134347619D01*
X146992857Y-134442857D01*
X147040476Y-134633333D01*
X147040476Y-134871428D01*
X146992857Y-135061904D01*
X146945238Y-135157142D01*
X146897619Y-135204761D01*
X146802380Y-135252380D01*
X146707142Y-135252380D01*
X146611904Y-135204761D01*
X146564285Y-135157142D01*
X146516666Y-135061904D01*
X146469047Y-134871428D01*
X146469047Y-134633333D01*
X146516666Y-134442857D01*
X146564285Y-134347619D01*
X146611904Y-134300000D01*
X146707142Y-134252380D01*
X147992857Y-135252380D02*
X147421428Y-135252380D01*
X147707142Y-135252380D02*
X147707142Y-134252380D01*
X147611904Y-134395238D01*
X147516666Y-134490476D01*
X147421428Y-134538095D01*
X148326190Y-135252380D02*
X148850000Y-134585714D01*
X148326190Y-134585714D02*
X148850000Y-135252380D01*
X149421428Y-134252380D02*
X149516666Y-134252380D01*
X149611904Y-134300000D01*
X149659523Y-134347619D01*
X149707142Y-134442857D01*
X149754761Y-134633333D01*
X149754761Y-134871428D01*
X149707142Y-135061904D01*
X149659523Y-135157142D01*
X149611904Y-135204761D01*
X149516666Y-135252380D01*
X149421428Y-135252380D01*
X149326190Y-135204761D01*
X149278571Y-135157142D01*
X149230952Y-135061904D01*
X149183333Y-134871428D01*
X149183333Y-134633333D01*
X149230952Y-134442857D01*
X149278571Y-134347619D01*
X149326190Y-134300000D01*
X149421428Y-134252380D01*
X150135714Y-134347619D02*
X150183333Y-134300000D01*
X150278571Y-134252380D01*
X150516666Y-134252380D01*
X150611904Y-134300000D01*
X150659523Y-134347619D01*
X150707142Y-134442857D01*
X150707142Y-134538095D01*
X150659523Y-134680952D01*
X150088095Y-135252380D01*
X150707142Y-135252380D01*
X145540476Y-132352380D02*
X145540476Y-133066666D01*
X145492857Y-133209523D01*
X145397619Y-133304761D01*
X145254761Y-133352380D01*
X145159523Y-133352380D01*
X146540476Y-133352380D02*
X145969047Y-133352380D01*
X146254761Y-133352380D02*
X146254761Y-132352380D01*
X146159523Y-132495238D01*
X146064285Y-132590476D01*
X145969047Y-132638095D01*
X147111904Y-132780952D02*
X147016666Y-132733333D01*
X146969047Y-132685714D01*
X146921428Y-132590476D01*
X146921428Y-132542857D01*
X146969047Y-132447619D01*
X147016666Y-132400000D01*
X147111904Y-132352380D01*
X147302380Y-132352380D01*
X147397619Y-132400000D01*
X147445238Y-132447619D01*
X147492857Y-132542857D01*
X147492857Y-132590476D01*
X147445238Y-132685714D01*
X147397619Y-132733333D01*
X147302380Y-132780952D01*
X147111904Y-132780952D01*
X147016666Y-132828571D01*
X146969047Y-132876190D01*
X146921428Y-132971428D01*
X146921428Y-133161904D01*
X146969047Y-133257142D01*
X147016666Y-133304761D01*
X147111904Y-133352380D01*
X147302380Y-133352380D01*
X147397619Y-133304761D01*
X147445238Y-133257142D01*
X147492857Y-133161904D01*
X147492857Y-132971428D01*
X147445238Y-132876190D01*
X147397619Y-132828571D01*
X147302380Y-132780952D01*
%TO.C,J26*%
X142611904Y-143057142D02*
X142564285Y-143104761D01*
X142421428Y-143152380D01*
X142326190Y-143152380D01*
X142183333Y-143104761D01*
X142088095Y-143009523D01*
X142040476Y-142914285D01*
X141992857Y-142723809D01*
X141992857Y-142580952D01*
X142040476Y-142390476D01*
X142088095Y-142295238D01*
X142183333Y-142200000D01*
X142326190Y-142152380D01*
X142421428Y-142152380D01*
X142564285Y-142200000D01*
X142611904Y-142247619D01*
X143183333Y-143152380D02*
X143088095Y-143104761D01*
X143040476Y-143057142D01*
X142992857Y-142961904D01*
X142992857Y-142676190D01*
X143040476Y-142580952D01*
X143088095Y-142533333D01*
X143183333Y-142485714D01*
X143326190Y-142485714D01*
X143421428Y-142533333D01*
X143469047Y-142580952D01*
X143516666Y-142676190D01*
X143516666Y-142961904D01*
X143469047Y-143057142D01*
X143421428Y-143104761D01*
X143326190Y-143152380D01*
X143183333Y-143152380D01*
X143945238Y-142485714D02*
X143945238Y-143152380D01*
X143945238Y-142580952D02*
X143992857Y-142533333D01*
X144088095Y-142485714D01*
X144230952Y-142485714D01*
X144326190Y-142533333D01*
X144373809Y-142628571D01*
X144373809Y-143152380D01*
X144850000Y-142485714D02*
X144850000Y-143152380D01*
X144850000Y-142580952D02*
X144897619Y-142533333D01*
X144992857Y-142485714D01*
X145135714Y-142485714D01*
X145230952Y-142533333D01*
X145278571Y-142628571D01*
X145278571Y-143152380D01*
X145516666Y-143247619D02*
X146278571Y-143247619D01*
X146707142Y-142152380D02*
X146802380Y-142152380D01*
X146897619Y-142200000D01*
X146945238Y-142247619D01*
X146992857Y-142342857D01*
X147040476Y-142533333D01*
X147040476Y-142771428D01*
X146992857Y-142961904D01*
X146945238Y-143057142D01*
X146897619Y-143104761D01*
X146802380Y-143152380D01*
X146707142Y-143152380D01*
X146611904Y-143104761D01*
X146564285Y-143057142D01*
X146516666Y-142961904D01*
X146469047Y-142771428D01*
X146469047Y-142533333D01*
X146516666Y-142342857D01*
X146564285Y-142247619D01*
X146611904Y-142200000D01*
X146707142Y-142152380D01*
X147992857Y-143152380D02*
X147421428Y-143152380D01*
X147707142Y-143152380D02*
X147707142Y-142152380D01*
X147611904Y-142295238D01*
X147516666Y-142390476D01*
X147421428Y-142438095D01*
X148326190Y-143152380D02*
X148850000Y-142485714D01*
X148326190Y-142485714D02*
X148850000Y-143152380D01*
X149421428Y-142152380D02*
X149516666Y-142152380D01*
X149611904Y-142200000D01*
X149659523Y-142247619D01*
X149707142Y-142342857D01*
X149754761Y-142533333D01*
X149754761Y-142771428D01*
X149707142Y-142961904D01*
X149659523Y-143057142D01*
X149611904Y-143104761D01*
X149516666Y-143152380D01*
X149421428Y-143152380D01*
X149326190Y-143104761D01*
X149278571Y-143057142D01*
X149230952Y-142961904D01*
X149183333Y-142771428D01*
X149183333Y-142533333D01*
X149230952Y-142342857D01*
X149278571Y-142247619D01*
X149326190Y-142200000D01*
X149421428Y-142152380D01*
X150135714Y-142247619D02*
X150183333Y-142200000D01*
X150278571Y-142152380D01*
X150516666Y-142152380D01*
X150611904Y-142200000D01*
X150659523Y-142247619D01*
X150707142Y-142342857D01*
X150707142Y-142438095D01*
X150659523Y-142580952D01*
X150088095Y-143152380D01*
X150707142Y-143152380D01*
X145540476Y-140252380D02*
X145540476Y-140966666D01*
X145492857Y-141109523D01*
X145397619Y-141204761D01*
X145254761Y-141252380D01*
X145159523Y-141252380D01*
X145969047Y-140347619D02*
X146016666Y-140300000D01*
X146111904Y-140252380D01*
X146350000Y-140252380D01*
X146445238Y-140300000D01*
X146492857Y-140347619D01*
X146540476Y-140442857D01*
X146540476Y-140538095D01*
X146492857Y-140680952D01*
X145921428Y-141252380D01*
X146540476Y-141252380D01*
X147397619Y-140252380D02*
X147207142Y-140252380D01*
X147111904Y-140300000D01*
X147064285Y-140347619D01*
X146969047Y-140490476D01*
X146921428Y-140680952D01*
X146921428Y-141061904D01*
X146969047Y-141157142D01*
X147016666Y-141204761D01*
X147111904Y-141252380D01*
X147302380Y-141252380D01*
X147397619Y-141204761D01*
X147445238Y-141157142D01*
X147492857Y-141061904D01*
X147492857Y-140823809D01*
X147445238Y-140728571D01*
X147397619Y-140680952D01*
X147302380Y-140633333D01*
X147111904Y-140633333D01*
X147016666Y-140680952D01*
X146969047Y-140728571D01*
X146921428Y-140823809D01*
%TO.C,J27*%
X160457142Y-78088095D02*
X160504761Y-78135714D01*
X160552380Y-78278571D01*
X160552380Y-78373809D01*
X160504761Y-78516666D01*
X160409523Y-78611904D01*
X160314285Y-78659523D01*
X160123809Y-78707142D01*
X159980952Y-78707142D01*
X159790476Y-78659523D01*
X159695238Y-78611904D01*
X159600000Y-78516666D01*
X159552380Y-78373809D01*
X159552380Y-78278571D01*
X159600000Y-78135714D01*
X159647619Y-78088095D01*
X160552380Y-77516666D02*
X160504761Y-77611904D01*
X160457142Y-77659523D01*
X160361904Y-77707142D01*
X160076190Y-77707142D01*
X159980952Y-77659523D01*
X159933333Y-77611904D01*
X159885714Y-77516666D01*
X159885714Y-77373809D01*
X159933333Y-77278571D01*
X159980952Y-77230952D01*
X160076190Y-77183333D01*
X160361904Y-77183333D01*
X160457142Y-77230952D01*
X160504761Y-77278571D01*
X160552380Y-77373809D01*
X160552380Y-77516666D01*
X159885714Y-76754761D02*
X160552380Y-76754761D01*
X159980952Y-76754761D02*
X159933333Y-76707142D01*
X159885714Y-76611904D01*
X159885714Y-76469047D01*
X159933333Y-76373809D01*
X160028571Y-76326190D01*
X160552380Y-76326190D01*
X159885714Y-75850000D02*
X160552380Y-75850000D01*
X159980952Y-75850000D02*
X159933333Y-75802380D01*
X159885714Y-75707142D01*
X159885714Y-75564285D01*
X159933333Y-75469047D01*
X160028571Y-75421428D01*
X160552380Y-75421428D01*
X160647619Y-75183333D02*
X160647619Y-74421428D01*
X159552380Y-73992857D02*
X159552380Y-73897619D01*
X159600000Y-73802380D01*
X159647619Y-73754761D01*
X159742857Y-73707142D01*
X159933333Y-73659523D01*
X160171428Y-73659523D01*
X160361904Y-73707142D01*
X160457142Y-73754761D01*
X160504761Y-73802380D01*
X160552380Y-73897619D01*
X160552380Y-73992857D01*
X160504761Y-74088095D01*
X160457142Y-74135714D01*
X160361904Y-74183333D01*
X160171428Y-74230952D01*
X159933333Y-74230952D01*
X159742857Y-74183333D01*
X159647619Y-74135714D01*
X159600000Y-74088095D01*
X159552380Y-73992857D01*
X160552380Y-72707142D02*
X160552380Y-73278571D01*
X160552380Y-72992857D02*
X159552380Y-72992857D01*
X159695238Y-73088095D01*
X159790476Y-73183333D01*
X159838095Y-73278571D01*
X160552380Y-72373809D02*
X159885714Y-71850000D01*
X159885714Y-72373809D02*
X160552380Y-71850000D01*
X159552380Y-71278571D02*
X159552380Y-71183333D01*
X159600000Y-71088095D01*
X159647619Y-71040476D01*
X159742857Y-70992857D01*
X159933333Y-70945238D01*
X160171428Y-70945238D01*
X160361904Y-70992857D01*
X160457142Y-71040476D01*
X160504761Y-71088095D01*
X160552380Y-71183333D01*
X160552380Y-71278571D01*
X160504761Y-71373809D01*
X160457142Y-71421428D01*
X160361904Y-71469047D01*
X160171428Y-71516666D01*
X159933333Y-71516666D01*
X159742857Y-71469047D01*
X159647619Y-71421428D01*
X159600000Y-71373809D01*
X159552380Y-71278571D01*
X159647619Y-70564285D02*
X159600000Y-70516666D01*
X159552380Y-70421428D01*
X159552380Y-70183333D01*
X159600000Y-70088095D01*
X159647619Y-70040476D01*
X159742857Y-69992857D01*
X159838095Y-69992857D01*
X159980952Y-70040476D01*
X160552380Y-70611904D01*
X160552380Y-69992857D01*
X157652380Y-75159523D02*
X158366666Y-75159523D01*
X158509523Y-75207142D01*
X158604761Y-75302380D01*
X158652380Y-75445238D01*
X158652380Y-75540476D01*
X157747619Y-74730952D02*
X157700000Y-74683333D01*
X157652380Y-74588095D01*
X157652380Y-74350000D01*
X157700000Y-74254761D01*
X157747619Y-74207142D01*
X157842857Y-74159523D01*
X157938095Y-74159523D01*
X158080952Y-74207142D01*
X158652380Y-74778571D01*
X158652380Y-74159523D01*
X157652380Y-73826190D02*
X157652380Y-73159523D01*
X158652380Y-73588095D01*
%TO.C,R7*%
X101222380Y-83046428D02*
X101222380Y-83617857D01*
X101222380Y-83332142D02*
X100222380Y-83332142D01*
X100365238Y-83427380D01*
X100460476Y-83522619D01*
X100508095Y-83617857D01*
X100222380Y-82427380D02*
X100222380Y-82332142D01*
X100270000Y-82236904D01*
X100317619Y-82189285D01*
X100412857Y-82141666D01*
X100603333Y-82094047D01*
X100841428Y-82094047D01*
X101031904Y-82141666D01*
X101127142Y-82189285D01*
X101174761Y-82236904D01*
X101222380Y-82332142D01*
X101222380Y-82427380D01*
X101174761Y-82522619D01*
X101127142Y-82570238D01*
X101031904Y-82617857D01*
X100841428Y-82665476D01*
X100603333Y-82665476D01*
X100412857Y-82617857D01*
X100317619Y-82570238D01*
X100270000Y-82522619D01*
X100222380Y-82427380D01*
X100222380Y-81475000D02*
X100222380Y-81379761D01*
X100270000Y-81284523D01*
X100317619Y-81236904D01*
X100412857Y-81189285D01*
X100603333Y-81141666D01*
X100841428Y-81141666D01*
X101031904Y-81189285D01*
X101127142Y-81236904D01*
X101174761Y-81284523D01*
X101222380Y-81379761D01*
X101222380Y-81475000D01*
X101174761Y-81570238D01*
X101127142Y-81617857D01*
X101031904Y-81665476D01*
X100841428Y-81713095D01*
X100603333Y-81713095D01*
X100412857Y-81665476D01*
X100317619Y-81617857D01*
X100270000Y-81570238D01*
X100222380Y-81475000D01*
X101222380Y-80713095D02*
X100222380Y-80713095D01*
X100841428Y-80617857D02*
X101222380Y-80332142D01*
X100555714Y-80332142D02*
X100936666Y-80713095D01*
D18*
X102380952Y-81966666D02*
X102190476Y-82100000D01*
X102380952Y-82195238D02*
X101980952Y-82195238D01*
X101980952Y-82042857D01*
X102000000Y-82004761D01*
X102019047Y-81985714D01*
X102057142Y-81966666D01*
X102114285Y-81966666D01*
X102152380Y-81985714D01*
X102171428Y-82004761D01*
X102190476Y-82042857D01*
X102190476Y-82195238D01*
X101980952Y-81833333D02*
X101980952Y-81566666D01*
X102380952Y-81738095D01*
%TO.C,R12*%
D16*
X132082380Y-109271428D02*
X132082380Y-109842857D01*
X132082380Y-109557142D02*
X131082380Y-109557142D01*
X131225238Y-109652380D01*
X131320476Y-109747619D01*
X131368095Y-109842857D01*
X131082380Y-108652380D02*
X131082380Y-108557142D01*
X131130000Y-108461904D01*
X131177619Y-108414285D01*
X131272857Y-108366666D01*
X131463333Y-108319047D01*
X131701428Y-108319047D01*
X131891904Y-108366666D01*
X131987142Y-108414285D01*
X132034761Y-108461904D01*
X132082380Y-108557142D01*
X132082380Y-108652380D01*
X132034761Y-108747619D01*
X131987142Y-108795238D01*
X131891904Y-108842857D01*
X131701428Y-108890476D01*
X131463333Y-108890476D01*
X131272857Y-108842857D01*
X131177619Y-108795238D01*
X131130000Y-108747619D01*
X131082380Y-108652380D01*
X131082380Y-107700000D02*
X131082380Y-107604761D01*
X131130000Y-107509523D01*
X131177619Y-107461904D01*
X131272857Y-107414285D01*
X131463333Y-107366666D01*
X131701428Y-107366666D01*
X131891904Y-107414285D01*
X131987142Y-107461904D01*
X132034761Y-107509523D01*
X132082380Y-107604761D01*
X132082380Y-107700000D01*
X132034761Y-107795238D01*
X131987142Y-107842857D01*
X131891904Y-107890476D01*
X131701428Y-107938095D01*
X131463333Y-107938095D01*
X131272857Y-107890476D01*
X131177619Y-107842857D01*
X131130000Y-107795238D01*
X131082380Y-107700000D01*
X132082380Y-106938095D02*
X131082380Y-106938095D01*
X131701428Y-106842857D02*
X132082380Y-106557142D01*
X131415714Y-106557142D02*
X131796666Y-106938095D01*
D18*
X130380952Y-108457142D02*
X130190476Y-108590476D01*
X130380952Y-108685714D02*
X129980952Y-108685714D01*
X129980952Y-108533333D01*
X130000000Y-108495238D01*
X130019047Y-108476190D01*
X130057142Y-108457142D01*
X130114285Y-108457142D01*
X130152380Y-108476190D01*
X130171428Y-108495238D01*
X130190476Y-108533333D01*
X130190476Y-108685714D01*
X130380952Y-108076190D02*
X130380952Y-108304761D01*
X130380952Y-108190476D02*
X129980952Y-108190476D01*
X130038095Y-108228571D01*
X130076190Y-108266666D01*
X130095238Y-108304761D01*
X130019047Y-107923809D02*
X130000000Y-107904761D01*
X129980952Y-107866666D01*
X129980952Y-107771428D01*
X130000000Y-107733333D01*
X130019047Y-107714285D01*
X130057142Y-107695238D01*
X130095238Y-107695238D01*
X130152380Y-107714285D01*
X130380952Y-107942857D01*
X130380952Y-107695238D01*
%TO.C,R13*%
D16*
X133982380Y-130871428D02*
X133982380Y-131442857D01*
X133982380Y-131157142D02*
X132982380Y-131157142D01*
X133125238Y-131252380D01*
X133220476Y-131347619D01*
X133268095Y-131442857D01*
X132982380Y-130252380D02*
X132982380Y-130157142D01*
X133030000Y-130061904D01*
X133077619Y-130014285D01*
X133172857Y-129966666D01*
X133363333Y-129919047D01*
X133601428Y-129919047D01*
X133791904Y-129966666D01*
X133887142Y-130014285D01*
X133934761Y-130061904D01*
X133982380Y-130157142D01*
X133982380Y-130252380D01*
X133934761Y-130347619D01*
X133887142Y-130395238D01*
X133791904Y-130442857D01*
X133601428Y-130490476D01*
X133363333Y-130490476D01*
X133172857Y-130442857D01*
X133077619Y-130395238D01*
X133030000Y-130347619D01*
X132982380Y-130252380D01*
X132982380Y-129300000D02*
X132982380Y-129204761D01*
X133030000Y-129109523D01*
X133077619Y-129061904D01*
X133172857Y-129014285D01*
X133363333Y-128966666D01*
X133601428Y-128966666D01*
X133791904Y-129014285D01*
X133887142Y-129061904D01*
X133934761Y-129109523D01*
X133982380Y-129204761D01*
X133982380Y-129300000D01*
X133934761Y-129395238D01*
X133887142Y-129442857D01*
X133791904Y-129490476D01*
X133601428Y-129538095D01*
X133363333Y-129538095D01*
X133172857Y-129490476D01*
X133077619Y-129442857D01*
X133030000Y-129395238D01*
X132982380Y-129300000D01*
X133982380Y-128538095D02*
X132982380Y-128538095D01*
X133601428Y-128442857D02*
X133982380Y-128157142D01*
X133315714Y-128157142D02*
X133696666Y-128538095D01*
D18*
X132280952Y-130057142D02*
X132090476Y-130190476D01*
X132280952Y-130285714D02*
X131880952Y-130285714D01*
X131880952Y-130133333D01*
X131900000Y-130095238D01*
X131919047Y-130076190D01*
X131957142Y-130057142D01*
X132014285Y-130057142D01*
X132052380Y-130076190D01*
X132071428Y-130095238D01*
X132090476Y-130133333D01*
X132090476Y-130285714D01*
X132280952Y-129676190D02*
X132280952Y-129904761D01*
X132280952Y-129790476D02*
X131880952Y-129790476D01*
X131938095Y-129828571D01*
X131976190Y-129866666D01*
X131995238Y-129904761D01*
X131880952Y-129542857D02*
X131880952Y-129295238D01*
X132033333Y-129428571D01*
X132033333Y-129371428D01*
X132052380Y-129333333D01*
X132071428Y-129314285D01*
X132109523Y-129295238D01*
X132204761Y-129295238D01*
X132242857Y-129314285D01*
X132261904Y-129333333D01*
X132280952Y-129371428D01*
X132280952Y-129485714D01*
X132261904Y-129523809D01*
X132242857Y-129542857D01*
%TO.C,R16*%
D16*
X135122380Y-137944047D02*
X135122380Y-138515476D01*
X135122380Y-138229761D02*
X134122380Y-138229761D01*
X134265238Y-138325000D01*
X134360476Y-138420238D01*
X134408095Y-138515476D01*
X135122380Y-137515476D02*
X134122380Y-137515476D01*
X134741428Y-137420238D02*
X135122380Y-137134523D01*
X134455714Y-137134523D02*
X134836666Y-137515476D01*
D18*
X136280952Y-138082142D02*
X136090476Y-138215476D01*
X136280952Y-138310714D02*
X135880952Y-138310714D01*
X135880952Y-138158333D01*
X135900000Y-138120238D01*
X135919047Y-138101190D01*
X135957142Y-138082142D01*
X136014285Y-138082142D01*
X136052380Y-138101190D01*
X136071428Y-138120238D01*
X136090476Y-138158333D01*
X136090476Y-138310714D01*
X136280952Y-137701190D02*
X136280952Y-137929761D01*
X136280952Y-137815476D02*
X135880952Y-137815476D01*
X135938095Y-137853571D01*
X135976190Y-137891666D01*
X135995238Y-137929761D01*
X135880952Y-137358333D02*
X135880952Y-137434523D01*
X135900000Y-137472619D01*
X135919047Y-137491666D01*
X135976190Y-137529761D01*
X136052380Y-137548809D01*
X136204761Y-137548809D01*
X136242857Y-137529761D01*
X136261904Y-137510714D01*
X136280952Y-137472619D01*
X136280952Y-137396428D01*
X136261904Y-137358333D01*
X136242857Y-137339285D01*
X136204761Y-137320238D01*
X136109523Y-137320238D01*
X136071428Y-137339285D01*
X136052380Y-137358333D01*
X136033333Y-137396428D01*
X136033333Y-137472619D01*
X136052380Y-137510714D01*
X136071428Y-137529761D01*
X136109523Y-137548809D01*
%TO.C,R17*%
D16*
X136122380Y-131366666D02*
X136122380Y-131938095D01*
X136122380Y-131652380D02*
X135122380Y-131652380D01*
X135265238Y-131747619D01*
X135360476Y-131842857D01*
X135408095Y-131938095D01*
X135122380Y-130747619D02*
X135122380Y-130652380D01*
X135170000Y-130557142D01*
X135217619Y-130509523D01*
X135312857Y-130461904D01*
X135503333Y-130414285D01*
X135741428Y-130414285D01*
X135931904Y-130461904D01*
X136027142Y-130509523D01*
X136074761Y-130557142D01*
X136122380Y-130652380D01*
X136122380Y-130747619D01*
X136074761Y-130842857D01*
X136027142Y-130890476D01*
X135931904Y-130938095D01*
X135741428Y-130985714D01*
X135503333Y-130985714D01*
X135312857Y-130938095D01*
X135217619Y-130890476D01*
X135170000Y-130842857D01*
X135122380Y-130747619D01*
X135122380Y-129795238D02*
X135122380Y-129700000D01*
X135170000Y-129604761D01*
X135217619Y-129557142D01*
X135312857Y-129509523D01*
X135503333Y-129461904D01*
X135741428Y-129461904D01*
X135931904Y-129509523D01*
X136027142Y-129557142D01*
X136074761Y-129604761D01*
X136122380Y-129700000D01*
X136122380Y-129795238D01*
X136074761Y-129890476D01*
X136027142Y-129938095D01*
X135931904Y-129985714D01*
X135741428Y-130033333D01*
X135503333Y-130033333D01*
X135312857Y-129985714D01*
X135217619Y-129938095D01*
X135170000Y-129890476D01*
X135122380Y-129795238D01*
D18*
X137280952Y-130957142D02*
X137090476Y-131090476D01*
X137280952Y-131185714D02*
X136880952Y-131185714D01*
X136880952Y-131033333D01*
X136900000Y-130995238D01*
X136919047Y-130976190D01*
X136957142Y-130957142D01*
X137014285Y-130957142D01*
X137052380Y-130976190D01*
X137071428Y-130995238D01*
X137090476Y-131033333D01*
X137090476Y-131185714D01*
X137280952Y-130576190D02*
X137280952Y-130804761D01*
X137280952Y-130690476D02*
X136880952Y-130690476D01*
X136938095Y-130728571D01*
X136976190Y-130766666D01*
X136995238Y-130804761D01*
X136880952Y-130442857D02*
X136880952Y-130176190D01*
X137280952Y-130347619D01*
%TO.C,R18*%
D16*
X136982380Y-131771428D02*
X136982380Y-132342857D01*
X136982380Y-132057142D02*
X135982380Y-132057142D01*
X136125238Y-132152380D01*
X136220476Y-132247619D01*
X136268095Y-132342857D01*
X135982380Y-131152380D02*
X135982380Y-131057142D01*
X136030000Y-130961904D01*
X136077619Y-130914285D01*
X136172857Y-130866666D01*
X136363333Y-130819047D01*
X136601428Y-130819047D01*
X136791904Y-130866666D01*
X136887142Y-130914285D01*
X136934761Y-130961904D01*
X136982380Y-131057142D01*
X136982380Y-131152380D01*
X136934761Y-131247619D01*
X136887142Y-131295238D01*
X136791904Y-131342857D01*
X136601428Y-131390476D01*
X136363333Y-131390476D01*
X136172857Y-131342857D01*
X136077619Y-131295238D01*
X136030000Y-131247619D01*
X135982380Y-131152380D01*
X135982380Y-130200000D02*
X135982380Y-130104761D01*
X136030000Y-130009523D01*
X136077619Y-129961904D01*
X136172857Y-129914285D01*
X136363333Y-129866666D01*
X136601428Y-129866666D01*
X136791904Y-129914285D01*
X136887142Y-129961904D01*
X136934761Y-130009523D01*
X136982380Y-130104761D01*
X136982380Y-130200000D01*
X136934761Y-130295238D01*
X136887142Y-130342857D01*
X136791904Y-130390476D01*
X136601428Y-130438095D01*
X136363333Y-130438095D01*
X136172857Y-130390476D01*
X136077619Y-130342857D01*
X136030000Y-130295238D01*
X135982380Y-130200000D01*
X136982380Y-129438095D02*
X135982380Y-129438095D01*
X136601428Y-129342857D02*
X136982380Y-129057142D01*
X136315714Y-129057142D02*
X136696666Y-129438095D01*
D18*
X135280952Y-130957142D02*
X135090476Y-131090476D01*
X135280952Y-131185714D02*
X134880952Y-131185714D01*
X134880952Y-131033333D01*
X134900000Y-130995238D01*
X134919047Y-130976190D01*
X134957142Y-130957142D01*
X135014285Y-130957142D01*
X135052380Y-130976190D01*
X135071428Y-130995238D01*
X135090476Y-131033333D01*
X135090476Y-131185714D01*
X135280952Y-130576190D02*
X135280952Y-130804761D01*
X135280952Y-130690476D02*
X134880952Y-130690476D01*
X134938095Y-130728571D01*
X134976190Y-130766666D01*
X134995238Y-130804761D01*
X135052380Y-130347619D02*
X135033333Y-130385714D01*
X135014285Y-130404761D01*
X134976190Y-130423809D01*
X134957142Y-130423809D01*
X134919047Y-130404761D01*
X134900000Y-130385714D01*
X134880952Y-130347619D01*
X134880952Y-130271428D01*
X134900000Y-130233333D01*
X134919047Y-130214285D01*
X134957142Y-130195238D01*
X134976190Y-130195238D01*
X135014285Y-130214285D01*
X135033333Y-130233333D01*
X135052380Y-130271428D01*
X135052380Y-130347619D01*
X135071428Y-130385714D01*
X135090476Y-130404761D01*
X135128571Y-130423809D01*
X135204761Y-130423809D01*
X135242857Y-130404761D01*
X135261904Y-130385714D01*
X135280952Y-130347619D01*
X135280952Y-130271428D01*
X135261904Y-130233333D01*
X135242857Y-130214285D01*
X135204761Y-130195238D01*
X135128571Y-130195238D01*
X135090476Y-130214285D01*
X135071428Y-130233333D01*
X135052380Y-130271428D01*
%TO.C,R34*%
D16*
X159180952Y-125222380D02*
X158609523Y-125222380D01*
X158895238Y-125222380D02*
X158895238Y-124222380D01*
X158800000Y-124365238D01*
X158704761Y-124460476D01*
X158609523Y-124508095D01*
X159609523Y-125222380D02*
X159609523Y-124222380D01*
X159704761Y-124841428D02*
X159990476Y-125222380D01*
X159990476Y-124555714D02*
X159609523Y-124936666D01*
D18*
X159042857Y-126380952D02*
X158909523Y-126190476D01*
X158814285Y-126380952D02*
X158814285Y-125980952D01*
X158966666Y-125980952D01*
X159004761Y-126000000D01*
X159023809Y-126019047D01*
X159042857Y-126057142D01*
X159042857Y-126114285D01*
X159023809Y-126152380D01*
X159004761Y-126171428D01*
X158966666Y-126190476D01*
X158814285Y-126190476D01*
X159176190Y-125980952D02*
X159423809Y-125980952D01*
X159290476Y-126133333D01*
X159347619Y-126133333D01*
X159385714Y-126152380D01*
X159404761Y-126171428D01*
X159423809Y-126209523D01*
X159423809Y-126304761D01*
X159404761Y-126342857D01*
X159385714Y-126361904D01*
X159347619Y-126380952D01*
X159233333Y-126380952D01*
X159195238Y-126361904D01*
X159176190Y-126342857D01*
X159766666Y-126114285D02*
X159766666Y-126380952D01*
X159671428Y-125961904D02*
X159576190Y-126247619D01*
X159823809Y-126247619D01*
%TO.C,R36*%
D16*
X159180952Y-127522380D02*
X158609523Y-127522380D01*
X158895238Y-127522380D02*
X158895238Y-126522380D01*
X158800000Y-126665238D01*
X158704761Y-126760476D01*
X158609523Y-126808095D01*
X159609523Y-127522380D02*
X159609523Y-126522380D01*
X159704761Y-127141428D02*
X159990476Y-127522380D01*
X159990476Y-126855714D02*
X159609523Y-127236666D01*
D18*
X159042857Y-128680952D02*
X158909523Y-128490476D01*
X158814285Y-128680952D02*
X158814285Y-128280952D01*
X158966666Y-128280952D01*
X159004761Y-128300000D01*
X159023809Y-128319047D01*
X159042857Y-128357142D01*
X159042857Y-128414285D01*
X159023809Y-128452380D01*
X159004761Y-128471428D01*
X158966666Y-128490476D01*
X158814285Y-128490476D01*
X159176190Y-128280952D02*
X159423809Y-128280952D01*
X159290476Y-128433333D01*
X159347619Y-128433333D01*
X159385714Y-128452380D01*
X159404761Y-128471428D01*
X159423809Y-128509523D01*
X159423809Y-128604761D01*
X159404761Y-128642857D01*
X159385714Y-128661904D01*
X159347619Y-128680952D01*
X159233333Y-128680952D01*
X159195238Y-128661904D01*
X159176190Y-128642857D01*
X159766666Y-128280952D02*
X159690476Y-128280952D01*
X159652380Y-128300000D01*
X159633333Y-128319047D01*
X159595238Y-128376190D01*
X159576190Y-128452380D01*
X159576190Y-128604761D01*
X159595238Y-128642857D01*
X159614285Y-128661904D01*
X159652380Y-128680952D01*
X159728571Y-128680952D01*
X159766666Y-128661904D01*
X159785714Y-128642857D01*
X159804761Y-128604761D01*
X159804761Y-128509523D01*
X159785714Y-128471428D01*
X159766666Y-128452380D01*
X159728571Y-128433333D01*
X159652380Y-128433333D01*
X159614285Y-128452380D01*
X159595238Y-128471428D01*
X159576190Y-128509523D01*
%TO.C,J9*%
D16*
X142011904Y-71657142D02*
X141964285Y-71704761D01*
X141821428Y-71752380D01*
X141726190Y-71752380D01*
X141583333Y-71704761D01*
X141488095Y-71609523D01*
X141440476Y-71514285D01*
X141392857Y-71323809D01*
X141392857Y-71180952D01*
X141440476Y-70990476D01*
X141488095Y-70895238D01*
X141583333Y-70800000D01*
X141726190Y-70752380D01*
X141821428Y-70752380D01*
X141964285Y-70800000D01*
X142011904Y-70847619D01*
X142583333Y-71752380D02*
X142488095Y-71704761D01*
X142440476Y-71657142D01*
X142392857Y-71561904D01*
X142392857Y-71276190D01*
X142440476Y-71180952D01*
X142488095Y-71133333D01*
X142583333Y-71085714D01*
X142726190Y-71085714D01*
X142821428Y-71133333D01*
X142869047Y-71180952D01*
X142916666Y-71276190D01*
X142916666Y-71561904D01*
X142869047Y-71657142D01*
X142821428Y-71704761D01*
X142726190Y-71752380D01*
X142583333Y-71752380D01*
X143345238Y-71085714D02*
X143345238Y-71752380D01*
X143345238Y-71180952D02*
X143392857Y-71133333D01*
X143488095Y-71085714D01*
X143630952Y-71085714D01*
X143726190Y-71133333D01*
X143773809Y-71228571D01*
X143773809Y-71752380D01*
X144250000Y-71085714D02*
X144250000Y-71752380D01*
X144250000Y-71180952D02*
X144297619Y-71133333D01*
X144392857Y-71085714D01*
X144535714Y-71085714D01*
X144630952Y-71133333D01*
X144678571Y-71228571D01*
X144678571Y-71752380D01*
X144916666Y-71847619D02*
X145678571Y-71847619D01*
X146107142Y-70752380D02*
X146202380Y-70752380D01*
X146297619Y-70800000D01*
X146345238Y-70847619D01*
X146392857Y-70942857D01*
X146440476Y-71133333D01*
X146440476Y-71371428D01*
X146392857Y-71561904D01*
X146345238Y-71657142D01*
X146297619Y-71704761D01*
X146202380Y-71752380D01*
X146107142Y-71752380D01*
X146011904Y-71704761D01*
X145964285Y-71657142D01*
X145916666Y-71561904D01*
X145869047Y-71371428D01*
X145869047Y-71133333D01*
X145916666Y-70942857D01*
X145964285Y-70847619D01*
X146011904Y-70800000D01*
X146107142Y-70752380D01*
X147392857Y-71752380D02*
X146821428Y-71752380D01*
X147107142Y-71752380D02*
X147107142Y-70752380D01*
X147011904Y-70895238D01*
X146916666Y-70990476D01*
X146821428Y-71038095D01*
X147726190Y-71752380D02*
X148250000Y-71085714D01*
X147726190Y-71085714D02*
X148250000Y-71752380D01*
X148821428Y-70752380D02*
X148916666Y-70752380D01*
X149011904Y-70800000D01*
X149059523Y-70847619D01*
X149107142Y-70942857D01*
X149154761Y-71133333D01*
X149154761Y-71371428D01*
X149107142Y-71561904D01*
X149059523Y-71657142D01*
X149011904Y-71704761D01*
X148916666Y-71752380D01*
X148821428Y-71752380D01*
X148726190Y-71704761D01*
X148678571Y-71657142D01*
X148630952Y-71561904D01*
X148583333Y-71371428D01*
X148583333Y-71133333D01*
X148630952Y-70942857D01*
X148678571Y-70847619D01*
X148726190Y-70800000D01*
X148821428Y-70752380D01*
X149535714Y-70847619D02*
X149583333Y-70800000D01*
X149678571Y-70752380D01*
X149916666Y-70752380D01*
X150011904Y-70800000D01*
X150059523Y-70847619D01*
X150107142Y-70942857D01*
X150107142Y-71038095D01*
X150059523Y-71180952D01*
X149488095Y-71752380D01*
X150107142Y-71752380D01*
X145416666Y-72652380D02*
X145416666Y-73366666D01*
X145369047Y-73509523D01*
X145273809Y-73604761D01*
X145130952Y-73652380D01*
X145035714Y-73652380D01*
X145940476Y-73652380D02*
X146130952Y-73652380D01*
X146226190Y-73604761D01*
X146273809Y-73557142D01*
X146369047Y-73414285D01*
X146416666Y-73223809D01*
X146416666Y-72842857D01*
X146369047Y-72747619D01*
X146321428Y-72700000D01*
X146226190Y-72652380D01*
X146035714Y-72652380D01*
X145940476Y-72700000D01*
X145892857Y-72747619D01*
X145845238Y-72842857D01*
X145845238Y-73080952D01*
X145892857Y-73176190D01*
X145940476Y-73223809D01*
X146035714Y-73271428D01*
X146226190Y-73271428D01*
X146321428Y-73223809D01*
X146369047Y-73176190D01*
X146416666Y-73080952D01*
%TO.C,J4*%
X137257142Y-78188095D02*
X137304761Y-78235714D01*
X137352380Y-78378571D01*
X137352380Y-78473809D01*
X137304761Y-78616666D01*
X137209523Y-78711904D01*
X137114285Y-78759523D01*
X136923809Y-78807142D01*
X136780952Y-78807142D01*
X136590476Y-78759523D01*
X136495238Y-78711904D01*
X136400000Y-78616666D01*
X136352380Y-78473809D01*
X136352380Y-78378571D01*
X136400000Y-78235714D01*
X136447619Y-78188095D01*
X137352380Y-77616666D02*
X137304761Y-77711904D01*
X137257142Y-77759523D01*
X137161904Y-77807142D01*
X136876190Y-77807142D01*
X136780952Y-77759523D01*
X136733333Y-77711904D01*
X136685714Y-77616666D01*
X136685714Y-77473809D01*
X136733333Y-77378571D01*
X136780952Y-77330952D01*
X136876190Y-77283333D01*
X137161904Y-77283333D01*
X137257142Y-77330952D01*
X137304761Y-77378571D01*
X137352380Y-77473809D01*
X137352380Y-77616666D01*
X136685714Y-76854761D02*
X137352380Y-76854761D01*
X136780952Y-76854761D02*
X136733333Y-76807142D01*
X136685714Y-76711904D01*
X136685714Y-76569047D01*
X136733333Y-76473809D01*
X136828571Y-76426190D01*
X137352380Y-76426190D01*
X136685714Y-75950000D02*
X137352380Y-75950000D01*
X136780952Y-75950000D02*
X136733333Y-75902380D01*
X136685714Y-75807142D01*
X136685714Y-75664285D01*
X136733333Y-75569047D01*
X136828571Y-75521428D01*
X137352380Y-75521428D01*
X137447619Y-75283333D02*
X137447619Y-74521428D01*
X136352380Y-74092857D02*
X136352380Y-73997619D01*
X136400000Y-73902380D01*
X136447619Y-73854761D01*
X136542857Y-73807142D01*
X136733333Y-73759523D01*
X136971428Y-73759523D01*
X137161904Y-73807142D01*
X137257142Y-73854761D01*
X137304761Y-73902380D01*
X137352380Y-73997619D01*
X137352380Y-74092857D01*
X137304761Y-74188095D01*
X137257142Y-74235714D01*
X137161904Y-74283333D01*
X136971428Y-74330952D01*
X136733333Y-74330952D01*
X136542857Y-74283333D01*
X136447619Y-74235714D01*
X136400000Y-74188095D01*
X136352380Y-74092857D01*
X137352380Y-72807142D02*
X137352380Y-73378571D01*
X137352380Y-73092857D02*
X136352380Y-73092857D01*
X136495238Y-73188095D01*
X136590476Y-73283333D01*
X136638095Y-73378571D01*
X137352380Y-72473809D02*
X136685714Y-71950000D01*
X136685714Y-72473809D02*
X137352380Y-71950000D01*
X136352380Y-71378571D02*
X136352380Y-71283333D01*
X136400000Y-71188095D01*
X136447619Y-71140476D01*
X136542857Y-71092857D01*
X136733333Y-71045238D01*
X136971428Y-71045238D01*
X137161904Y-71092857D01*
X137257142Y-71140476D01*
X137304761Y-71188095D01*
X137352380Y-71283333D01*
X137352380Y-71378571D01*
X137304761Y-71473809D01*
X137257142Y-71521428D01*
X137161904Y-71569047D01*
X136971428Y-71616666D01*
X136733333Y-71616666D01*
X136542857Y-71569047D01*
X136447619Y-71521428D01*
X136400000Y-71473809D01*
X136352380Y-71378571D01*
X136447619Y-70664285D02*
X136400000Y-70616666D01*
X136352380Y-70521428D01*
X136352380Y-70283333D01*
X136400000Y-70188095D01*
X136447619Y-70140476D01*
X136542857Y-70092857D01*
X136638095Y-70092857D01*
X136780952Y-70140476D01*
X137352380Y-70711904D01*
X137352380Y-70092857D01*
X134452380Y-74783333D02*
X135166666Y-74783333D01*
X135309523Y-74830952D01*
X135404761Y-74926190D01*
X135452380Y-75069047D01*
X135452380Y-75164285D01*
X134785714Y-73878571D02*
X135452380Y-73878571D01*
X134404761Y-74116666D02*
X135119047Y-74354761D01*
X135119047Y-73735714D01*
%TO.C,J1*%
X181261904Y-125187142D02*
X181214285Y-125234761D01*
X181071428Y-125282380D01*
X180976190Y-125282380D01*
X180833333Y-125234761D01*
X180738095Y-125139523D01*
X180690476Y-125044285D01*
X180642857Y-124853809D01*
X180642857Y-124710952D01*
X180690476Y-124520476D01*
X180738095Y-124425238D01*
X180833333Y-124330000D01*
X180976190Y-124282380D01*
X181071428Y-124282380D01*
X181214285Y-124330000D01*
X181261904Y-124377619D01*
X181833333Y-125282380D02*
X181738095Y-125234761D01*
X181690476Y-125187142D01*
X181642857Y-125091904D01*
X181642857Y-124806190D01*
X181690476Y-124710952D01*
X181738095Y-124663333D01*
X181833333Y-124615714D01*
X181976190Y-124615714D01*
X182071428Y-124663333D01*
X182119047Y-124710952D01*
X182166666Y-124806190D01*
X182166666Y-125091904D01*
X182119047Y-125187142D01*
X182071428Y-125234761D01*
X181976190Y-125282380D01*
X181833333Y-125282380D01*
X182595238Y-124615714D02*
X182595238Y-125282380D01*
X182595238Y-124710952D02*
X182642857Y-124663333D01*
X182738095Y-124615714D01*
X182880952Y-124615714D01*
X182976190Y-124663333D01*
X183023809Y-124758571D01*
X183023809Y-125282380D01*
X183500000Y-124615714D02*
X183500000Y-125282380D01*
X183500000Y-124710952D02*
X183547619Y-124663333D01*
X183642857Y-124615714D01*
X183785714Y-124615714D01*
X183880952Y-124663333D01*
X183928571Y-124758571D01*
X183928571Y-125282380D01*
X184166666Y-125377619D02*
X184928571Y-125377619D01*
X185357142Y-124282380D02*
X185452380Y-124282380D01*
X185547619Y-124330000D01*
X185595238Y-124377619D01*
X185642857Y-124472857D01*
X185690476Y-124663333D01*
X185690476Y-124901428D01*
X185642857Y-125091904D01*
X185595238Y-125187142D01*
X185547619Y-125234761D01*
X185452380Y-125282380D01*
X185357142Y-125282380D01*
X185261904Y-125234761D01*
X185214285Y-125187142D01*
X185166666Y-125091904D01*
X185119047Y-124901428D01*
X185119047Y-124663333D01*
X185166666Y-124472857D01*
X185214285Y-124377619D01*
X185261904Y-124330000D01*
X185357142Y-124282380D01*
X186642857Y-125282380D02*
X186071428Y-125282380D01*
X186357142Y-125282380D02*
X186357142Y-124282380D01*
X186261904Y-124425238D01*
X186166666Y-124520476D01*
X186071428Y-124568095D01*
X186976190Y-125282380D02*
X187500000Y-124615714D01*
X186976190Y-124615714D02*
X187500000Y-125282380D01*
X188071428Y-124282380D02*
X188166666Y-124282380D01*
X188261904Y-124330000D01*
X188309523Y-124377619D01*
X188357142Y-124472857D01*
X188404761Y-124663333D01*
X188404761Y-124901428D01*
X188357142Y-125091904D01*
X188309523Y-125187142D01*
X188261904Y-125234761D01*
X188166666Y-125282380D01*
X188071428Y-125282380D01*
X187976190Y-125234761D01*
X187928571Y-125187142D01*
X187880952Y-125091904D01*
X187833333Y-124901428D01*
X187833333Y-124663333D01*
X187880952Y-124472857D01*
X187928571Y-124377619D01*
X187976190Y-124330000D01*
X188071428Y-124282380D01*
X189357142Y-125282380D02*
X188785714Y-125282380D01*
X189071428Y-125282380D02*
X189071428Y-124282380D01*
X188976190Y-124425238D01*
X188880952Y-124520476D01*
X188785714Y-124568095D01*
X184452380Y-122833333D02*
X185166666Y-122833333D01*
X185309523Y-122880952D01*
X185404761Y-122976190D01*
X185452380Y-123119047D01*
X185452380Y-123214285D01*
X185452380Y-121833333D02*
X185452380Y-122404761D01*
X185452380Y-122119047D02*
X184452380Y-122119047D01*
X184595238Y-122214285D01*
X184690476Y-122309523D01*
X184738095Y-122404761D01*
%TO.C,J2*%
X181261904Y-145187142D02*
X181214285Y-145234761D01*
X181071428Y-145282380D01*
X180976190Y-145282380D01*
X180833333Y-145234761D01*
X180738095Y-145139523D01*
X180690476Y-145044285D01*
X180642857Y-144853809D01*
X180642857Y-144710952D01*
X180690476Y-144520476D01*
X180738095Y-144425238D01*
X180833333Y-144330000D01*
X180976190Y-144282380D01*
X181071428Y-144282380D01*
X181214285Y-144330000D01*
X181261904Y-144377619D01*
X181833333Y-145282380D02*
X181738095Y-145234761D01*
X181690476Y-145187142D01*
X181642857Y-145091904D01*
X181642857Y-144806190D01*
X181690476Y-144710952D01*
X181738095Y-144663333D01*
X181833333Y-144615714D01*
X181976190Y-144615714D01*
X182071428Y-144663333D01*
X182119047Y-144710952D01*
X182166666Y-144806190D01*
X182166666Y-145091904D01*
X182119047Y-145187142D01*
X182071428Y-145234761D01*
X181976190Y-145282380D01*
X181833333Y-145282380D01*
X182595238Y-144615714D02*
X182595238Y-145282380D01*
X182595238Y-144710952D02*
X182642857Y-144663333D01*
X182738095Y-144615714D01*
X182880952Y-144615714D01*
X182976190Y-144663333D01*
X183023809Y-144758571D01*
X183023809Y-145282380D01*
X183500000Y-144615714D02*
X183500000Y-145282380D01*
X183500000Y-144710952D02*
X183547619Y-144663333D01*
X183642857Y-144615714D01*
X183785714Y-144615714D01*
X183880952Y-144663333D01*
X183928571Y-144758571D01*
X183928571Y-145282380D01*
X184166666Y-145377619D02*
X184928571Y-145377619D01*
X185357142Y-144282380D02*
X185452380Y-144282380D01*
X185547619Y-144330000D01*
X185595238Y-144377619D01*
X185642857Y-144472857D01*
X185690476Y-144663333D01*
X185690476Y-144901428D01*
X185642857Y-145091904D01*
X185595238Y-145187142D01*
X185547619Y-145234761D01*
X185452380Y-145282380D01*
X185357142Y-145282380D01*
X185261904Y-145234761D01*
X185214285Y-145187142D01*
X185166666Y-145091904D01*
X185119047Y-144901428D01*
X185119047Y-144663333D01*
X185166666Y-144472857D01*
X185214285Y-144377619D01*
X185261904Y-144330000D01*
X185357142Y-144282380D01*
X186642857Y-145282380D02*
X186071428Y-145282380D01*
X186357142Y-145282380D02*
X186357142Y-144282380D01*
X186261904Y-144425238D01*
X186166666Y-144520476D01*
X186071428Y-144568095D01*
X186976190Y-145282380D02*
X187500000Y-144615714D01*
X186976190Y-144615714D02*
X187500000Y-145282380D01*
X188071428Y-144282380D02*
X188166666Y-144282380D01*
X188261904Y-144330000D01*
X188309523Y-144377619D01*
X188357142Y-144472857D01*
X188404761Y-144663333D01*
X188404761Y-144901428D01*
X188357142Y-145091904D01*
X188309523Y-145187142D01*
X188261904Y-145234761D01*
X188166666Y-145282380D01*
X188071428Y-145282380D01*
X187976190Y-145234761D01*
X187928571Y-145187142D01*
X187880952Y-145091904D01*
X187833333Y-144901428D01*
X187833333Y-144663333D01*
X187880952Y-144472857D01*
X187928571Y-144377619D01*
X187976190Y-144330000D01*
X188071428Y-144282380D01*
X189357142Y-145282380D02*
X188785714Y-145282380D01*
X189071428Y-145282380D02*
X189071428Y-144282380D01*
X188976190Y-144425238D01*
X188880952Y-144520476D01*
X188785714Y-144568095D01*
X184452380Y-142833333D02*
X185166666Y-142833333D01*
X185309523Y-142880952D01*
X185404761Y-142976190D01*
X185452380Y-143119047D01*
X185452380Y-143214285D01*
X184547619Y-142404761D02*
X184500000Y-142357142D01*
X184452380Y-142261904D01*
X184452380Y-142023809D01*
X184500000Y-141928571D01*
X184547619Y-141880952D01*
X184642857Y-141833333D01*
X184738095Y-141833333D01*
X184880952Y-141880952D01*
X185452380Y-142452380D01*
X185452380Y-141833333D01*
%TO.C,J3*%
X181261904Y-137687142D02*
X181214285Y-137734761D01*
X181071428Y-137782380D01*
X180976190Y-137782380D01*
X180833333Y-137734761D01*
X180738095Y-137639523D01*
X180690476Y-137544285D01*
X180642857Y-137353809D01*
X180642857Y-137210952D01*
X180690476Y-137020476D01*
X180738095Y-136925238D01*
X180833333Y-136830000D01*
X180976190Y-136782380D01*
X181071428Y-136782380D01*
X181214285Y-136830000D01*
X181261904Y-136877619D01*
X181833333Y-137782380D02*
X181738095Y-137734761D01*
X181690476Y-137687142D01*
X181642857Y-137591904D01*
X181642857Y-137306190D01*
X181690476Y-137210952D01*
X181738095Y-137163333D01*
X181833333Y-137115714D01*
X181976190Y-137115714D01*
X182071428Y-137163333D01*
X182119047Y-137210952D01*
X182166666Y-137306190D01*
X182166666Y-137591904D01*
X182119047Y-137687142D01*
X182071428Y-137734761D01*
X181976190Y-137782380D01*
X181833333Y-137782380D01*
X182595238Y-137115714D02*
X182595238Y-137782380D01*
X182595238Y-137210952D02*
X182642857Y-137163333D01*
X182738095Y-137115714D01*
X182880952Y-137115714D01*
X182976190Y-137163333D01*
X183023809Y-137258571D01*
X183023809Y-137782380D01*
X183500000Y-137115714D02*
X183500000Y-137782380D01*
X183500000Y-137210952D02*
X183547619Y-137163333D01*
X183642857Y-137115714D01*
X183785714Y-137115714D01*
X183880952Y-137163333D01*
X183928571Y-137258571D01*
X183928571Y-137782380D01*
X184166666Y-137877619D02*
X184928571Y-137877619D01*
X185357142Y-136782380D02*
X185452380Y-136782380D01*
X185547619Y-136830000D01*
X185595238Y-136877619D01*
X185642857Y-136972857D01*
X185690476Y-137163333D01*
X185690476Y-137401428D01*
X185642857Y-137591904D01*
X185595238Y-137687142D01*
X185547619Y-137734761D01*
X185452380Y-137782380D01*
X185357142Y-137782380D01*
X185261904Y-137734761D01*
X185214285Y-137687142D01*
X185166666Y-137591904D01*
X185119047Y-137401428D01*
X185119047Y-137163333D01*
X185166666Y-136972857D01*
X185214285Y-136877619D01*
X185261904Y-136830000D01*
X185357142Y-136782380D01*
X186642857Y-137782380D02*
X186071428Y-137782380D01*
X186357142Y-137782380D02*
X186357142Y-136782380D01*
X186261904Y-136925238D01*
X186166666Y-137020476D01*
X186071428Y-137068095D01*
X186976190Y-137782380D02*
X187500000Y-137115714D01*
X186976190Y-137115714D02*
X187500000Y-137782380D01*
X188071428Y-136782380D02*
X188166666Y-136782380D01*
X188261904Y-136830000D01*
X188309523Y-136877619D01*
X188357142Y-136972857D01*
X188404761Y-137163333D01*
X188404761Y-137401428D01*
X188357142Y-137591904D01*
X188309523Y-137687142D01*
X188261904Y-137734761D01*
X188166666Y-137782380D01*
X188071428Y-137782380D01*
X187976190Y-137734761D01*
X187928571Y-137687142D01*
X187880952Y-137591904D01*
X187833333Y-137401428D01*
X187833333Y-137163333D01*
X187880952Y-136972857D01*
X187928571Y-136877619D01*
X187976190Y-136830000D01*
X188071428Y-136782380D01*
X189357142Y-137782380D02*
X188785714Y-137782380D01*
X189071428Y-137782380D02*
X189071428Y-136782380D01*
X188976190Y-136925238D01*
X188880952Y-137020476D01*
X188785714Y-137068095D01*
X184452380Y-135333333D02*
X185166666Y-135333333D01*
X185309523Y-135380952D01*
X185404761Y-135476190D01*
X185452380Y-135619047D01*
X185452380Y-135714285D01*
X184452380Y-134952380D02*
X184452380Y-134333333D01*
X184833333Y-134666666D01*
X184833333Y-134523809D01*
X184880952Y-134428571D01*
X184928571Y-134380952D01*
X185023809Y-134333333D01*
X185261904Y-134333333D01*
X185357142Y-134380952D01*
X185404761Y-134428571D01*
X185452380Y-134523809D01*
X185452380Y-134809523D01*
X185404761Y-134904761D01*
X185357142Y-134952380D01*
%TO.C,J5*%
X162457142Y-142488095D02*
X162504761Y-142535714D01*
X162552380Y-142678571D01*
X162552380Y-142773809D01*
X162504761Y-142916666D01*
X162409523Y-143011904D01*
X162314285Y-143059523D01*
X162123809Y-143107142D01*
X161980952Y-143107142D01*
X161790476Y-143059523D01*
X161695238Y-143011904D01*
X161600000Y-142916666D01*
X161552380Y-142773809D01*
X161552380Y-142678571D01*
X161600000Y-142535714D01*
X161647619Y-142488095D01*
X162552380Y-141916666D02*
X162504761Y-142011904D01*
X162457142Y-142059523D01*
X162361904Y-142107142D01*
X162076190Y-142107142D01*
X161980952Y-142059523D01*
X161933333Y-142011904D01*
X161885714Y-141916666D01*
X161885714Y-141773809D01*
X161933333Y-141678571D01*
X161980952Y-141630952D01*
X162076190Y-141583333D01*
X162361904Y-141583333D01*
X162457142Y-141630952D01*
X162504761Y-141678571D01*
X162552380Y-141773809D01*
X162552380Y-141916666D01*
X161885714Y-141154761D02*
X162552380Y-141154761D01*
X161980952Y-141154761D02*
X161933333Y-141107142D01*
X161885714Y-141011904D01*
X161885714Y-140869047D01*
X161933333Y-140773809D01*
X162028571Y-140726190D01*
X162552380Y-140726190D01*
X161885714Y-140250000D02*
X162552380Y-140250000D01*
X161980952Y-140250000D02*
X161933333Y-140202380D01*
X161885714Y-140107142D01*
X161885714Y-139964285D01*
X161933333Y-139869047D01*
X162028571Y-139821428D01*
X162552380Y-139821428D01*
X162647619Y-139583333D02*
X162647619Y-138821428D01*
X161552380Y-138392857D02*
X161552380Y-138297619D01*
X161600000Y-138202380D01*
X161647619Y-138154761D01*
X161742857Y-138107142D01*
X161933333Y-138059523D01*
X162171428Y-138059523D01*
X162361904Y-138107142D01*
X162457142Y-138154761D01*
X162504761Y-138202380D01*
X162552380Y-138297619D01*
X162552380Y-138392857D01*
X162504761Y-138488095D01*
X162457142Y-138535714D01*
X162361904Y-138583333D01*
X162171428Y-138630952D01*
X161933333Y-138630952D01*
X161742857Y-138583333D01*
X161647619Y-138535714D01*
X161600000Y-138488095D01*
X161552380Y-138392857D01*
X162552380Y-137107142D02*
X162552380Y-137678571D01*
X162552380Y-137392857D02*
X161552380Y-137392857D01*
X161695238Y-137488095D01*
X161790476Y-137583333D01*
X161838095Y-137678571D01*
X162552380Y-136773809D02*
X161885714Y-136250000D01*
X161885714Y-136773809D02*
X162552380Y-136250000D01*
X161552380Y-135678571D02*
X161552380Y-135583333D01*
X161600000Y-135488095D01*
X161647619Y-135440476D01*
X161742857Y-135392857D01*
X161933333Y-135345238D01*
X162171428Y-135345238D01*
X162361904Y-135392857D01*
X162457142Y-135440476D01*
X162504761Y-135488095D01*
X162552380Y-135583333D01*
X162552380Y-135678571D01*
X162504761Y-135773809D01*
X162457142Y-135821428D01*
X162361904Y-135869047D01*
X162171428Y-135916666D01*
X161933333Y-135916666D01*
X161742857Y-135869047D01*
X161647619Y-135821428D01*
X161600000Y-135773809D01*
X161552380Y-135678571D01*
X161647619Y-134964285D02*
X161600000Y-134916666D01*
X161552380Y-134821428D01*
X161552380Y-134583333D01*
X161600000Y-134488095D01*
X161647619Y-134440476D01*
X161742857Y-134392857D01*
X161838095Y-134392857D01*
X161980952Y-134440476D01*
X162552380Y-135011904D01*
X162552380Y-134392857D01*
X159652380Y-139083333D02*
X160366666Y-139083333D01*
X160509523Y-139130952D01*
X160604761Y-139226190D01*
X160652380Y-139369047D01*
X160652380Y-139464285D01*
X159652380Y-138130952D02*
X159652380Y-138607142D01*
X160128571Y-138654761D01*
X160080952Y-138607142D01*
X160033333Y-138511904D01*
X160033333Y-138273809D01*
X160080952Y-138178571D01*
X160128571Y-138130952D01*
X160223809Y-138083333D01*
X160461904Y-138083333D01*
X160557142Y-138130952D01*
X160604761Y-138178571D01*
X160652380Y-138273809D01*
X160652380Y-138511904D01*
X160604761Y-138607142D01*
X160557142Y-138654761D01*
%TO.C,U4*%
X175961428Y-69928571D02*
X176104285Y-69976190D01*
X176151904Y-70023809D01*
X176199523Y-70119047D01*
X176199523Y-70261904D01*
X176151904Y-70357142D01*
X176104285Y-70404761D01*
X176009047Y-70452380D01*
X175628095Y-70452380D01*
X175628095Y-69452380D01*
X175961428Y-69452380D01*
X176056666Y-69500000D01*
X176104285Y-69547619D01*
X176151904Y-69642857D01*
X176151904Y-69738095D01*
X176104285Y-69833333D01*
X176056666Y-69880952D01*
X175961428Y-69928571D01*
X175628095Y-69928571D01*
X177056666Y-70452380D02*
X177056666Y-69928571D01*
X177009047Y-69833333D01*
X176913809Y-69785714D01*
X176723333Y-69785714D01*
X176628095Y-69833333D01*
X177056666Y-70404761D02*
X176961428Y-70452380D01*
X176723333Y-70452380D01*
X176628095Y-70404761D01*
X176580476Y-70309523D01*
X176580476Y-70214285D01*
X176628095Y-70119047D01*
X176723333Y-70071428D01*
X176961428Y-70071428D01*
X177056666Y-70023809D01*
X177390000Y-69785714D02*
X177770952Y-69785714D01*
X177532857Y-69452380D02*
X177532857Y-70309523D01*
X177580476Y-70404761D01*
X177675714Y-70452380D01*
X177770952Y-70452380D01*
X177961428Y-69785714D02*
X178342380Y-69785714D01*
X178104285Y-69452380D02*
X178104285Y-70309523D01*
X178151904Y-70404761D01*
X178247142Y-70452380D01*
X178342380Y-70452380D01*
X178437619Y-70547619D02*
X179199523Y-70547619D01*
X179390000Y-70166666D02*
X179866190Y-70166666D01*
X179294761Y-70452380D02*
X179628095Y-69452380D01*
X179961428Y-70452380D01*
X180437619Y-70452380D02*
X180342380Y-70404761D01*
X180294761Y-70309523D01*
X180294761Y-69452380D01*
X180818571Y-70452380D02*
X180818571Y-69785714D01*
X180818571Y-69452380D02*
X180770952Y-69500000D01*
X180818571Y-69547619D01*
X180866190Y-69500000D01*
X180818571Y-69452380D01*
X180818571Y-69547619D01*
X181294761Y-70452380D02*
X181294761Y-69785714D01*
X181294761Y-69880952D02*
X181342380Y-69833333D01*
X181437619Y-69785714D01*
X181580476Y-69785714D01*
X181675714Y-69833333D01*
X181723333Y-69928571D01*
X181723333Y-70452380D01*
X181723333Y-69928571D02*
X181770952Y-69833333D01*
X181866190Y-69785714D01*
X182009047Y-69785714D01*
X182104285Y-69833333D01*
X182151904Y-69928571D01*
X182151904Y-70452380D01*
X169238095Y-69452380D02*
X169238095Y-70261904D01*
X169285714Y-70357142D01*
X169333333Y-70404761D01*
X169428571Y-70452380D01*
X169619047Y-70452380D01*
X169714285Y-70404761D01*
X169761904Y-70357142D01*
X169809523Y-70261904D01*
X169809523Y-69452380D01*
X170714285Y-69785714D02*
X170714285Y-70452380D01*
X170476190Y-69404761D02*
X170238095Y-70119047D01*
X170857142Y-70119047D01*
%TD*%
M02*
