%TF.GenerationSoftware,KiCad,Pcbnew,(5.1.6)-1*%
%TF.CreationDate,2021-02-27T16:35:54+01:00*%
%TF.ProjectId,07_LBAM_DFR,30375f4c-4241-44d5-9f44-46522e6b6963,rev?*%
%TF.SameCoordinates,Original*%
%TF.FileFunction,Soldermask,Bot*%
%TF.FilePolarity,Negative*%
%FSLAX46Y46*%
G04 Gerber Fmt 4.6, Leading zero omitted, Abs format (unit mm)*
G04 Created by KiCad (PCBNEW (5.1.6)-1) date 2021-02-27 16:35:54*
%MOMM*%
%LPD*%
G01*
G04 APERTURE LIST*
%TA.AperFunction,Profile*%
%ADD10C,0.150000*%
%TD*%
%ADD11C,1.630000*%
%ADD12R,1.630000X1.630000*%
%ADD13C,0.900000*%
%ADD14C,6.500000*%
%ADD15C,1.408000*%
%ADD16R,1.408000X1.408000*%
%ADD17O,1.800000X2.100000*%
%ADD18O,2.100000X1.800000*%
%ADD19R,1.800000X1.800000*%
G04 APERTURE END LIST*
D10*
X162747549Y-105000000D02*
G75*
G03*
X162747549Y-105000000I-12747549J0D01*
G01*
X180000000Y-65000000D02*
X195000000Y-65000000D01*
X157000000Y-65000000D02*
X180000000Y-65000000D01*
X195000000Y-65000000D02*
G75*
G02*
X200000000Y-70000000I0J-5000000D01*
G01*
X200000000Y-140000000D02*
G75*
G02*
X195000000Y-145000000I-5000000J0D01*
G01*
X105000000Y-145000000D02*
G75*
G02*
X100000000Y-140000000I0J5000000D01*
G01*
X100000000Y-70000000D02*
G75*
G02*
X105000000Y-65000000I5000000J0D01*
G01*
X100000000Y-140000000D02*
X100000000Y-70000000D01*
X195000000Y-145000000D02*
X105000000Y-145000000D01*
X200000000Y-70000000D02*
X200000000Y-140000000D01*
X105000000Y-65000000D02*
X157000000Y-65000000D01*
D11*
%TO.C,U2*%
X127700000Y-87950000D03*
X127700000Y-90490000D03*
X127700000Y-93030000D03*
X127700000Y-95570000D03*
X127700000Y-98110000D03*
X127700000Y-100650000D03*
X127700000Y-103190000D03*
X127700000Y-105730000D03*
X127700000Y-108270000D03*
X127700000Y-110810000D03*
X127700000Y-113350000D03*
X127700000Y-115890000D03*
X127700000Y-118430000D03*
X127700000Y-120970000D03*
X127700000Y-123510000D03*
X127700000Y-126050000D03*
X127700000Y-128590000D03*
X127700000Y-131130000D03*
X127700000Y-133670000D03*
X102300000Y-133670000D03*
X102300000Y-131130000D03*
X102300000Y-128590000D03*
X102300000Y-126050000D03*
X102300000Y-123510000D03*
X102300000Y-120970000D03*
X102300000Y-118430000D03*
X102300000Y-115890000D03*
X102300000Y-113350000D03*
X102300000Y-110810000D03*
X102300000Y-108270000D03*
X102300000Y-105730000D03*
X102300000Y-103190000D03*
X102300000Y-100650000D03*
X102300000Y-98110000D03*
X102300000Y-95570000D03*
X102300000Y-93030000D03*
X102300000Y-90490000D03*
D12*
X102300000Y-87950000D03*
%TD*%
D13*
%TO.C,H3*%
X196697056Y-138302944D03*
X195000000Y-137600000D03*
X193302944Y-138302944D03*
X192600000Y-140000000D03*
X193302944Y-141697056D03*
X195000000Y-142400000D03*
X196697056Y-141697056D03*
X197400000Y-140000000D03*
D14*
X195000000Y-140000000D03*
%TD*%
D13*
%TO.C,H1*%
X106697056Y-68302944D03*
X105000000Y-67600000D03*
X103302944Y-68302944D03*
X102600000Y-70000000D03*
X103302944Y-71697056D03*
X105000000Y-72400000D03*
X106697056Y-71697056D03*
X107400000Y-70000000D03*
D14*
X105000000Y-70000000D03*
%TD*%
D15*
%TO.C,U1*%
X181517000Y-141390000D03*
X163483000Y-141390000D03*
X181517000Y-123610000D03*
D16*
X163483000Y-123610000D03*
D15*
X181517000Y-138850000D03*
X163483000Y-138850000D03*
X181517000Y-126150000D03*
X163483000Y-126150000D03*
X181517000Y-136310000D03*
X181517000Y-128690000D03*
X163483000Y-128690000D03*
X163483000Y-136310000D03*
X181517000Y-133770000D03*
X181517000Y-131230000D03*
X163483000Y-133770000D03*
X163483000Y-131230000D03*
%TD*%
D17*
%TO.C,J18*%
X147600000Y-130200000D03*
G36*
G01*
X144200000Y-130985294D02*
X144200000Y-129414706D01*
G75*
G02*
X144464706Y-129150000I264706J0D01*
G01*
X145735294Y-129150000D01*
G75*
G02*
X146000000Y-129414706I0J-264706D01*
G01*
X146000000Y-130985294D01*
G75*
G02*
X145735294Y-131250000I-264706J0D01*
G01*
X144464706Y-131250000D01*
G75*
G02*
X144200000Y-130985294I0J264706D01*
G01*
G37*
%TD*%
%TO.C,J26*%
X147600000Y-138100000D03*
G36*
G01*
X144200000Y-138885294D02*
X144200000Y-137314706D01*
G75*
G02*
X144464706Y-137050000I264706J0D01*
G01*
X145735294Y-137050000D01*
G75*
G02*
X146000000Y-137314706I0J-264706D01*
G01*
X146000000Y-138885294D01*
G75*
G02*
X145735294Y-139150000I-264706J0D01*
G01*
X144464706Y-139150000D01*
G75*
G02*
X144200000Y-138885294I0J264706D01*
G01*
G37*
%TD*%
D18*
%TO.C,J27*%
X155500000Y-73100000D03*
G36*
G01*
X156285294Y-76500000D02*
X154714706Y-76500000D01*
G75*
G02*
X154450000Y-76235294I0J264706D01*
G01*
X154450000Y-74964706D01*
G75*
G02*
X154714706Y-74700000I264706J0D01*
G01*
X156285294Y-74700000D01*
G75*
G02*
X156550000Y-74964706I0J-264706D01*
G01*
X156550000Y-76235294D01*
G75*
G02*
X156285294Y-76500000I-264706J0D01*
G01*
G37*
%TD*%
D17*
%TO.C,J9*%
X144500000Y-75900000D03*
G36*
G01*
X147900000Y-75114706D02*
X147900000Y-76685294D01*
G75*
G02*
X147635294Y-76950000I-264706J0D01*
G01*
X146364706Y-76950000D01*
G75*
G02*
X146100000Y-76685294I0J264706D01*
G01*
X146100000Y-75114706D01*
G75*
G02*
X146364706Y-74850000I264706J0D01*
G01*
X147635294Y-74850000D01*
G75*
G02*
X147900000Y-75114706I0J-264706D01*
G01*
G37*
%TD*%
D18*
%TO.C,J4*%
X132300000Y-73200000D03*
G36*
G01*
X133085294Y-76600000D02*
X131514706Y-76600000D01*
G75*
G02*
X131250000Y-76335294I0J264706D01*
G01*
X131250000Y-75064706D01*
G75*
G02*
X131514706Y-74800000I264706J0D01*
G01*
X133085294Y-74800000D01*
G75*
G02*
X133350000Y-75064706I0J-264706D01*
G01*
X133350000Y-76335294D01*
G75*
G02*
X133085294Y-76600000I-264706J0D01*
G01*
G37*
%TD*%
D19*
%TO.C,J1*%
X185000000Y-122500000D03*
%TD*%
%TO.C,J2*%
X185000000Y-142500000D03*
%TD*%
%TO.C,J3*%
X185000000Y-135000000D03*
%TD*%
%TO.C,J5*%
G36*
G01*
X158285294Y-140900000D02*
X156714706Y-140900000D01*
G75*
G02*
X156450000Y-140635294I0J264706D01*
G01*
X156450000Y-139364706D01*
G75*
G02*
X156714706Y-139100000I264706J0D01*
G01*
X158285294Y-139100000D01*
G75*
G02*
X158550000Y-139364706I0J-264706D01*
G01*
X158550000Y-140635294D01*
G75*
G02*
X158285294Y-140900000I-264706J0D01*
G01*
G37*
D18*
X157500000Y-137500000D03*
%TD*%
D19*
%TO.C,U4*%
X170000000Y-70000000D03*
X170000000Y-72540000D03*
X170000000Y-75080000D03*
X170000000Y-77620000D03*
%TD*%
M02*
