%TF.GenerationSoftware,KiCad,Pcbnew,(5.1.6)-1*%
%TF.CreationDate,2021-02-27T16:35:54+01:00*%
%TF.ProjectId,07_LBAM_DFR,30375f4c-4241-44d5-9f44-46522e6b6963,rev?*%
%TF.SameCoordinates,Original*%
%TF.FileFunction,Paste,Top*%
%TF.FilePolarity,Positive*%
%FSLAX46Y46*%
G04 Gerber Fmt 4.6, Leading zero omitted, Abs format (unit mm)*
G04 Created by KiCad (PCBNEW (5.1.6)-1) date 2021-02-27 16:35:54*
%MOMM*%
%LPD*%
G01*
G04 APERTURE LIST*
%TA.AperFunction,Profile*%
%ADD10C,0.150000*%
%TD*%
%ADD11R,0.800000X0.900000*%
%ADD12R,3.500000X1.700000*%
G04 APERTURE END LIST*
D10*
X162747549Y-105000000D02*
G75*
G03*
X162747549Y-105000000I-12747549J0D01*
G01*
X180000000Y-65000000D02*
X195000000Y-65000000D01*
X157000000Y-65000000D02*
X180000000Y-65000000D01*
X195000000Y-65000000D02*
G75*
G02*
X200000000Y-70000000I0J-5000000D01*
G01*
X200000000Y-140000000D02*
G75*
G02*
X195000000Y-145000000I-5000000J0D01*
G01*
X105000000Y-145000000D02*
G75*
G02*
X100000000Y-140000000I0J5000000D01*
G01*
X100000000Y-70000000D02*
G75*
G02*
X105000000Y-65000000I5000000J0D01*
G01*
X100000000Y-140000000D02*
X100000000Y-70000000D01*
X195000000Y-145000000D02*
X105000000Y-145000000D01*
X200000000Y-70000000D02*
X200000000Y-140000000D01*
X105000000Y-65000000D02*
X157000000Y-65000000D01*
D11*
%TO.C,Q1*%
X136100000Y-135200000D03*
X135150000Y-133200000D03*
X137050000Y-133200000D03*
%TD*%
%TO.C,R7*%
G36*
G01*
X101962500Y-82325000D02*
X102437500Y-82325000D01*
G75*
G02*
X102675000Y-82562500I0J-237500D01*
G01*
X102675000Y-83137500D01*
G75*
G02*
X102437500Y-83375000I-237500J0D01*
G01*
X101962500Y-83375000D01*
G75*
G02*
X101725000Y-83137500I0J237500D01*
G01*
X101725000Y-82562500D01*
G75*
G02*
X101962500Y-82325000I237500J0D01*
G01*
G37*
G36*
G01*
X101962500Y-80575000D02*
X102437500Y-80575000D01*
G75*
G02*
X102675000Y-80812500I0J-237500D01*
G01*
X102675000Y-81387500D01*
G75*
G02*
X102437500Y-81625000I-237500J0D01*
G01*
X101962500Y-81625000D01*
G75*
G02*
X101725000Y-81387500I0J237500D01*
G01*
X101725000Y-80812500D01*
G75*
G02*
X101962500Y-80575000I237500J0D01*
G01*
G37*
%TD*%
%TO.C,R12*%
G36*
G01*
X130437500Y-107850000D02*
X129962500Y-107850000D01*
G75*
G02*
X129725000Y-107612500I0J237500D01*
G01*
X129725000Y-107037500D01*
G75*
G02*
X129962500Y-106800000I237500J0D01*
G01*
X130437500Y-106800000D01*
G75*
G02*
X130675000Y-107037500I0J-237500D01*
G01*
X130675000Y-107612500D01*
G75*
G02*
X130437500Y-107850000I-237500J0D01*
G01*
G37*
G36*
G01*
X130437500Y-109600000D02*
X129962500Y-109600000D01*
G75*
G02*
X129725000Y-109362500I0J237500D01*
G01*
X129725000Y-108787500D01*
G75*
G02*
X129962500Y-108550000I237500J0D01*
G01*
X130437500Y-108550000D01*
G75*
G02*
X130675000Y-108787500I0J-237500D01*
G01*
X130675000Y-109362500D01*
G75*
G02*
X130437500Y-109600000I-237500J0D01*
G01*
G37*
%TD*%
%TO.C,R13*%
G36*
G01*
X132337500Y-129450000D02*
X131862500Y-129450000D01*
G75*
G02*
X131625000Y-129212500I0J237500D01*
G01*
X131625000Y-128637500D01*
G75*
G02*
X131862500Y-128400000I237500J0D01*
G01*
X132337500Y-128400000D01*
G75*
G02*
X132575000Y-128637500I0J-237500D01*
G01*
X132575000Y-129212500D01*
G75*
G02*
X132337500Y-129450000I-237500J0D01*
G01*
G37*
G36*
G01*
X132337500Y-131200000D02*
X131862500Y-131200000D01*
G75*
G02*
X131625000Y-130962500I0J237500D01*
G01*
X131625000Y-130387500D01*
G75*
G02*
X131862500Y-130150000I237500J0D01*
G01*
X132337500Y-130150000D01*
G75*
G02*
X132575000Y-130387500I0J-237500D01*
G01*
X132575000Y-130962500D01*
G75*
G02*
X132337500Y-131200000I-237500J0D01*
G01*
G37*
%TD*%
%TO.C,R16*%
G36*
G01*
X135862500Y-138175000D02*
X136337500Y-138175000D01*
G75*
G02*
X136575000Y-138412500I0J-237500D01*
G01*
X136575000Y-138987500D01*
G75*
G02*
X136337500Y-139225000I-237500J0D01*
G01*
X135862500Y-139225000D01*
G75*
G02*
X135625000Y-138987500I0J237500D01*
G01*
X135625000Y-138412500D01*
G75*
G02*
X135862500Y-138175000I237500J0D01*
G01*
G37*
G36*
G01*
X135862500Y-136425000D02*
X136337500Y-136425000D01*
G75*
G02*
X136575000Y-136662500I0J-237500D01*
G01*
X136575000Y-137237500D01*
G75*
G02*
X136337500Y-137475000I-237500J0D01*
G01*
X135862500Y-137475000D01*
G75*
G02*
X135625000Y-137237500I0J237500D01*
G01*
X135625000Y-136662500D01*
G75*
G02*
X135862500Y-136425000I237500J0D01*
G01*
G37*
%TD*%
%TO.C,R17*%
G36*
G01*
X136862500Y-131050000D02*
X137337500Y-131050000D01*
G75*
G02*
X137575000Y-131287500I0J-237500D01*
G01*
X137575000Y-131862500D01*
G75*
G02*
X137337500Y-132100000I-237500J0D01*
G01*
X136862500Y-132100000D01*
G75*
G02*
X136625000Y-131862500I0J237500D01*
G01*
X136625000Y-131287500D01*
G75*
G02*
X136862500Y-131050000I237500J0D01*
G01*
G37*
G36*
G01*
X136862500Y-129300000D02*
X137337500Y-129300000D01*
G75*
G02*
X137575000Y-129537500I0J-237500D01*
G01*
X137575000Y-130112500D01*
G75*
G02*
X137337500Y-130350000I-237500J0D01*
G01*
X136862500Y-130350000D01*
G75*
G02*
X136625000Y-130112500I0J237500D01*
G01*
X136625000Y-129537500D01*
G75*
G02*
X136862500Y-129300000I237500J0D01*
G01*
G37*
%TD*%
%TO.C,R18*%
G36*
G01*
X135337500Y-130350000D02*
X134862500Y-130350000D01*
G75*
G02*
X134625000Y-130112500I0J237500D01*
G01*
X134625000Y-129537500D01*
G75*
G02*
X134862500Y-129300000I237500J0D01*
G01*
X135337500Y-129300000D01*
G75*
G02*
X135575000Y-129537500I0J-237500D01*
G01*
X135575000Y-130112500D01*
G75*
G02*
X135337500Y-130350000I-237500J0D01*
G01*
G37*
G36*
G01*
X135337500Y-132100000D02*
X134862500Y-132100000D01*
G75*
G02*
X134625000Y-131862500I0J237500D01*
G01*
X134625000Y-131287500D01*
G75*
G02*
X134862500Y-131050000I237500J0D01*
G01*
X135337500Y-131050000D01*
G75*
G02*
X135575000Y-131287500I0J-237500D01*
G01*
X135575000Y-131862500D01*
G75*
G02*
X135337500Y-132100000I-237500J0D01*
G01*
G37*
%TD*%
%TO.C,R34*%
G36*
G01*
X158950000Y-125962500D02*
X158950000Y-126437500D01*
G75*
G02*
X158712500Y-126675000I-237500J0D01*
G01*
X158137500Y-126675000D01*
G75*
G02*
X157900000Y-126437500I0J237500D01*
G01*
X157900000Y-125962500D01*
G75*
G02*
X158137500Y-125725000I237500J0D01*
G01*
X158712500Y-125725000D01*
G75*
G02*
X158950000Y-125962500I0J-237500D01*
G01*
G37*
G36*
G01*
X160700000Y-125962500D02*
X160700000Y-126437500D01*
G75*
G02*
X160462500Y-126675000I-237500J0D01*
G01*
X159887500Y-126675000D01*
G75*
G02*
X159650000Y-126437500I0J237500D01*
G01*
X159650000Y-125962500D01*
G75*
G02*
X159887500Y-125725000I237500J0D01*
G01*
X160462500Y-125725000D01*
G75*
G02*
X160700000Y-125962500I0J-237500D01*
G01*
G37*
%TD*%
%TO.C,R36*%
G36*
G01*
X158950000Y-128262500D02*
X158950000Y-128737500D01*
G75*
G02*
X158712500Y-128975000I-237500J0D01*
G01*
X158137500Y-128975000D01*
G75*
G02*
X157900000Y-128737500I0J237500D01*
G01*
X157900000Y-128262500D01*
G75*
G02*
X158137500Y-128025000I237500J0D01*
G01*
X158712500Y-128025000D01*
G75*
G02*
X158950000Y-128262500I0J-237500D01*
G01*
G37*
G36*
G01*
X160700000Y-128262500D02*
X160700000Y-128737500D01*
G75*
G02*
X160462500Y-128975000I-237500J0D01*
G01*
X159887500Y-128975000D01*
G75*
G02*
X159650000Y-128737500I0J237500D01*
G01*
X159650000Y-128262500D01*
G75*
G02*
X159887500Y-128025000I237500J0D01*
G01*
X160462500Y-128025000D01*
G75*
G02*
X160700000Y-128262500I0J-237500D01*
G01*
G37*
%TD*%
D12*
%TO.C,U4*%
X167460000Y-70000000D03*
X167460000Y-72540000D03*
X167460000Y-75080000D03*
X167460000Y-77620000D03*
%TD*%
M02*
