%TF.GenerationSoftware,KiCad,Pcbnew,(5.1.6)-1*%
%TF.CreationDate,2021-02-27T16:35:54+01:00*%
%TF.ProjectId,07_LBAM_DFR,30375f4c-4241-44d5-9f44-46522e6b6963,rev?*%
%TF.SameCoordinates,Original*%
%TF.FileFunction,Legend,Bot*%
%TF.FilePolarity,Positive*%
%FSLAX46Y46*%
G04 Gerber Fmt 4.6, Leading zero omitted, Abs format (unit mm)*
G04 Created by KiCad (PCBNEW (5.1.6)-1) date 2021-02-27 16:35:54*
%MOMM*%
%LPD*%
G01*
G04 APERTURE LIST*
%TA.AperFunction,Profile*%
%ADD10C,0.150000*%
%TD*%
%ADD11C,0.150000*%
G04 APERTURE END LIST*
D10*
X162747549Y-105000000D02*
G75*
G03*
X162747549Y-105000000I-12747549J0D01*
G01*
X180000000Y-65000000D02*
X195000000Y-65000000D01*
X157000000Y-65000000D02*
X180000000Y-65000000D01*
X195000000Y-65000000D02*
G75*
G02*
X200000000Y-70000000I0J-5000000D01*
G01*
X200000000Y-140000000D02*
G75*
G02*
X195000000Y-145000000I-5000000J0D01*
G01*
X105000000Y-145000000D02*
G75*
G02*
X100000000Y-140000000I0J5000000D01*
G01*
X100000000Y-70000000D02*
G75*
G02*
X105000000Y-65000000I5000000J0D01*
G01*
X100000000Y-140000000D02*
X100000000Y-70000000D01*
X195000000Y-145000000D02*
X105000000Y-145000000D01*
X200000000Y-70000000D02*
X200000000Y-140000000D01*
X105000000Y-65000000D02*
X157000000Y-65000000D01*
%TO.C,U4*%
D11*
X171905095Y-72167000D02*
X171809857Y-72119380D01*
X171667000Y-72119380D01*
X171524142Y-72167000D01*
X171428904Y-72262238D01*
X171381285Y-72357476D01*
X171333666Y-72547952D01*
X171333666Y-72690809D01*
X171381285Y-72881285D01*
X171428904Y-72976523D01*
X171524142Y-73071761D01*
X171667000Y-73119380D01*
X171762238Y-73119380D01*
X171905095Y-73071761D01*
X171952714Y-73024142D01*
X171952714Y-72690809D01*
X171762238Y-72690809D01*
X172381285Y-73119380D02*
X172381285Y-72119380D01*
X172952714Y-73119380D01*
X172952714Y-72119380D01*
X173428904Y-73119380D02*
X173428904Y-72119380D01*
X173667000Y-72119380D01*
X173809857Y-72167000D01*
X173905095Y-72262238D01*
X173952714Y-72357476D01*
X174000333Y-72547952D01*
X174000333Y-72690809D01*
X173952714Y-72881285D01*
X173905095Y-72976523D01*
X173809857Y-73071761D01*
X173667000Y-73119380D01*
X173428904Y-73119380D01*
X171214666Y-69579380D02*
X171548000Y-70579380D01*
X171881333Y-69579380D01*
X171976571Y-70674619D02*
X172738476Y-70674619D01*
X173357523Y-70531761D02*
X173262285Y-70579380D01*
X173071809Y-70579380D01*
X172976571Y-70531761D01*
X172928952Y-70436523D01*
X172928952Y-70055571D01*
X172976571Y-69960333D01*
X173071809Y-69912714D01*
X173262285Y-69912714D01*
X173357523Y-69960333D01*
X173405142Y-70055571D01*
X173405142Y-70150809D01*
X172928952Y-70246047D01*
X173738476Y-70579380D02*
X174262285Y-69912714D01*
X173738476Y-69912714D02*
X174262285Y-70579380D01*
X174500380Y-69912714D02*
X174881333Y-69912714D01*
X174643238Y-69579380D02*
X174643238Y-70436523D01*
X174690857Y-70531761D01*
X174786095Y-70579380D01*
X174881333Y-70579380D01*
X171690857Y-75008571D02*
X171833714Y-75056190D01*
X171881333Y-75103809D01*
X171928952Y-75199047D01*
X171928952Y-75341904D01*
X171881333Y-75437142D01*
X171833714Y-75484761D01*
X171738476Y-75532380D01*
X171357523Y-75532380D01*
X171357523Y-74532380D01*
X171690857Y-74532380D01*
X171786095Y-74580000D01*
X171833714Y-74627619D01*
X171881333Y-74722857D01*
X171881333Y-74818095D01*
X171833714Y-74913333D01*
X171786095Y-74960952D01*
X171690857Y-75008571D01*
X171357523Y-75008571D01*
X172309904Y-75246666D02*
X172786095Y-75246666D01*
X172214666Y-75532380D02*
X172548000Y-74532380D01*
X172881333Y-75532380D01*
X173071809Y-74532380D02*
X173643238Y-74532380D01*
X173357523Y-75532380D02*
X173357523Y-74532380D01*
X173976571Y-75151428D02*
X174738476Y-75151428D01*
X174357523Y-75532380D02*
X174357523Y-74770476D01*
X171841523Y-77072380D02*
X171365333Y-77072380D01*
X171317714Y-77548571D01*
X171365333Y-77500952D01*
X171460571Y-77453333D01*
X171698666Y-77453333D01*
X171793904Y-77500952D01*
X171841523Y-77548571D01*
X171889142Y-77643809D01*
X171889142Y-77881904D01*
X171841523Y-77977142D01*
X171793904Y-78024761D01*
X171698666Y-78072380D01*
X171460571Y-78072380D01*
X171365333Y-78024761D01*
X171317714Y-77977142D01*
X172174857Y-77072380D02*
X172508190Y-78072380D01*
X172841523Y-77072380D01*
%TD*%
M02*
