%TF.GenerationSoftware,KiCad,Pcbnew,(5.1.6)-1*%
%TF.CreationDate,2021-02-27T16:35:54+01:00*%
%TF.ProjectId,07_LBAM_DFR,30375f4c-4241-44d5-9f44-46522e6b6963,rev?*%
%TF.SameCoordinates,Original*%
%TF.FileFunction,Copper,L2,Bot*%
%TF.FilePolarity,Positive*%
%FSLAX46Y46*%
G04 Gerber Fmt 4.6, Leading zero omitted, Abs format (unit mm)*
G04 Created by KiCad (PCBNEW (5.1.6)-1) date 2021-02-27 16:35:54*
%MOMM*%
%LPD*%
G01*
G04 APERTURE LIST*
%TA.AperFunction,Profile*%
%ADD10C,0.150000*%
%TD*%
%TA.AperFunction,ComponentPad*%
%ADD11C,1.530000*%
%TD*%
%TA.AperFunction,ComponentPad*%
%ADD12R,1.530000X1.530000*%
%TD*%
%TA.AperFunction,ComponentPad*%
%ADD13C,0.800000*%
%TD*%
%TA.AperFunction,ComponentPad*%
%ADD14C,6.400000*%
%TD*%
%TA.AperFunction,ComponentPad*%
%ADD15C,1.308000*%
%TD*%
%TA.AperFunction,ComponentPad*%
%ADD16R,1.308000X1.308000*%
%TD*%
%TA.AperFunction,ComponentPad*%
%ADD17O,1.700000X2.000000*%
%TD*%
%TA.AperFunction,ComponentPad*%
%ADD18O,2.000000X1.700000*%
%TD*%
%TA.AperFunction,ComponentPad*%
%ADD19R,1.700000X1.700000*%
%TD*%
%TA.AperFunction,ViaPad*%
%ADD20C,1.000000*%
%TD*%
%TA.AperFunction,Conductor*%
%ADD21C,0.300000*%
%TD*%
%TA.AperFunction,Conductor*%
%ADD22C,1.000000*%
%TD*%
%TA.AperFunction,Conductor*%
%ADD23C,0.500000*%
%TD*%
%TA.AperFunction,Conductor*%
%ADD24C,0.254000*%
%TD*%
G04 APERTURE END LIST*
D10*
X162747549Y-105000000D02*
G75*
G03*
X162747549Y-105000000I-12747549J0D01*
G01*
X180000000Y-65000000D02*
X195000000Y-65000000D01*
X157000000Y-65000000D02*
X180000000Y-65000000D01*
X195000000Y-65000000D02*
G75*
G02*
X200000000Y-70000000I0J-5000000D01*
G01*
X200000000Y-140000000D02*
G75*
G02*
X195000000Y-145000000I-5000000J0D01*
G01*
X105000000Y-145000000D02*
G75*
G02*
X100000000Y-140000000I0J5000000D01*
G01*
X100000000Y-70000000D02*
G75*
G02*
X105000000Y-65000000I5000000J0D01*
G01*
X100000000Y-140000000D02*
X100000000Y-70000000D01*
X195000000Y-145000000D02*
X105000000Y-145000000D01*
X200000000Y-70000000D02*
X200000000Y-140000000D01*
X105000000Y-65000000D02*
X157000000Y-65000000D01*
D11*
%TO.P,U2,38*%
%TO.N,GND*%
X127700000Y-87950000D03*
%TO.P,U2,37*%
%TO.N,Net-(U2-Pad37)*%
X127700000Y-90490000D03*
%TO.P,U2,36*%
%TO.N,Net-(U2-Pad36)*%
X127700000Y-93030000D03*
%TO.P,U2,35*%
%TO.N,Net-(U2-Pad35)*%
X127700000Y-95570000D03*
%TO.P,U2,34*%
%TO.N,Net-(U2-Pad34)*%
X127700000Y-98110000D03*
%TO.P,U2,33*%
%TO.N,Net-(U2-Pad33)*%
X127700000Y-100650000D03*
%TO.P,U2,32*%
%TO.N,Net-(U2-Pad32)*%
X127700000Y-103190000D03*
%TO.P,U2,31*%
%TO.N,Net-(U2-Pad31)*%
X127700000Y-105730000D03*
%TO.P,U2,30*%
%TO.N,Net-(U2-Pad30)*%
X127700000Y-108270000D03*
%TO.P,U2,29*%
%TO.N,bouton1*%
X127700000Y-110810000D03*
%TO.P,U2,28*%
%TO.N,Net-(R34-Pad2)*%
X127700000Y-113350000D03*
%TO.P,U2,27*%
%TO.N,Net-(R36-Pad2)*%
X127700000Y-115890000D03*
%TO.P,U2,26*%
%TO.N,LED_out*%
X127700000Y-118430000D03*
%TO.P,U2,25*%
%TO.N,Net-(R13-Pad2)*%
X127700000Y-120970000D03*
%TO.P,U2,24*%
%TO.N,Net-(U2-Pad24)*%
X127700000Y-123510000D03*
%TO.P,U2,23*%
%TO.N,Net-(U2-Pad23)*%
X127700000Y-126050000D03*
%TO.P,U2,22*%
%TO.N,Net-(U2-Pad22)*%
X127700000Y-128590000D03*
%TO.P,U2,21*%
%TO.N,Net-(U2-Pad21)*%
X127700000Y-131130000D03*
%TO.P,U2,20*%
%TO.N,Net-(U2-Pad20)*%
X127700000Y-133670000D03*
%TO.P,U2,19*%
%TO.N,5V*%
X102300000Y-133670000D03*
%TO.P,U2,18*%
%TO.N,Net-(U2-Pad18)*%
X102300000Y-131130000D03*
%TO.P,U2,17*%
%TO.N,Net-(U2-Pad17)*%
X102300000Y-128590000D03*
%TO.P,U2,16*%
%TO.N,Net-(U2-Pad16)*%
X102300000Y-126050000D03*
%TO.P,U2,15*%
%TO.N,Net-(U2-Pad15)*%
X102300000Y-123510000D03*
%TO.P,U2,14*%
%TO.N,GND*%
X102300000Y-120970000D03*
%TO.P,U2,13*%
%TO.N,Net-(U2-Pad13)*%
X102300000Y-118430000D03*
%TO.P,U2,12*%
%TO.N,Net-(U2-Pad12)*%
X102300000Y-115890000D03*
%TO.P,U2,11*%
%TO.N,Net-(U2-Pad11)*%
X102300000Y-113350000D03*
%TO.P,U2,10*%
%TO.N,Net-(U2-Pad10)*%
X102300000Y-110810000D03*
%TO.P,U2,9*%
%TO.N,Net-(U2-Pad9)*%
X102300000Y-108270000D03*
%TO.P,U2,8*%
%TO.N,Net-(U2-Pad8)*%
X102300000Y-105730000D03*
%TO.P,U2,7*%
%TO.N,Net-(U2-Pad7)*%
X102300000Y-103190000D03*
%TO.P,U2,6*%
%TO.N,Net-(U2-Pad6)*%
X102300000Y-100650000D03*
%TO.P,U2,5*%
%TO.N,Net-(U2-Pad5)*%
X102300000Y-98110000D03*
%TO.P,U2,4*%
%TO.N,Net-(U2-Pad4)*%
X102300000Y-95570000D03*
%TO.P,U2,3*%
%TO.N,Net-(U2-Pad3)*%
X102300000Y-93030000D03*
%TO.P,U2,2*%
%TO.N,Net-(R7-Pad1)*%
X102300000Y-90490000D03*
D12*
%TO.P,U2,1*%
%TO.N,3V3*%
X102300000Y-87950000D03*
%TD*%
D13*
%TO.P,H3,1*%
%TO.N,GND*%
X196697056Y-138302944D03*
X195000000Y-137600000D03*
X193302944Y-138302944D03*
X192600000Y-140000000D03*
X193302944Y-141697056D03*
X195000000Y-142400000D03*
X196697056Y-141697056D03*
X197400000Y-140000000D03*
D14*
X195000000Y-140000000D03*
%TD*%
D13*
%TO.P,H1,1*%
%TO.N,GND*%
X106697056Y-68302944D03*
X105000000Y-67600000D03*
X103302944Y-68302944D03*
X102600000Y-70000000D03*
X103302944Y-71697056D03*
X105000000Y-72400000D03*
X106697056Y-71697056D03*
X107400000Y-70000000D03*
D14*
X105000000Y-70000000D03*
%TD*%
D15*
%TO.P,U1,9*%
%TO.N,Net-(J2-Pad1)*%
X181517000Y-141390000D03*
%TO.P,U1,8*%
%TO.N,Net-(J5-Pad1)*%
X163483000Y-141390000D03*
%TO.P,U1,16*%
%TO.N,Net-(J1-Pad1)*%
X181517000Y-123610000D03*
D16*
%TO.P,U1,1*%
%TO.N,3V3*%
X163483000Y-123610000D03*
D15*
%TO.P,U1,10*%
%TO.N,GND*%
X181517000Y-138850000D03*
%TO.P,U1,7*%
X163483000Y-138850000D03*
%TO.P,U1,15*%
%TO.N,Net-(U1-Pad15)*%
X181517000Y-126150000D03*
%TO.P,U1,2*%
%TO.N,ESP2DFR*%
X163483000Y-126150000D03*
%TO.P,U1,11*%
%TO.N,Net-(J3-Pad1)*%
X181517000Y-136310000D03*
%TO.P,U1,14*%
%TO.N,Net-(U1-Pad14)*%
X181517000Y-128690000D03*
%TO.P,U1,3*%
%TO.N,DFR2ESP*%
X163483000Y-128690000D03*
%TO.P,U1,6*%
%TO.N,Net-(J5-Pad2)*%
X163483000Y-136310000D03*
%TO.P,U1,12*%
%TO.N,Net-(U1-Pad12)*%
X181517000Y-133770000D03*
%TO.P,U1,13*%
%TO.N,Net-(U1-Pad13)*%
X181517000Y-131230000D03*
%TO.P,U1,5*%
%TO.N,Net-(U1-Pad5)*%
X163483000Y-133770000D03*
%TO.P,U1,4*%
%TO.N,Net-(U1-Pad4)*%
X163483000Y-131230000D03*
%TD*%
D17*
%TO.P,J18,2*%
%TO.N,bouton1*%
X147600000Y-130200000D03*
%TO.P,J18,1*%
%TO.N,GND*%
%TA.AperFunction,ComponentPad*%
G36*
G01*
X144250000Y-130950000D02*
X144250000Y-129450000D01*
G75*
G02*
X144500000Y-129200000I250000J0D01*
G01*
X145700000Y-129200000D01*
G75*
G02*
X145950000Y-129450000I0J-250000D01*
G01*
X145950000Y-130950000D01*
G75*
G02*
X145700000Y-131200000I-250000J0D01*
G01*
X144500000Y-131200000D01*
G75*
G02*
X144250000Y-130950000I0J250000D01*
G01*
G37*
%TD.AperFunction*%
%TD*%
%TO.P,J26,2*%
%TO.N,5V*%
X147600000Y-138100000D03*
%TO.P,J26,1*%
%TO.N,Net-(J26-Pad1)*%
%TA.AperFunction,ComponentPad*%
G36*
G01*
X144250000Y-138850000D02*
X144250000Y-137350000D01*
G75*
G02*
X144500000Y-137100000I250000J0D01*
G01*
X145700000Y-137100000D01*
G75*
G02*
X145950000Y-137350000I0J-250000D01*
G01*
X145950000Y-138850000D01*
G75*
G02*
X145700000Y-139100000I-250000J0D01*
G01*
X144500000Y-139100000D01*
G75*
G02*
X144250000Y-138850000I0J250000D01*
G01*
G37*
%TD.AperFunction*%
%TD*%
D18*
%TO.P,J27,2*%
%TO.N,/Batt_alim/V_ext*%
X155500000Y-73100000D03*
%TO.P,J27,1*%
%TO.N,GND*%
%TA.AperFunction,ComponentPad*%
G36*
G01*
X156250000Y-76450000D02*
X154750000Y-76450000D01*
G75*
G02*
X154500000Y-76200000I0J250000D01*
G01*
X154500000Y-75000000D01*
G75*
G02*
X154750000Y-74750000I250000J0D01*
G01*
X156250000Y-74750000D01*
G75*
G02*
X156500000Y-75000000I0J-250000D01*
G01*
X156500000Y-76200000D01*
G75*
G02*
X156250000Y-76450000I-250000J0D01*
G01*
G37*
%TD.AperFunction*%
%TD*%
D17*
%TO.P,J9,2*%
%TO.N,Net-(J4-Pad2)*%
X144500000Y-75900000D03*
%TO.P,J9,1*%
%TO.N,Net-(J9-Pad1)*%
%TA.AperFunction,ComponentPad*%
G36*
G01*
X147850000Y-75150000D02*
X147850000Y-76650000D01*
G75*
G02*
X147600000Y-76900000I-250000J0D01*
G01*
X146400000Y-76900000D01*
G75*
G02*
X146150000Y-76650000I0J250000D01*
G01*
X146150000Y-75150000D01*
G75*
G02*
X146400000Y-74900000I250000J0D01*
G01*
X147600000Y-74900000D01*
G75*
G02*
X147850000Y-75150000I0J-250000D01*
G01*
G37*
%TD.AperFunction*%
%TD*%
D18*
%TO.P,J4,2*%
%TO.N,Net-(J4-Pad2)*%
X132300000Y-73200000D03*
%TO.P,J4,1*%
%TO.N,GND*%
%TA.AperFunction,ComponentPad*%
G36*
G01*
X133050000Y-76550000D02*
X131550000Y-76550000D01*
G75*
G02*
X131300000Y-76300000I0J250000D01*
G01*
X131300000Y-75100000D01*
G75*
G02*
X131550000Y-74850000I250000J0D01*
G01*
X133050000Y-74850000D01*
G75*
G02*
X133300000Y-75100000I0J-250000D01*
G01*
X133300000Y-76300000D01*
G75*
G02*
X133050000Y-76550000I-250000J0D01*
G01*
G37*
%TD.AperFunction*%
%TD*%
D19*
%TO.P,J1,1*%
%TO.N,Net-(J1-Pad1)*%
X185000000Y-122500000D03*
%TD*%
%TO.P,J2,1*%
%TO.N,Net-(J2-Pad1)*%
X185000000Y-142500000D03*
%TD*%
%TO.P,J3,1*%
%TO.N,Net-(J3-Pad1)*%
X185000000Y-135000000D03*
%TD*%
%TO.P,J5,1*%
%TO.N,Net-(J5-Pad1)*%
%TA.AperFunction,ComponentPad*%
G36*
G01*
X158250000Y-140850000D02*
X156750000Y-140850000D01*
G75*
G02*
X156500000Y-140600000I0J250000D01*
G01*
X156500000Y-139400000D01*
G75*
G02*
X156750000Y-139150000I250000J0D01*
G01*
X158250000Y-139150000D01*
G75*
G02*
X158500000Y-139400000I0J-250000D01*
G01*
X158500000Y-140600000D01*
G75*
G02*
X158250000Y-140850000I-250000J0D01*
G01*
G37*
%TD.AperFunction*%
D18*
%TO.P,J5,2*%
%TO.N,Net-(J5-Pad2)*%
X157500000Y-137500000D03*
%TD*%
D19*
%TO.P,U4,1*%
%TO.N,/Batt_alim/V_ext*%
X170000000Y-70000000D03*
%TO.P,U4,2*%
%TO.N,GND*%
X170000000Y-72540000D03*
%TO.P,U4,3*%
%TO.N,Net-(J9-Pad1)*%
X170000000Y-75080000D03*
%TO.P,U4,4*%
%TO.N,5V*%
X170000000Y-77620000D03*
%TD*%
D20*
%TO.N,GND*%
X133800000Y-132400000D03*
X130100000Y-125700000D03*
X152000000Y-126500000D03*
%TD*%
D21*
%TO.N,GND*%
X170000000Y-72540000D02*
X162760000Y-72540000D01*
X159700000Y-75600000D02*
X155500000Y-75600000D01*
X162760000Y-72540000D02*
X159700000Y-75600000D01*
X155500000Y-75600000D02*
X152400000Y-75600000D01*
X152400000Y-75600000D02*
X145900000Y-69100000D01*
X105900000Y-69100000D02*
X105000000Y-70000000D01*
X132300000Y-75700000D02*
X126100000Y-75700000D01*
X124000000Y-73600000D02*
X124000000Y-69100000D01*
X126100000Y-75700000D02*
X124000000Y-73600000D01*
X145900000Y-69100000D02*
X124000000Y-69100000D01*
X124000000Y-69100000D02*
X105900000Y-69100000D01*
X163483000Y-138850000D02*
X181517000Y-138850000D01*
X193850000Y-138850000D02*
X195000000Y-140000000D01*
X181517000Y-138850000D02*
X193850000Y-138850000D01*
X102300000Y-120970000D02*
X111730000Y-120970000D01*
X111730000Y-120970000D02*
X114600000Y-118100000D01*
X114600000Y-118100000D02*
X114600000Y-94700000D01*
X121350000Y-87950000D02*
X127700000Y-87950000D01*
X114600000Y-94700000D02*
X121350000Y-87950000D01*
X121350000Y-80450000D02*
X126100000Y-75700000D01*
X121350000Y-87950000D02*
X121350000Y-80450000D01*
X133800000Y-132400000D02*
X133800000Y-134700000D01*
X111730000Y-133630000D02*
X111730000Y-120970000D01*
X115300000Y-137200000D02*
X111730000Y-133630000D01*
X145100000Y-130200000D02*
X145100000Y-131300000D01*
X141550000Y-134850000D02*
X133650000Y-134850000D01*
X133800000Y-134700000D02*
X133650000Y-134850000D01*
X145100000Y-131300000D02*
X141550000Y-134850000D01*
X133650000Y-134850000D02*
X131300000Y-137200000D01*
X130400000Y-126000000D02*
X130100000Y-125700000D01*
X130400000Y-137200000D02*
X130400000Y-126000000D01*
X130400000Y-137200000D02*
X115300000Y-137200000D01*
X131300000Y-137200000D02*
X130400000Y-137200000D01*
X145100000Y-130200000D02*
X145100000Y-131600000D01*
X145100000Y-131600000D02*
X146500000Y-133000000D01*
X146500000Y-133000000D02*
X148400000Y-133000000D01*
X148400000Y-133000000D02*
X152000000Y-129400000D01*
X152000000Y-129400000D02*
X152000000Y-126500000D01*
D22*
%TO.N,5V*%
X147600000Y-138100000D02*
X147600000Y-139900000D01*
X147600000Y-139900000D02*
X146700000Y-140800000D01*
X109430000Y-140800000D02*
X102300000Y-133670000D01*
X146700000Y-140800000D02*
X109430000Y-140800000D01*
X170000000Y-77620000D02*
X170000000Y-112100000D01*
X170000000Y-112100000D02*
X154300000Y-127800000D01*
X147600000Y-137000000D02*
X154300000Y-130300000D01*
X147600000Y-138100000D02*
X147600000Y-137000000D01*
X154300000Y-127800000D02*
X154300000Y-130300000D01*
D23*
%TO.N,Net-(J4-Pad2)*%
X144500000Y-75900000D02*
X141700000Y-75900000D01*
X139000000Y-73200000D02*
X132300000Y-73200000D01*
X141700000Y-75900000D02*
X139000000Y-73200000D01*
%TO.N,bouton1*%
X147600000Y-130200000D02*
X147600000Y-128200000D01*
X130210000Y-110810000D02*
X127700000Y-110810000D01*
X147600000Y-128200000D02*
X130210000Y-110810000D01*
D22*
%TO.N,/Batt_alim/V_ext*%
X158600000Y-70000000D02*
X155500000Y-73100000D01*
X170000000Y-70000000D02*
X158600000Y-70000000D01*
D23*
%TO.N,Net-(J5-Pad1)*%
X158890000Y-141390000D02*
X157500000Y-140000000D01*
X163483000Y-141390000D02*
X158890000Y-141390000D01*
%TO.N,Net-(J5-Pad2)*%
X158690000Y-136310000D02*
X157500000Y-137500000D01*
X163483000Y-136310000D02*
X158690000Y-136310000D01*
%TO.N,Net-(J9-Pad1)*%
X170000000Y-75080000D02*
X164020000Y-75080000D01*
X164020000Y-75080000D02*
X160300000Y-78800000D01*
X149900000Y-78800000D02*
X147000000Y-75900000D01*
X160300000Y-78800000D02*
X149900000Y-78800000D01*
%TO.N,Net-(J1-Pad1)*%
X183890000Y-123610000D02*
X185000000Y-122500000D01*
X181517000Y-123610000D02*
X183890000Y-123610000D01*
%TO.N,Net-(J2-Pad1)*%
X183890000Y-141390000D02*
X185000000Y-142500000D01*
X181517000Y-141390000D02*
X183890000Y-141390000D01*
%TO.N,Net-(J3-Pad1)*%
X183690000Y-136310000D02*
X185000000Y-135000000D01*
X181517000Y-136310000D02*
X183690000Y-136310000D01*
%TD*%
D24*
%TO.N,GND*%
G36*
X195759192Y-65780578D02*
G01*
X196494389Y-65981705D01*
X197182351Y-66309846D01*
X197801331Y-66754628D01*
X198331761Y-67301988D01*
X198756884Y-67934639D01*
X199063251Y-68632561D01*
X199242499Y-69379183D01*
X199290000Y-70026030D01*
X199290001Y-139968370D01*
X199219422Y-140759193D01*
X199018295Y-141494389D01*
X198690152Y-142182355D01*
X198245374Y-142801328D01*
X197698012Y-143331761D01*
X197065362Y-143756883D01*
X196367439Y-144063251D01*
X195620819Y-144242499D01*
X194973970Y-144290000D01*
X105031618Y-144290000D01*
X104240807Y-144219422D01*
X103505611Y-144018295D01*
X102817645Y-143690152D01*
X102198672Y-143245374D01*
X101668239Y-142698012D01*
X101243117Y-142065362D01*
X100936749Y-141367439D01*
X100757501Y-140620819D01*
X100710000Y-139973970D01*
X100710000Y-123372112D01*
X100900000Y-123372112D01*
X100900000Y-123647888D01*
X100953801Y-123918365D01*
X101059336Y-124173149D01*
X101212549Y-124402448D01*
X101407552Y-124597451D01*
X101636851Y-124750664D01*
X101707674Y-124780000D01*
X101636851Y-124809336D01*
X101407552Y-124962549D01*
X101212549Y-125157552D01*
X101059336Y-125386851D01*
X100953801Y-125641635D01*
X100900000Y-125912112D01*
X100900000Y-126187888D01*
X100953801Y-126458365D01*
X101059336Y-126713149D01*
X101212549Y-126942448D01*
X101407552Y-127137451D01*
X101636851Y-127290664D01*
X101707674Y-127320000D01*
X101636851Y-127349336D01*
X101407552Y-127502549D01*
X101212549Y-127697552D01*
X101059336Y-127926851D01*
X100953801Y-128181635D01*
X100900000Y-128452112D01*
X100900000Y-128727888D01*
X100953801Y-128998365D01*
X101059336Y-129253149D01*
X101212549Y-129482448D01*
X101407552Y-129677451D01*
X101636851Y-129830664D01*
X101707674Y-129860000D01*
X101636851Y-129889336D01*
X101407552Y-130042549D01*
X101212549Y-130237552D01*
X101059336Y-130466851D01*
X100953801Y-130721635D01*
X100900000Y-130992112D01*
X100900000Y-131267888D01*
X100953801Y-131538365D01*
X101059336Y-131793149D01*
X101212549Y-132022448D01*
X101407552Y-132217451D01*
X101636851Y-132370664D01*
X101707674Y-132400000D01*
X101636851Y-132429336D01*
X101407552Y-132582549D01*
X101212549Y-132777552D01*
X101059336Y-133006851D01*
X100953801Y-133261635D01*
X100900000Y-133532112D01*
X100900000Y-133807888D01*
X100953801Y-134078365D01*
X101059336Y-134333149D01*
X101212549Y-134562448D01*
X101407552Y-134757451D01*
X101636851Y-134910664D01*
X101891635Y-135016199D01*
X102078172Y-135053303D01*
X108588013Y-141563146D01*
X108623551Y-141606449D01*
X108666854Y-141641987D01*
X108666856Y-141641989D01*
X108796377Y-141748284D01*
X108993553Y-141853676D01*
X109207501Y-141918577D01*
X109430000Y-141940491D01*
X109485752Y-141935000D01*
X146644249Y-141935000D01*
X146700000Y-141940491D01*
X146755751Y-141935000D01*
X146755752Y-141935000D01*
X146922499Y-141918577D01*
X147136447Y-141853676D01*
X147333623Y-141748284D01*
X147506449Y-141606449D01*
X147541995Y-141563136D01*
X148363140Y-140741992D01*
X148406449Y-140706449D01*
X148548284Y-140533623D01*
X148653676Y-140336447D01*
X148718577Y-140122499D01*
X148735000Y-139955752D01*
X148735000Y-139955745D01*
X148740490Y-139900001D01*
X148735000Y-139844257D01*
X148735000Y-139207817D01*
X148840706Y-139079014D01*
X148978599Y-138821033D01*
X149063513Y-138541110D01*
X149085000Y-138322949D01*
X149085000Y-137877050D01*
X149063513Y-137658889D01*
X149015315Y-137500000D01*
X155857815Y-137500000D01*
X155886487Y-137791111D01*
X155971401Y-138071034D01*
X156109294Y-138329014D01*
X156294866Y-138555134D01*
X156358337Y-138607223D01*
X156256614Y-138661595D01*
X156122038Y-138772038D01*
X156011595Y-138906614D01*
X155929528Y-139060150D01*
X155878992Y-139226746D01*
X155861928Y-139400000D01*
X155861928Y-140600000D01*
X155878992Y-140773254D01*
X155929528Y-140939850D01*
X156011595Y-141093386D01*
X156122038Y-141227962D01*
X156256614Y-141338405D01*
X156410150Y-141420472D01*
X156576746Y-141471008D01*
X156750000Y-141488072D01*
X157736493Y-141488072D01*
X158233470Y-141985049D01*
X158261183Y-142018817D01*
X158294951Y-142046530D01*
X158294953Y-142046532D01*
X158384660Y-142120153D01*
X158395941Y-142129411D01*
X158549687Y-142211589D01*
X158716510Y-142262195D01*
X158846523Y-142275000D01*
X158846531Y-142275000D01*
X158890000Y-142279281D01*
X158933469Y-142275000D01*
X162545078Y-142275000D01*
X162661310Y-142391232D01*
X162872430Y-142532297D01*
X163107013Y-142629465D01*
X163356045Y-142679000D01*
X163609955Y-142679000D01*
X163858987Y-142629465D01*
X164093570Y-142532297D01*
X164304690Y-142391232D01*
X164484232Y-142211690D01*
X164625297Y-142000570D01*
X164722465Y-141765987D01*
X164772000Y-141516955D01*
X164772000Y-141263045D01*
X180228000Y-141263045D01*
X180228000Y-141516955D01*
X180277535Y-141765987D01*
X180374703Y-142000570D01*
X180515768Y-142211690D01*
X180695310Y-142391232D01*
X180906430Y-142532297D01*
X181141013Y-142629465D01*
X181390045Y-142679000D01*
X181643955Y-142679000D01*
X181892987Y-142629465D01*
X182127570Y-142532297D01*
X182338690Y-142391232D01*
X182454922Y-142275000D01*
X183511928Y-142275000D01*
X183511928Y-143350000D01*
X183524188Y-143474482D01*
X183560498Y-143594180D01*
X183619463Y-143704494D01*
X183698815Y-143801185D01*
X183795506Y-143880537D01*
X183905820Y-143939502D01*
X184025518Y-143975812D01*
X184150000Y-143988072D01*
X185850000Y-143988072D01*
X185974482Y-143975812D01*
X186094180Y-143939502D01*
X186204494Y-143880537D01*
X186301185Y-143801185D01*
X186380537Y-143704494D01*
X186439502Y-143594180D01*
X186475812Y-143474482D01*
X186488072Y-143350000D01*
X186488072Y-142700881D01*
X192478724Y-142700881D01*
X192838912Y-143190548D01*
X193502882Y-143550849D01*
X194224385Y-143774694D01*
X194975695Y-143853480D01*
X195727938Y-143784178D01*
X196452208Y-143569452D01*
X197120670Y-143217555D01*
X197161088Y-143190548D01*
X197521276Y-142700881D01*
X195000000Y-140179605D01*
X192478724Y-142700881D01*
X186488072Y-142700881D01*
X186488072Y-141650000D01*
X186475812Y-141525518D01*
X186439502Y-141405820D01*
X186380537Y-141295506D01*
X186301185Y-141198815D01*
X186204494Y-141119463D01*
X186094180Y-141060498D01*
X185974482Y-141024188D01*
X185850000Y-141011928D01*
X184763506Y-141011928D01*
X184546534Y-140794956D01*
X184518817Y-140761183D01*
X184384059Y-140650589D01*
X184230313Y-140568411D01*
X184063490Y-140517805D01*
X183933477Y-140505000D01*
X183933469Y-140505000D01*
X183890000Y-140500719D01*
X183846531Y-140505000D01*
X182454922Y-140505000D01*
X182338690Y-140388768D01*
X182127570Y-140247703D01*
X181892987Y-140150535D01*
X181739001Y-140119906D01*
X181844079Y-140103259D01*
X182082293Y-140015368D01*
X182156515Y-139975695D01*
X191146520Y-139975695D01*
X191215822Y-140727938D01*
X191430548Y-141452208D01*
X191782445Y-142120670D01*
X191809452Y-142161088D01*
X192299119Y-142521276D01*
X194820395Y-140000000D01*
X195179605Y-140000000D01*
X197700881Y-142521276D01*
X198190548Y-142161088D01*
X198550849Y-141497118D01*
X198774694Y-140775615D01*
X198853480Y-140024305D01*
X198784178Y-139272062D01*
X198569452Y-138547792D01*
X198217555Y-137879330D01*
X198190548Y-137838912D01*
X197700881Y-137478724D01*
X195179605Y-140000000D01*
X194820395Y-140000000D01*
X192299119Y-137478724D01*
X191809452Y-137838912D01*
X191449151Y-138502882D01*
X191225306Y-139224385D01*
X191146520Y-139975695D01*
X182156515Y-139975695D01*
X182171907Y-139967468D01*
X182225782Y-139738387D01*
X181517000Y-139029605D01*
X180808218Y-139738387D01*
X180862093Y-139967468D01*
X181092684Y-140073763D01*
X181289484Y-140121003D01*
X181141013Y-140150535D01*
X180906430Y-140247703D01*
X180695310Y-140388768D01*
X180515768Y-140568310D01*
X180374703Y-140779430D01*
X180277535Y-141014013D01*
X180228000Y-141263045D01*
X164772000Y-141263045D01*
X164722465Y-141014013D01*
X164625297Y-140779430D01*
X164484232Y-140568310D01*
X164304690Y-140388768D01*
X164093570Y-140247703D01*
X163858987Y-140150535D01*
X163705001Y-140119906D01*
X163810079Y-140103259D01*
X164048293Y-140015368D01*
X164137907Y-139967468D01*
X164191782Y-139738387D01*
X163483000Y-139029605D01*
X162774218Y-139738387D01*
X162828093Y-139967468D01*
X163058684Y-140073763D01*
X163255484Y-140121003D01*
X163107013Y-140150535D01*
X162872430Y-140247703D01*
X162661310Y-140388768D01*
X162545078Y-140505000D01*
X159256579Y-140505000D01*
X159138072Y-140386493D01*
X159138072Y-139400000D01*
X159121008Y-139226746D01*
X159070472Y-139060150D01*
X158998926Y-138926296D01*
X162190012Y-138926296D01*
X162229741Y-139177079D01*
X162317632Y-139415293D01*
X162365532Y-139504907D01*
X162594613Y-139558782D01*
X163303395Y-138850000D01*
X163662605Y-138850000D01*
X164371387Y-139558782D01*
X164600468Y-139504907D01*
X164706763Y-139274316D01*
X164766028Y-139027419D01*
X164769997Y-138926296D01*
X180224012Y-138926296D01*
X180263741Y-139177079D01*
X180351632Y-139415293D01*
X180399532Y-139504907D01*
X180628613Y-139558782D01*
X181337395Y-138850000D01*
X181696605Y-138850000D01*
X182405387Y-139558782D01*
X182634468Y-139504907D01*
X182740763Y-139274316D01*
X182800028Y-139027419D01*
X182809988Y-138773704D01*
X182770259Y-138522921D01*
X182682368Y-138284707D01*
X182634468Y-138195093D01*
X182405387Y-138141218D01*
X181696605Y-138850000D01*
X181337395Y-138850000D01*
X180628613Y-138141218D01*
X180399532Y-138195093D01*
X180293237Y-138425684D01*
X180233972Y-138672581D01*
X180224012Y-138926296D01*
X164769997Y-138926296D01*
X164775988Y-138773704D01*
X164736259Y-138522921D01*
X164648368Y-138284707D01*
X164600468Y-138195093D01*
X164371387Y-138141218D01*
X163662605Y-138850000D01*
X163303395Y-138850000D01*
X162594613Y-138141218D01*
X162365532Y-138195093D01*
X162259237Y-138425684D01*
X162199972Y-138672581D01*
X162190012Y-138926296D01*
X158998926Y-138926296D01*
X158988405Y-138906614D01*
X158877962Y-138772038D01*
X158743386Y-138661595D01*
X158641663Y-138607223D01*
X158705134Y-138555134D01*
X158890706Y-138329014D01*
X159028599Y-138071034D01*
X159113513Y-137791111D01*
X159142185Y-137500000D01*
X159113513Y-137208889D01*
X159109300Y-137195000D01*
X162545078Y-137195000D01*
X162661310Y-137311232D01*
X162872430Y-137452297D01*
X163107013Y-137549465D01*
X163260999Y-137580094D01*
X163155921Y-137596741D01*
X162917707Y-137684632D01*
X162828093Y-137732532D01*
X162774218Y-137961613D01*
X163483000Y-138670395D01*
X164191782Y-137961613D01*
X164137907Y-137732532D01*
X163907316Y-137626237D01*
X163710516Y-137578997D01*
X163858987Y-137549465D01*
X164093570Y-137452297D01*
X164304690Y-137311232D01*
X164484232Y-137131690D01*
X164625297Y-136920570D01*
X164722465Y-136685987D01*
X164772000Y-136436955D01*
X164772000Y-136183045D01*
X164722465Y-135934013D01*
X164625297Y-135699430D01*
X164484232Y-135488310D01*
X164304690Y-135308768D01*
X164093570Y-135167703D01*
X163858987Y-135070535D01*
X163705476Y-135040000D01*
X163858987Y-135009465D01*
X164093570Y-134912297D01*
X164304690Y-134771232D01*
X164484232Y-134591690D01*
X164625297Y-134380570D01*
X164722465Y-134145987D01*
X164772000Y-133896955D01*
X164772000Y-133643045D01*
X164722465Y-133394013D01*
X164625297Y-133159430D01*
X164484232Y-132948310D01*
X164304690Y-132768768D01*
X164093570Y-132627703D01*
X163858987Y-132530535D01*
X163705476Y-132500000D01*
X163858987Y-132469465D01*
X164093570Y-132372297D01*
X164304690Y-132231232D01*
X164484232Y-132051690D01*
X164625297Y-131840570D01*
X164722465Y-131605987D01*
X164772000Y-131356955D01*
X164772000Y-131103045D01*
X164722465Y-130854013D01*
X164625297Y-130619430D01*
X164484232Y-130408310D01*
X164304690Y-130228768D01*
X164093570Y-130087703D01*
X163858987Y-129990535D01*
X163705476Y-129960000D01*
X163858987Y-129929465D01*
X164093570Y-129832297D01*
X164304690Y-129691232D01*
X164484232Y-129511690D01*
X164625297Y-129300570D01*
X164722465Y-129065987D01*
X164772000Y-128816955D01*
X164772000Y-128563045D01*
X164722465Y-128314013D01*
X164625297Y-128079430D01*
X164484232Y-127868310D01*
X164304690Y-127688768D01*
X164093570Y-127547703D01*
X163858987Y-127450535D01*
X163705476Y-127420000D01*
X163858987Y-127389465D01*
X164093570Y-127292297D01*
X164304690Y-127151232D01*
X164484232Y-126971690D01*
X164625297Y-126760570D01*
X164722465Y-126525987D01*
X164772000Y-126276955D01*
X164772000Y-126023045D01*
X164722465Y-125774013D01*
X164625297Y-125539430D01*
X164484232Y-125328310D01*
X164304690Y-125148768D01*
X164093570Y-125007703D01*
X163858987Y-124910535D01*
X163816440Y-124902072D01*
X164137000Y-124902072D01*
X164261482Y-124889812D01*
X164381180Y-124853502D01*
X164491494Y-124794537D01*
X164588185Y-124715185D01*
X164667537Y-124618494D01*
X164726502Y-124508180D01*
X164762812Y-124388482D01*
X164775072Y-124264000D01*
X164775072Y-123483045D01*
X180228000Y-123483045D01*
X180228000Y-123736955D01*
X180277535Y-123985987D01*
X180374703Y-124220570D01*
X180515768Y-124431690D01*
X180695310Y-124611232D01*
X180906430Y-124752297D01*
X181141013Y-124849465D01*
X181294524Y-124880000D01*
X181141013Y-124910535D01*
X180906430Y-125007703D01*
X180695310Y-125148768D01*
X180515768Y-125328310D01*
X180374703Y-125539430D01*
X180277535Y-125774013D01*
X180228000Y-126023045D01*
X180228000Y-126276955D01*
X180277535Y-126525987D01*
X180374703Y-126760570D01*
X180515768Y-126971690D01*
X180695310Y-127151232D01*
X180906430Y-127292297D01*
X181141013Y-127389465D01*
X181294524Y-127420000D01*
X181141013Y-127450535D01*
X180906430Y-127547703D01*
X180695310Y-127688768D01*
X180515768Y-127868310D01*
X180374703Y-128079430D01*
X180277535Y-128314013D01*
X180228000Y-128563045D01*
X180228000Y-128816955D01*
X180277535Y-129065987D01*
X180374703Y-129300570D01*
X180515768Y-129511690D01*
X180695310Y-129691232D01*
X180906430Y-129832297D01*
X181141013Y-129929465D01*
X181294524Y-129960000D01*
X181141013Y-129990535D01*
X180906430Y-130087703D01*
X180695310Y-130228768D01*
X180515768Y-130408310D01*
X180374703Y-130619430D01*
X180277535Y-130854013D01*
X180228000Y-131103045D01*
X180228000Y-131356955D01*
X180277535Y-131605987D01*
X180374703Y-131840570D01*
X180515768Y-132051690D01*
X180695310Y-132231232D01*
X180906430Y-132372297D01*
X181141013Y-132469465D01*
X181294524Y-132500000D01*
X181141013Y-132530535D01*
X180906430Y-132627703D01*
X180695310Y-132768768D01*
X180515768Y-132948310D01*
X180374703Y-133159430D01*
X180277535Y-133394013D01*
X180228000Y-133643045D01*
X180228000Y-133896955D01*
X180277535Y-134145987D01*
X180374703Y-134380570D01*
X180515768Y-134591690D01*
X180695310Y-134771232D01*
X180906430Y-134912297D01*
X181141013Y-135009465D01*
X181294524Y-135040000D01*
X181141013Y-135070535D01*
X180906430Y-135167703D01*
X180695310Y-135308768D01*
X180515768Y-135488310D01*
X180374703Y-135699430D01*
X180277535Y-135934013D01*
X180228000Y-136183045D01*
X180228000Y-136436955D01*
X180277535Y-136685987D01*
X180374703Y-136920570D01*
X180515768Y-137131690D01*
X180695310Y-137311232D01*
X180906430Y-137452297D01*
X181141013Y-137549465D01*
X181294999Y-137580094D01*
X181189921Y-137596741D01*
X180951707Y-137684632D01*
X180862093Y-137732532D01*
X180808218Y-137961613D01*
X181517000Y-138670395D01*
X182225782Y-137961613D01*
X182171907Y-137732532D01*
X181941316Y-137626237D01*
X181744516Y-137578997D01*
X181892987Y-137549465D01*
X182127570Y-137452297D01*
X182338690Y-137311232D01*
X182350803Y-137299119D01*
X192478724Y-137299119D01*
X195000000Y-139820395D01*
X197521276Y-137299119D01*
X197161088Y-136809452D01*
X196497118Y-136449151D01*
X195775615Y-136225306D01*
X195024305Y-136146520D01*
X194272062Y-136215822D01*
X193547792Y-136430548D01*
X192879330Y-136782445D01*
X192838912Y-136809452D01*
X192478724Y-137299119D01*
X182350803Y-137299119D01*
X182454922Y-137195000D01*
X183646531Y-137195000D01*
X183690000Y-137199281D01*
X183733469Y-137195000D01*
X183733477Y-137195000D01*
X183863490Y-137182195D01*
X184030313Y-137131589D01*
X184184059Y-137049411D01*
X184318817Y-136938817D01*
X184346534Y-136905044D01*
X184763506Y-136488072D01*
X185850000Y-136488072D01*
X185974482Y-136475812D01*
X186094180Y-136439502D01*
X186204494Y-136380537D01*
X186301185Y-136301185D01*
X186380537Y-136204494D01*
X186439502Y-136094180D01*
X186475812Y-135974482D01*
X186488072Y-135850000D01*
X186488072Y-134150000D01*
X186475812Y-134025518D01*
X186439502Y-133905820D01*
X186380537Y-133795506D01*
X186301185Y-133698815D01*
X186204494Y-133619463D01*
X186094180Y-133560498D01*
X185974482Y-133524188D01*
X185850000Y-133511928D01*
X184150000Y-133511928D01*
X184025518Y-133524188D01*
X183905820Y-133560498D01*
X183795506Y-133619463D01*
X183698815Y-133698815D01*
X183619463Y-133795506D01*
X183560498Y-133905820D01*
X183524188Y-134025518D01*
X183511928Y-134150000D01*
X183511928Y-135236494D01*
X183323422Y-135425000D01*
X182454922Y-135425000D01*
X182338690Y-135308768D01*
X182127570Y-135167703D01*
X181892987Y-135070535D01*
X181739476Y-135040000D01*
X181892987Y-135009465D01*
X182127570Y-134912297D01*
X182338690Y-134771232D01*
X182518232Y-134591690D01*
X182659297Y-134380570D01*
X182756465Y-134145987D01*
X182806000Y-133896955D01*
X182806000Y-133643045D01*
X182756465Y-133394013D01*
X182659297Y-133159430D01*
X182518232Y-132948310D01*
X182338690Y-132768768D01*
X182127570Y-132627703D01*
X181892987Y-132530535D01*
X181739476Y-132500000D01*
X181892987Y-132469465D01*
X182127570Y-132372297D01*
X182338690Y-132231232D01*
X182518232Y-132051690D01*
X182659297Y-131840570D01*
X182756465Y-131605987D01*
X182806000Y-131356955D01*
X182806000Y-131103045D01*
X182756465Y-130854013D01*
X182659297Y-130619430D01*
X182518232Y-130408310D01*
X182338690Y-130228768D01*
X182127570Y-130087703D01*
X181892987Y-129990535D01*
X181739476Y-129960000D01*
X181892987Y-129929465D01*
X182127570Y-129832297D01*
X182338690Y-129691232D01*
X182518232Y-129511690D01*
X182659297Y-129300570D01*
X182756465Y-129065987D01*
X182806000Y-128816955D01*
X182806000Y-128563045D01*
X182756465Y-128314013D01*
X182659297Y-128079430D01*
X182518232Y-127868310D01*
X182338690Y-127688768D01*
X182127570Y-127547703D01*
X181892987Y-127450535D01*
X181739476Y-127420000D01*
X181892987Y-127389465D01*
X182127570Y-127292297D01*
X182338690Y-127151232D01*
X182518232Y-126971690D01*
X182659297Y-126760570D01*
X182756465Y-126525987D01*
X182806000Y-126276955D01*
X182806000Y-126023045D01*
X182756465Y-125774013D01*
X182659297Y-125539430D01*
X182518232Y-125328310D01*
X182338690Y-125148768D01*
X182127570Y-125007703D01*
X181892987Y-124910535D01*
X181739476Y-124880000D01*
X181892987Y-124849465D01*
X182127570Y-124752297D01*
X182338690Y-124611232D01*
X182454922Y-124495000D01*
X183846531Y-124495000D01*
X183890000Y-124499281D01*
X183933469Y-124495000D01*
X183933477Y-124495000D01*
X184063490Y-124482195D01*
X184230313Y-124431589D01*
X184384059Y-124349411D01*
X184518817Y-124238817D01*
X184546534Y-124205044D01*
X184763506Y-123988072D01*
X185850000Y-123988072D01*
X185974482Y-123975812D01*
X186094180Y-123939502D01*
X186204494Y-123880537D01*
X186301185Y-123801185D01*
X186380537Y-123704494D01*
X186439502Y-123594180D01*
X186475812Y-123474482D01*
X186488072Y-123350000D01*
X186488072Y-121650000D01*
X186475812Y-121525518D01*
X186439502Y-121405820D01*
X186380537Y-121295506D01*
X186301185Y-121198815D01*
X186204494Y-121119463D01*
X186094180Y-121060498D01*
X185974482Y-121024188D01*
X185850000Y-121011928D01*
X184150000Y-121011928D01*
X184025518Y-121024188D01*
X183905820Y-121060498D01*
X183795506Y-121119463D01*
X183698815Y-121198815D01*
X183619463Y-121295506D01*
X183560498Y-121405820D01*
X183524188Y-121525518D01*
X183511928Y-121650000D01*
X183511928Y-122725000D01*
X182454922Y-122725000D01*
X182338690Y-122608768D01*
X182127570Y-122467703D01*
X181892987Y-122370535D01*
X181643955Y-122321000D01*
X181390045Y-122321000D01*
X181141013Y-122370535D01*
X180906430Y-122467703D01*
X180695310Y-122608768D01*
X180515768Y-122788310D01*
X180374703Y-122999430D01*
X180277535Y-123234013D01*
X180228000Y-123483045D01*
X164775072Y-123483045D01*
X164775072Y-122956000D01*
X164762812Y-122831518D01*
X164726502Y-122711820D01*
X164667537Y-122601506D01*
X164588185Y-122504815D01*
X164491494Y-122425463D01*
X164381180Y-122366498D01*
X164261482Y-122330188D01*
X164137000Y-122317928D01*
X162829000Y-122317928D01*
X162704518Y-122330188D01*
X162584820Y-122366498D01*
X162474506Y-122425463D01*
X162377815Y-122504815D01*
X162298463Y-122601506D01*
X162239498Y-122711820D01*
X162203188Y-122831518D01*
X162190928Y-122956000D01*
X162190928Y-124264000D01*
X162203188Y-124388482D01*
X162239498Y-124508180D01*
X162298463Y-124618494D01*
X162377815Y-124715185D01*
X162474506Y-124794537D01*
X162584820Y-124853502D01*
X162704518Y-124889812D01*
X162829000Y-124902072D01*
X163149560Y-124902072D01*
X163107013Y-124910535D01*
X162872430Y-125007703D01*
X162661310Y-125148768D01*
X162481768Y-125328310D01*
X162340703Y-125539430D01*
X162243535Y-125774013D01*
X162194000Y-126023045D01*
X162194000Y-126276955D01*
X162243535Y-126525987D01*
X162340703Y-126760570D01*
X162481768Y-126971690D01*
X162661310Y-127151232D01*
X162872430Y-127292297D01*
X163107013Y-127389465D01*
X163260524Y-127420000D01*
X163107013Y-127450535D01*
X162872430Y-127547703D01*
X162661310Y-127688768D01*
X162481768Y-127868310D01*
X162340703Y-128079430D01*
X162243535Y-128314013D01*
X162194000Y-128563045D01*
X162194000Y-128816955D01*
X162243535Y-129065987D01*
X162340703Y-129300570D01*
X162481768Y-129511690D01*
X162661310Y-129691232D01*
X162872430Y-129832297D01*
X163107013Y-129929465D01*
X163260524Y-129960000D01*
X163107013Y-129990535D01*
X162872430Y-130087703D01*
X162661310Y-130228768D01*
X162481768Y-130408310D01*
X162340703Y-130619430D01*
X162243535Y-130854013D01*
X162194000Y-131103045D01*
X162194000Y-131356955D01*
X162243535Y-131605987D01*
X162340703Y-131840570D01*
X162481768Y-132051690D01*
X162661310Y-132231232D01*
X162872430Y-132372297D01*
X163107013Y-132469465D01*
X163260524Y-132500000D01*
X163107013Y-132530535D01*
X162872430Y-132627703D01*
X162661310Y-132768768D01*
X162481768Y-132948310D01*
X162340703Y-133159430D01*
X162243535Y-133394013D01*
X162194000Y-133643045D01*
X162194000Y-133896955D01*
X162243535Y-134145987D01*
X162340703Y-134380570D01*
X162481768Y-134591690D01*
X162661310Y-134771232D01*
X162872430Y-134912297D01*
X163107013Y-135009465D01*
X163260524Y-135040000D01*
X163107013Y-135070535D01*
X162872430Y-135167703D01*
X162661310Y-135308768D01*
X162545078Y-135425000D01*
X158733465Y-135425000D01*
X158689999Y-135420719D01*
X158646533Y-135425000D01*
X158646523Y-135425000D01*
X158516510Y-135437805D01*
X158349687Y-135488411D01*
X158195941Y-135570589D01*
X158195939Y-135570590D01*
X158195940Y-135570590D01*
X158094953Y-135653468D01*
X158094951Y-135653470D01*
X158061183Y-135681183D01*
X158033470Y-135714951D01*
X157732482Y-136015939D01*
X157722950Y-136015000D01*
X157277050Y-136015000D01*
X157058889Y-136036487D01*
X156778966Y-136121401D01*
X156520986Y-136259294D01*
X156294866Y-136444866D01*
X156109294Y-136670986D01*
X155971401Y-136928966D01*
X155886487Y-137208889D01*
X155857815Y-137500000D01*
X149015315Y-137500000D01*
X148978599Y-137378966D01*
X148925502Y-137279629D01*
X155063141Y-131141991D01*
X155106449Y-131106449D01*
X155248284Y-130933623D01*
X155353676Y-130736447D01*
X155418577Y-130522499D01*
X155435000Y-130355752D01*
X155440491Y-130300000D01*
X155435000Y-130244248D01*
X155435000Y-128270131D01*
X170763141Y-112941991D01*
X170806449Y-112906449D01*
X170948284Y-112733623D01*
X171053676Y-112536447D01*
X171118577Y-112322499D01*
X171135000Y-112155752D01*
X171140491Y-112100000D01*
X171135000Y-112044249D01*
X171135000Y-79037683D01*
X171204494Y-79000537D01*
X171301185Y-78921185D01*
X171380537Y-78824494D01*
X171439502Y-78714180D01*
X171475812Y-78594482D01*
X171488072Y-78470000D01*
X171488072Y-76770000D01*
X171475812Y-76645518D01*
X171439502Y-76525820D01*
X171380537Y-76415506D01*
X171326778Y-76350000D01*
X171380537Y-76284494D01*
X171439502Y-76174180D01*
X171475812Y-76054482D01*
X171488072Y-75930000D01*
X171488072Y-74230000D01*
X171475812Y-74105518D01*
X171439502Y-73985820D01*
X171380537Y-73875506D01*
X171326778Y-73810000D01*
X171380537Y-73744494D01*
X171439502Y-73634180D01*
X171475812Y-73514482D01*
X171488072Y-73390000D01*
X171485000Y-72825750D01*
X171326250Y-72667000D01*
X170127000Y-72667000D01*
X170127000Y-72687000D01*
X169873000Y-72687000D01*
X169873000Y-72667000D01*
X168673750Y-72667000D01*
X168515000Y-72825750D01*
X168511928Y-73390000D01*
X168524188Y-73514482D01*
X168560498Y-73634180D01*
X168619463Y-73744494D01*
X168673222Y-73810000D01*
X168619463Y-73875506D01*
X168560498Y-73985820D01*
X168524188Y-74105518D01*
X168515375Y-74195000D01*
X164063465Y-74195000D01*
X164019999Y-74190719D01*
X163976533Y-74195000D01*
X163976523Y-74195000D01*
X163846510Y-74207805D01*
X163679687Y-74258411D01*
X163525941Y-74340589D01*
X163496452Y-74364790D01*
X163424953Y-74423468D01*
X163424951Y-74423470D01*
X163391183Y-74451183D01*
X163363470Y-74484951D01*
X159933422Y-77915000D01*
X150266579Y-77915000D01*
X148801579Y-76450000D01*
X153861928Y-76450000D01*
X153874188Y-76574482D01*
X153910498Y-76694180D01*
X153969463Y-76804494D01*
X154048815Y-76901185D01*
X154145506Y-76980537D01*
X154255820Y-77039502D01*
X154375518Y-77075812D01*
X154500000Y-77088072D01*
X155214250Y-77085000D01*
X155373000Y-76926250D01*
X155373000Y-75727000D01*
X155627000Y-75727000D01*
X155627000Y-76926250D01*
X155785750Y-77085000D01*
X156500000Y-77088072D01*
X156624482Y-77075812D01*
X156744180Y-77039502D01*
X156854494Y-76980537D01*
X156951185Y-76901185D01*
X157030537Y-76804494D01*
X157089502Y-76694180D01*
X157125812Y-76574482D01*
X157138072Y-76450000D01*
X157135000Y-75885750D01*
X156976250Y-75727000D01*
X155627000Y-75727000D01*
X155373000Y-75727000D01*
X154023750Y-75727000D01*
X153865000Y-75885750D01*
X153861928Y-76450000D01*
X148801579Y-76450000D01*
X148488072Y-76136494D01*
X148488072Y-75150000D01*
X148471008Y-74976746D01*
X148420472Y-74810150D01*
X148338405Y-74656614D01*
X148227962Y-74522038D01*
X148093386Y-74411595D01*
X147939850Y-74329528D01*
X147773254Y-74278992D01*
X147600000Y-74261928D01*
X146400000Y-74261928D01*
X146226746Y-74278992D01*
X146060150Y-74329528D01*
X145906614Y-74411595D01*
X145772038Y-74522038D01*
X145661595Y-74656614D01*
X145607223Y-74758337D01*
X145555134Y-74694866D01*
X145329014Y-74509294D01*
X145071034Y-74371401D01*
X144791111Y-74286487D01*
X144500000Y-74257815D01*
X144208890Y-74286487D01*
X143928967Y-74371401D01*
X143670987Y-74509294D01*
X143444866Y-74694866D01*
X143259294Y-74920986D01*
X143209043Y-75015000D01*
X142066579Y-75015000D01*
X140151579Y-73100000D01*
X153857815Y-73100000D01*
X153886487Y-73391111D01*
X153971401Y-73671034D01*
X154109294Y-73929014D01*
X154290608Y-74149945D01*
X154255820Y-74160498D01*
X154145506Y-74219463D01*
X154048815Y-74298815D01*
X153969463Y-74395506D01*
X153910498Y-74505820D01*
X153874188Y-74625518D01*
X153861928Y-74750000D01*
X153865000Y-75314250D01*
X154023750Y-75473000D01*
X155373000Y-75473000D01*
X155373000Y-75453000D01*
X155627000Y-75453000D01*
X155627000Y-75473000D01*
X156976250Y-75473000D01*
X157135000Y-75314250D01*
X157138072Y-74750000D01*
X157125812Y-74625518D01*
X157089502Y-74505820D01*
X157030537Y-74395506D01*
X156951185Y-74298815D01*
X156854494Y-74219463D01*
X156744180Y-74160498D01*
X156709392Y-74149945D01*
X156890706Y-73929014D01*
X157028599Y-73671034D01*
X157113513Y-73391111D01*
X157142185Y-73100000D01*
X157138863Y-73066269D01*
X159070132Y-71135000D01*
X168582317Y-71135000D01*
X168619463Y-71204494D01*
X168673222Y-71270000D01*
X168619463Y-71335506D01*
X168560498Y-71445820D01*
X168524188Y-71565518D01*
X168511928Y-71690000D01*
X168515000Y-72254250D01*
X168673750Y-72413000D01*
X169873000Y-72413000D01*
X169873000Y-72393000D01*
X170127000Y-72393000D01*
X170127000Y-72413000D01*
X171326250Y-72413000D01*
X171485000Y-72254250D01*
X171488072Y-71690000D01*
X171475812Y-71565518D01*
X171439502Y-71445820D01*
X171380537Y-71335506D01*
X171326778Y-71270000D01*
X171380537Y-71204494D01*
X171439502Y-71094180D01*
X171475812Y-70974482D01*
X171488072Y-70850000D01*
X171488072Y-69150000D01*
X171475812Y-69025518D01*
X171439502Y-68905820D01*
X171380537Y-68795506D01*
X171301185Y-68698815D01*
X171204494Y-68619463D01*
X171094180Y-68560498D01*
X170974482Y-68524188D01*
X170850000Y-68511928D01*
X169150000Y-68511928D01*
X169025518Y-68524188D01*
X168905820Y-68560498D01*
X168795506Y-68619463D01*
X168698815Y-68698815D01*
X168619463Y-68795506D01*
X168582317Y-68865000D01*
X158655751Y-68865000D01*
X158599999Y-68859509D01*
X158544248Y-68865000D01*
X158377501Y-68881423D01*
X158163553Y-68946324D01*
X157966377Y-69051716D01*
X157793551Y-69193551D01*
X157758009Y-69236859D01*
X155379869Y-71615000D01*
X155277050Y-71615000D01*
X155058889Y-71636487D01*
X154778966Y-71721401D01*
X154520986Y-71859294D01*
X154294866Y-72044866D01*
X154109294Y-72270986D01*
X153971401Y-72528966D01*
X153886487Y-72808889D01*
X153857815Y-73100000D01*
X140151579Y-73100000D01*
X139656534Y-72604956D01*
X139628817Y-72571183D01*
X139494059Y-72460589D01*
X139340313Y-72378411D01*
X139173490Y-72327805D01*
X139043477Y-72315000D01*
X139043469Y-72315000D01*
X139000000Y-72310719D01*
X138956531Y-72315000D01*
X133644759Y-72315000D01*
X133505134Y-72144866D01*
X133279014Y-71959294D01*
X133021034Y-71821401D01*
X132741111Y-71736487D01*
X132522950Y-71715000D01*
X132077050Y-71715000D01*
X131858889Y-71736487D01*
X131578966Y-71821401D01*
X131320986Y-71959294D01*
X131094866Y-72144866D01*
X130909294Y-72370986D01*
X130771401Y-72628966D01*
X130686487Y-72908889D01*
X130657815Y-73200000D01*
X130686487Y-73491111D01*
X130771401Y-73771034D01*
X130909294Y-74029014D01*
X131090608Y-74249945D01*
X131055820Y-74260498D01*
X130945506Y-74319463D01*
X130848815Y-74398815D01*
X130769463Y-74495506D01*
X130710498Y-74605820D01*
X130674188Y-74725518D01*
X130661928Y-74850000D01*
X130665000Y-75414250D01*
X130823750Y-75573000D01*
X132173000Y-75573000D01*
X132173000Y-75553000D01*
X132427000Y-75553000D01*
X132427000Y-75573000D01*
X133776250Y-75573000D01*
X133935000Y-75414250D01*
X133938072Y-74850000D01*
X133925812Y-74725518D01*
X133889502Y-74605820D01*
X133830537Y-74495506D01*
X133751185Y-74398815D01*
X133654494Y-74319463D01*
X133544180Y-74260498D01*
X133509392Y-74249945D01*
X133644759Y-74085000D01*
X138633422Y-74085000D01*
X141043470Y-76495049D01*
X141071183Y-76528817D01*
X141104951Y-76556530D01*
X141104953Y-76556532D01*
X141205941Y-76639411D01*
X141359686Y-76721589D01*
X141519274Y-76770000D01*
X141526510Y-76772195D01*
X141656523Y-76785000D01*
X141656531Y-76785000D01*
X141700000Y-76789281D01*
X141743469Y-76785000D01*
X143209043Y-76785000D01*
X143259294Y-76879013D01*
X143444866Y-77105134D01*
X143670986Y-77290706D01*
X143928966Y-77428599D01*
X144208889Y-77513513D01*
X144500000Y-77542185D01*
X144791110Y-77513513D01*
X145071033Y-77428599D01*
X145329013Y-77290706D01*
X145555134Y-77105134D01*
X145607223Y-77041663D01*
X145661595Y-77143386D01*
X145772038Y-77277962D01*
X145906614Y-77388405D01*
X146060150Y-77470472D01*
X146226746Y-77521008D01*
X146400000Y-77538072D01*
X147386494Y-77538072D01*
X149243470Y-79395049D01*
X149271183Y-79428817D01*
X149304951Y-79456530D01*
X149304953Y-79456532D01*
X149376452Y-79515210D01*
X149405941Y-79539411D01*
X149559687Y-79621589D01*
X149726510Y-79672195D01*
X149856523Y-79685000D01*
X149856533Y-79685000D01*
X149899999Y-79689281D01*
X149943465Y-79685000D01*
X160256531Y-79685000D01*
X160300000Y-79689281D01*
X160343469Y-79685000D01*
X160343477Y-79685000D01*
X160473490Y-79672195D01*
X160640313Y-79621589D01*
X160794059Y-79539411D01*
X160928817Y-79428817D01*
X160956534Y-79395044D01*
X164386579Y-75965000D01*
X168515375Y-75965000D01*
X168524188Y-76054482D01*
X168560498Y-76174180D01*
X168619463Y-76284494D01*
X168673222Y-76350000D01*
X168619463Y-76415506D01*
X168560498Y-76525820D01*
X168524188Y-76645518D01*
X168511928Y-76770000D01*
X168511928Y-78470000D01*
X168524188Y-78594482D01*
X168560498Y-78714180D01*
X168619463Y-78824494D01*
X168698815Y-78921185D01*
X168795506Y-79000537D01*
X168865000Y-79037683D01*
X168865001Y-111629867D01*
X153536865Y-126958004D01*
X153493551Y-126993551D01*
X153351716Y-127166377D01*
X153274565Y-127310718D01*
X153246324Y-127363554D01*
X153181423Y-127577502D01*
X153159509Y-127800000D01*
X153165000Y-127855752D01*
X153165001Y-129829867D01*
X146836860Y-136158009D01*
X146793552Y-136193551D01*
X146651717Y-136366377D01*
X146546324Y-136563553D01*
X146502114Y-136709294D01*
X146481423Y-136777502D01*
X146468150Y-136912263D01*
X146438405Y-136856614D01*
X146327962Y-136722038D01*
X146193386Y-136611595D01*
X146039850Y-136529528D01*
X145873254Y-136478992D01*
X145700000Y-136461928D01*
X144500000Y-136461928D01*
X144326746Y-136478992D01*
X144160150Y-136529528D01*
X144006614Y-136611595D01*
X143872038Y-136722038D01*
X143761595Y-136856614D01*
X143679528Y-137010150D01*
X143628992Y-137176746D01*
X143611928Y-137350000D01*
X143611928Y-138850000D01*
X143628992Y-139023254D01*
X143679528Y-139189850D01*
X143761595Y-139343386D01*
X143872038Y-139477962D01*
X144006614Y-139588405D01*
X144149913Y-139665000D01*
X109900133Y-139665000D01*
X103683303Y-133448172D01*
X103646199Y-133261635D01*
X103540664Y-133006851D01*
X103387451Y-132777552D01*
X103192448Y-132582549D01*
X102963149Y-132429336D01*
X102892326Y-132400000D01*
X102963149Y-132370664D01*
X103192448Y-132217451D01*
X103387451Y-132022448D01*
X103540664Y-131793149D01*
X103646199Y-131538365D01*
X103700000Y-131267888D01*
X103700000Y-130992112D01*
X103646199Y-130721635D01*
X103540664Y-130466851D01*
X103387451Y-130237552D01*
X103192448Y-130042549D01*
X102963149Y-129889336D01*
X102892326Y-129860000D01*
X102963149Y-129830664D01*
X103192448Y-129677451D01*
X103387451Y-129482448D01*
X103540664Y-129253149D01*
X103646199Y-128998365D01*
X103700000Y-128727888D01*
X103700000Y-128452112D01*
X103646199Y-128181635D01*
X103540664Y-127926851D01*
X103387451Y-127697552D01*
X103192448Y-127502549D01*
X102963149Y-127349336D01*
X102892326Y-127320000D01*
X102963149Y-127290664D01*
X103192448Y-127137451D01*
X103387451Y-126942448D01*
X103540664Y-126713149D01*
X103646199Y-126458365D01*
X103700000Y-126187888D01*
X103700000Y-125912112D01*
X103646199Y-125641635D01*
X103540664Y-125386851D01*
X103387451Y-125157552D01*
X103192448Y-124962549D01*
X102963149Y-124809336D01*
X102892326Y-124780000D01*
X102963149Y-124750664D01*
X103192448Y-124597451D01*
X103387451Y-124402448D01*
X103540664Y-124173149D01*
X103646199Y-123918365D01*
X103700000Y-123647888D01*
X103700000Y-123372112D01*
X103646199Y-123101635D01*
X103540664Y-122846851D01*
X103387451Y-122617552D01*
X103192448Y-122422549D01*
X102963149Y-122269336D01*
X102898406Y-122242518D01*
X102904072Y-122240478D01*
X103020760Y-122178106D01*
X103088102Y-121937707D01*
X102300000Y-121149605D01*
X101511898Y-121937707D01*
X101579240Y-122178106D01*
X101709336Y-122239312D01*
X101636851Y-122269336D01*
X101407552Y-122422549D01*
X101212549Y-122617552D01*
X101059336Y-122846851D01*
X100953801Y-123101635D01*
X100900000Y-123372112D01*
X100710000Y-123372112D01*
X100710000Y-121041899D01*
X100895064Y-121041899D01*
X100936086Y-121314607D01*
X101029522Y-121574072D01*
X101091894Y-121690760D01*
X101332293Y-121758102D01*
X102120395Y-120970000D01*
X102479605Y-120970000D01*
X103267707Y-121758102D01*
X103508106Y-121690760D01*
X103625506Y-121441220D01*
X103691967Y-121173573D01*
X103704936Y-120898101D01*
X103663914Y-120625393D01*
X103570478Y-120365928D01*
X103508106Y-120249240D01*
X103267707Y-120181898D01*
X102479605Y-120970000D01*
X102120395Y-120970000D01*
X101332293Y-120181898D01*
X101091894Y-120249240D01*
X100974494Y-120498780D01*
X100908033Y-120766427D01*
X100895064Y-121041899D01*
X100710000Y-121041899D01*
X100710000Y-87185000D01*
X100896928Y-87185000D01*
X100896928Y-88715000D01*
X100909188Y-88839482D01*
X100945498Y-88959180D01*
X101004463Y-89069494D01*
X101083815Y-89166185D01*
X101180506Y-89245537D01*
X101290820Y-89304502D01*
X101410518Y-89340812D01*
X101488459Y-89348488D01*
X101407552Y-89402549D01*
X101212549Y-89597552D01*
X101059336Y-89826851D01*
X100953801Y-90081635D01*
X100900000Y-90352112D01*
X100900000Y-90627888D01*
X100953801Y-90898365D01*
X101059336Y-91153149D01*
X101212549Y-91382448D01*
X101407552Y-91577451D01*
X101636851Y-91730664D01*
X101707674Y-91760000D01*
X101636851Y-91789336D01*
X101407552Y-91942549D01*
X101212549Y-92137552D01*
X101059336Y-92366851D01*
X100953801Y-92621635D01*
X100900000Y-92892112D01*
X100900000Y-93167888D01*
X100953801Y-93438365D01*
X101059336Y-93693149D01*
X101212549Y-93922448D01*
X101407552Y-94117451D01*
X101636851Y-94270664D01*
X101707674Y-94300000D01*
X101636851Y-94329336D01*
X101407552Y-94482549D01*
X101212549Y-94677552D01*
X101059336Y-94906851D01*
X100953801Y-95161635D01*
X100900000Y-95432112D01*
X100900000Y-95707888D01*
X100953801Y-95978365D01*
X101059336Y-96233149D01*
X101212549Y-96462448D01*
X101407552Y-96657451D01*
X101636851Y-96810664D01*
X101707674Y-96840000D01*
X101636851Y-96869336D01*
X101407552Y-97022549D01*
X101212549Y-97217552D01*
X101059336Y-97446851D01*
X100953801Y-97701635D01*
X100900000Y-97972112D01*
X100900000Y-98247888D01*
X100953801Y-98518365D01*
X101059336Y-98773149D01*
X101212549Y-99002448D01*
X101407552Y-99197451D01*
X101636851Y-99350664D01*
X101707674Y-99380000D01*
X101636851Y-99409336D01*
X101407552Y-99562549D01*
X101212549Y-99757552D01*
X101059336Y-99986851D01*
X100953801Y-100241635D01*
X100900000Y-100512112D01*
X100900000Y-100787888D01*
X100953801Y-101058365D01*
X101059336Y-101313149D01*
X101212549Y-101542448D01*
X101407552Y-101737451D01*
X101636851Y-101890664D01*
X101707674Y-101920000D01*
X101636851Y-101949336D01*
X101407552Y-102102549D01*
X101212549Y-102297552D01*
X101059336Y-102526851D01*
X100953801Y-102781635D01*
X100900000Y-103052112D01*
X100900000Y-103327888D01*
X100953801Y-103598365D01*
X101059336Y-103853149D01*
X101212549Y-104082448D01*
X101407552Y-104277451D01*
X101636851Y-104430664D01*
X101707674Y-104460000D01*
X101636851Y-104489336D01*
X101407552Y-104642549D01*
X101212549Y-104837552D01*
X101059336Y-105066851D01*
X100953801Y-105321635D01*
X100900000Y-105592112D01*
X100900000Y-105867888D01*
X100953801Y-106138365D01*
X101059336Y-106393149D01*
X101212549Y-106622448D01*
X101407552Y-106817451D01*
X101636851Y-106970664D01*
X101707674Y-107000000D01*
X101636851Y-107029336D01*
X101407552Y-107182549D01*
X101212549Y-107377552D01*
X101059336Y-107606851D01*
X100953801Y-107861635D01*
X100900000Y-108132112D01*
X100900000Y-108407888D01*
X100953801Y-108678365D01*
X101059336Y-108933149D01*
X101212549Y-109162448D01*
X101407552Y-109357451D01*
X101636851Y-109510664D01*
X101707674Y-109540000D01*
X101636851Y-109569336D01*
X101407552Y-109722549D01*
X101212549Y-109917552D01*
X101059336Y-110146851D01*
X100953801Y-110401635D01*
X100900000Y-110672112D01*
X100900000Y-110947888D01*
X100953801Y-111218365D01*
X101059336Y-111473149D01*
X101212549Y-111702448D01*
X101407552Y-111897451D01*
X101636851Y-112050664D01*
X101707674Y-112080000D01*
X101636851Y-112109336D01*
X101407552Y-112262549D01*
X101212549Y-112457552D01*
X101059336Y-112686851D01*
X100953801Y-112941635D01*
X100900000Y-113212112D01*
X100900000Y-113487888D01*
X100953801Y-113758365D01*
X101059336Y-114013149D01*
X101212549Y-114242448D01*
X101407552Y-114437451D01*
X101636851Y-114590664D01*
X101707674Y-114620000D01*
X101636851Y-114649336D01*
X101407552Y-114802549D01*
X101212549Y-114997552D01*
X101059336Y-115226851D01*
X100953801Y-115481635D01*
X100900000Y-115752112D01*
X100900000Y-116027888D01*
X100953801Y-116298365D01*
X101059336Y-116553149D01*
X101212549Y-116782448D01*
X101407552Y-116977451D01*
X101636851Y-117130664D01*
X101707674Y-117160000D01*
X101636851Y-117189336D01*
X101407552Y-117342549D01*
X101212549Y-117537552D01*
X101059336Y-117766851D01*
X100953801Y-118021635D01*
X100900000Y-118292112D01*
X100900000Y-118567888D01*
X100953801Y-118838365D01*
X101059336Y-119093149D01*
X101212549Y-119322448D01*
X101407552Y-119517451D01*
X101636851Y-119670664D01*
X101701594Y-119697482D01*
X101695928Y-119699522D01*
X101579240Y-119761894D01*
X101511898Y-120002293D01*
X102300000Y-120790395D01*
X103088102Y-120002293D01*
X103020760Y-119761894D01*
X102890664Y-119700688D01*
X102963149Y-119670664D01*
X103192448Y-119517451D01*
X103387451Y-119322448D01*
X103540664Y-119093149D01*
X103646199Y-118838365D01*
X103700000Y-118567888D01*
X103700000Y-118292112D01*
X103646199Y-118021635D01*
X103540664Y-117766851D01*
X103387451Y-117537552D01*
X103192448Y-117342549D01*
X102963149Y-117189336D01*
X102892326Y-117160000D01*
X102963149Y-117130664D01*
X103192448Y-116977451D01*
X103387451Y-116782448D01*
X103540664Y-116553149D01*
X103646199Y-116298365D01*
X103700000Y-116027888D01*
X103700000Y-115752112D01*
X103646199Y-115481635D01*
X103540664Y-115226851D01*
X103387451Y-114997552D01*
X103192448Y-114802549D01*
X102963149Y-114649336D01*
X102892326Y-114620000D01*
X102963149Y-114590664D01*
X103192448Y-114437451D01*
X103387451Y-114242448D01*
X103540664Y-114013149D01*
X103646199Y-113758365D01*
X103700000Y-113487888D01*
X103700000Y-113212112D01*
X103646199Y-112941635D01*
X103540664Y-112686851D01*
X103387451Y-112457552D01*
X103192448Y-112262549D01*
X102963149Y-112109336D01*
X102892326Y-112080000D01*
X102963149Y-112050664D01*
X103192448Y-111897451D01*
X103387451Y-111702448D01*
X103540664Y-111473149D01*
X103646199Y-111218365D01*
X103700000Y-110947888D01*
X103700000Y-110672112D01*
X103646199Y-110401635D01*
X103540664Y-110146851D01*
X103387451Y-109917552D01*
X103192448Y-109722549D01*
X102963149Y-109569336D01*
X102892326Y-109540000D01*
X102963149Y-109510664D01*
X103192448Y-109357451D01*
X103387451Y-109162448D01*
X103540664Y-108933149D01*
X103646199Y-108678365D01*
X103700000Y-108407888D01*
X103700000Y-108132112D01*
X103646199Y-107861635D01*
X103540664Y-107606851D01*
X103387451Y-107377552D01*
X103192448Y-107182549D01*
X102963149Y-107029336D01*
X102892326Y-107000000D01*
X102963149Y-106970664D01*
X103192448Y-106817451D01*
X103387451Y-106622448D01*
X103540664Y-106393149D01*
X103646199Y-106138365D01*
X103700000Y-105867888D01*
X103700000Y-105592112D01*
X103646199Y-105321635D01*
X103540664Y-105066851D01*
X103387451Y-104837552D01*
X103192448Y-104642549D01*
X102963149Y-104489336D01*
X102892326Y-104460000D01*
X102963149Y-104430664D01*
X103192448Y-104277451D01*
X103387451Y-104082448D01*
X103540664Y-103853149D01*
X103646199Y-103598365D01*
X103700000Y-103327888D01*
X103700000Y-103052112D01*
X103646199Y-102781635D01*
X103540664Y-102526851D01*
X103387451Y-102297552D01*
X103192448Y-102102549D01*
X102963149Y-101949336D01*
X102892326Y-101920000D01*
X102963149Y-101890664D01*
X103192448Y-101737451D01*
X103387451Y-101542448D01*
X103540664Y-101313149D01*
X103646199Y-101058365D01*
X103700000Y-100787888D01*
X103700000Y-100512112D01*
X103646199Y-100241635D01*
X103540664Y-99986851D01*
X103387451Y-99757552D01*
X103192448Y-99562549D01*
X102963149Y-99409336D01*
X102892326Y-99380000D01*
X102963149Y-99350664D01*
X103192448Y-99197451D01*
X103387451Y-99002448D01*
X103540664Y-98773149D01*
X103646199Y-98518365D01*
X103700000Y-98247888D01*
X103700000Y-97972112D01*
X103646199Y-97701635D01*
X103540664Y-97446851D01*
X103387451Y-97217552D01*
X103192448Y-97022549D01*
X102963149Y-96869336D01*
X102892326Y-96840000D01*
X102963149Y-96810664D01*
X103192448Y-96657451D01*
X103387451Y-96462448D01*
X103540664Y-96233149D01*
X103646199Y-95978365D01*
X103700000Y-95707888D01*
X103700000Y-95432112D01*
X103646199Y-95161635D01*
X103540664Y-94906851D01*
X103387451Y-94677552D01*
X103192448Y-94482549D01*
X102963149Y-94329336D01*
X102892326Y-94300000D01*
X102963149Y-94270664D01*
X103192448Y-94117451D01*
X103387451Y-93922448D01*
X103540664Y-93693149D01*
X103646199Y-93438365D01*
X103700000Y-93167888D01*
X103700000Y-92892112D01*
X103646199Y-92621635D01*
X103540664Y-92366851D01*
X103387451Y-92137552D01*
X103192448Y-91942549D01*
X102963149Y-91789336D01*
X102892326Y-91760000D01*
X102963149Y-91730664D01*
X103192448Y-91577451D01*
X103387451Y-91382448D01*
X103540664Y-91153149D01*
X103646199Y-90898365D01*
X103700000Y-90627888D01*
X103700000Y-90352112D01*
X126300000Y-90352112D01*
X126300000Y-90627888D01*
X126353801Y-90898365D01*
X126459336Y-91153149D01*
X126612549Y-91382448D01*
X126807552Y-91577451D01*
X127036851Y-91730664D01*
X127107674Y-91760000D01*
X127036851Y-91789336D01*
X126807552Y-91942549D01*
X126612549Y-92137552D01*
X126459336Y-92366851D01*
X126353801Y-92621635D01*
X126300000Y-92892112D01*
X126300000Y-93167888D01*
X126353801Y-93438365D01*
X126459336Y-93693149D01*
X126612549Y-93922448D01*
X126807552Y-94117451D01*
X127036851Y-94270664D01*
X127107674Y-94300000D01*
X127036851Y-94329336D01*
X126807552Y-94482549D01*
X126612549Y-94677552D01*
X126459336Y-94906851D01*
X126353801Y-95161635D01*
X126300000Y-95432112D01*
X126300000Y-95707888D01*
X126353801Y-95978365D01*
X126459336Y-96233149D01*
X126612549Y-96462448D01*
X126807552Y-96657451D01*
X127036851Y-96810664D01*
X127107674Y-96840000D01*
X127036851Y-96869336D01*
X126807552Y-97022549D01*
X126612549Y-97217552D01*
X126459336Y-97446851D01*
X126353801Y-97701635D01*
X126300000Y-97972112D01*
X126300000Y-98247888D01*
X126353801Y-98518365D01*
X126459336Y-98773149D01*
X126612549Y-99002448D01*
X126807552Y-99197451D01*
X127036851Y-99350664D01*
X127107674Y-99380000D01*
X127036851Y-99409336D01*
X126807552Y-99562549D01*
X126612549Y-99757552D01*
X126459336Y-99986851D01*
X126353801Y-100241635D01*
X126300000Y-100512112D01*
X126300000Y-100787888D01*
X126353801Y-101058365D01*
X126459336Y-101313149D01*
X126612549Y-101542448D01*
X126807552Y-101737451D01*
X127036851Y-101890664D01*
X127107674Y-101920000D01*
X127036851Y-101949336D01*
X126807552Y-102102549D01*
X126612549Y-102297552D01*
X126459336Y-102526851D01*
X126353801Y-102781635D01*
X126300000Y-103052112D01*
X126300000Y-103327888D01*
X126353801Y-103598365D01*
X126459336Y-103853149D01*
X126612549Y-104082448D01*
X126807552Y-104277451D01*
X127036851Y-104430664D01*
X127107674Y-104460000D01*
X127036851Y-104489336D01*
X126807552Y-104642549D01*
X126612549Y-104837552D01*
X126459336Y-105066851D01*
X126353801Y-105321635D01*
X126300000Y-105592112D01*
X126300000Y-105867888D01*
X126353801Y-106138365D01*
X126459336Y-106393149D01*
X126612549Y-106622448D01*
X126807552Y-106817451D01*
X127036851Y-106970664D01*
X127107674Y-107000000D01*
X127036851Y-107029336D01*
X126807552Y-107182549D01*
X126612549Y-107377552D01*
X126459336Y-107606851D01*
X126353801Y-107861635D01*
X126300000Y-108132112D01*
X126300000Y-108407888D01*
X126353801Y-108678365D01*
X126459336Y-108933149D01*
X126612549Y-109162448D01*
X126807552Y-109357451D01*
X127036851Y-109510664D01*
X127107674Y-109540000D01*
X127036851Y-109569336D01*
X126807552Y-109722549D01*
X126612549Y-109917552D01*
X126459336Y-110146851D01*
X126353801Y-110401635D01*
X126300000Y-110672112D01*
X126300000Y-110947888D01*
X126353801Y-111218365D01*
X126459336Y-111473149D01*
X126612549Y-111702448D01*
X126807552Y-111897451D01*
X127036851Y-112050664D01*
X127107674Y-112080000D01*
X127036851Y-112109336D01*
X126807552Y-112262549D01*
X126612549Y-112457552D01*
X126459336Y-112686851D01*
X126353801Y-112941635D01*
X126300000Y-113212112D01*
X126300000Y-113487888D01*
X126353801Y-113758365D01*
X126459336Y-114013149D01*
X126612549Y-114242448D01*
X126807552Y-114437451D01*
X127036851Y-114590664D01*
X127107674Y-114620000D01*
X127036851Y-114649336D01*
X126807552Y-114802549D01*
X126612549Y-114997552D01*
X126459336Y-115226851D01*
X126353801Y-115481635D01*
X126300000Y-115752112D01*
X126300000Y-116027888D01*
X126353801Y-116298365D01*
X126459336Y-116553149D01*
X126612549Y-116782448D01*
X126807552Y-116977451D01*
X127036851Y-117130664D01*
X127107674Y-117160000D01*
X127036851Y-117189336D01*
X126807552Y-117342549D01*
X126612549Y-117537552D01*
X126459336Y-117766851D01*
X126353801Y-118021635D01*
X126300000Y-118292112D01*
X126300000Y-118567888D01*
X126353801Y-118838365D01*
X126459336Y-119093149D01*
X126612549Y-119322448D01*
X126807552Y-119517451D01*
X127036851Y-119670664D01*
X127107674Y-119700000D01*
X127036851Y-119729336D01*
X126807552Y-119882549D01*
X126612549Y-120077552D01*
X126459336Y-120306851D01*
X126353801Y-120561635D01*
X126300000Y-120832112D01*
X126300000Y-121107888D01*
X126353801Y-121378365D01*
X126459336Y-121633149D01*
X126612549Y-121862448D01*
X126807552Y-122057451D01*
X127036851Y-122210664D01*
X127107674Y-122240000D01*
X127036851Y-122269336D01*
X126807552Y-122422549D01*
X126612549Y-122617552D01*
X126459336Y-122846851D01*
X126353801Y-123101635D01*
X126300000Y-123372112D01*
X126300000Y-123647888D01*
X126353801Y-123918365D01*
X126459336Y-124173149D01*
X126612549Y-124402448D01*
X126807552Y-124597451D01*
X127036851Y-124750664D01*
X127107674Y-124780000D01*
X127036851Y-124809336D01*
X126807552Y-124962549D01*
X126612549Y-125157552D01*
X126459336Y-125386851D01*
X126353801Y-125641635D01*
X126300000Y-125912112D01*
X126300000Y-126187888D01*
X126353801Y-126458365D01*
X126459336Y-126713149D01*
X126612549Y-126942448D01*
X126807552Y-127137451D01*
X127036851Y-127290664D01*
X127107674Y-127320000D01*
X127036851Y-127349336D01*
X126807552Y-127502549D01*
X126612549Y-127697552D01*
X126459336Y-127926851D01*
X126353801Y-128181635D01*
X126300000Y-128452112D01*
X126300000Y-128727888D01*
X126353801Y-128998365D01*
X126459336Y-129253149D01*
X126612549Y-129482448D01*
X126807552Y-129677451D01*
X127036851Y-129830664D01*
X127107674Y-129860000D01*
X127036851Y-129889336D01*
X126807552Y-130042549D01*
X126612549Y-130237552D01*
X126459336Y-130466851D01*
X126353801Y-130721635D01*
X126300000Y-130992112D01*
X126300000Y-131267888D01*
X126353801Y-131538365D01*
X126459336Y-131793149D01*
X126612549Y-132022448D01*
X126807552Y-132217451D01*
X127036851Y-132370664D01*
X127107674Y-132400000D01*
X127036851Y-132429336D01*
X126807552Y-132582549D01*
X126612549Y-132777552D01*
X126459336Y-133006851D01*
X126353801Y-133261635D01*
X126300000Y-133532112D01*
X126300000Y-133807888D01*
X126353801Y-134078365D01*
X126459336Y-134333149D01*
X126612549Y-134562448D01*
X126807552Y-134757451D01*
X127036851Y-134910664D01*
X127291635Y-135016199D01*
X127562112Y-135070000D01*
X127837888Y-135070000D01*
X128108365Y-135016199D01*
X128363149Y-134910664D01*
X128592448Y-134757451D01*
X128787451Y-134562448D01*
X128940664Y-134333149D01*
X129046199Y-134078365D01*
X129100000Y-133807888D01*
X129100000Y-133532112D01*
X129046199Y-133261635D01*
X128940664Y-133006851D01*
X128787451Y-132777552D01*
X128592448Y-132582549D01*
X128363149Y-132429336D01*
X128292326Y-132400000D01*
X128363149Y-132370664D01*
X128592448Y-132217451D01*
X128787451Y-132022448D01*
X128940664Y-131793149D01*
X129046199Y-131538365D01*
X129100000Y-131267888D01*
X129100000Y-131200000D01*
X143611928Y-131200000D01*
X143624188Y-131324482D01*
X143660498Y-131444180D01*
X143719463Y-131554494D01*
X143798815Y-131651185D01*
X143895506Y-131730537D01*
X144005820Y-131789502D01*
X144125518Y-131825812D01*
X144250000Y-131838072D01*
X144814250Y-131835000D01*
X144973000Y-131676250D01*
X144973000Y-130327000D01*
X143773750Y-130327000D01*
X143615000Y-130485750D01*
X143611928Y-131200000D01*
X129100000Y-131200000D01*
X129100000Y-130992112D01*
X129046199Y-130721635D01*
X128940664Y-130466851D01*
X128787451Y-130237552D01*
X128592448Y-130042549D01*
X128363149Y-129889336D01*
X128292326Y-129860000D01*
X128363149Y-129830664D01*
X128592448Y-129677451D01*
X128787451Y-129482448D01*
X128940664Y-129253149D01*
X128962679Y-129200000D01*
X143611928Y-129200000D01*
X143615000Y-129914250D01*
X143773750Y-130073000D01*
X144973000Y-130073000D01*
X144973000Y-128723750D01*
X144814250Y-128565000D01*
X144250000Y-128561928D01*
X144125518Y-128574188D01*
X144005820Y-128610498D01*
X143895506Y-128669463D01*
X143798815Y-128748815D01*
X143719463Y-128845506D01*
X143660498Y-128955820D01*
X143624188Y-129075518D01*
X143611928Y-129200000D01*
X128962679Y-129200000D01*
X129046199Y-128998365D01*
X129100000Y-128727888D01*
X129100000Y-128452112D01*
X129046199Y-128181635D01*
X128940664Y-127926851D01*
X128787451Y-127697552D01*
X128592448Y-127502549D01*
X128363149Y-127349336D01*
X128292326Y-127320000D01*
X128363149Y-127290664D01*
X128592448Y-127137451D01*
X128787451Y-126942448D01*
X128940664Y-126713149D01*
X129046199Y-126458365D01*
X129100000Y-126187888D01*
X129100000Y-125912112D01*
X129046199Y-125641635D01*
X128940664Y-125386851D01*
X128787451Y-125157552D01*
X128592448Y-124962549D01*
X128363149Y-124809336D01*
X128292326Y-124780000D01*
X128363149Y-124750664D01*
X128592448Y-124597451D01*
X128787451Y-124402448D01*
X128940664Y-124173149D01*
X129046199Y-123918365D01*
X129100000Y-123647888D01*
X129100000Y-123372112D01*
X129046199Y-123101635D01*
X128940664Y-122846851D01*
X128787451Y-122617552D01*
X128592448Y-122422549D01*
X128363149Y-122269336D01*
X128292326Y-122240000D01*
X128363149Y-122210664D01*
X128592448Y-122057451D01*
X128787451Y-121862448D01*
X128940664Y-121633149D01*
X129046199Y-121378365D01*
X129100000Y-121107888D01*
X129100000Y-120832112D01*
X129046199Y-120561635D01*
X128940664Y-120306851D01*
X128787451Y-120077552D01*
X128592448Y-119882549D01*
X128363149Y-119729336D01*
X128292326Y-119700000D01*
X128363149Y-119670664D01*
X128592448Y-119517451D01*
X128787451Y-119322448D01*
X128940664Y-119093149D01*
X129046199Y-118838365D01*
X129100000Y-118567888D01*
X129100000Y-118292112D01*
X129046199Y-118021635D01*
X128940664Y-117766851D01*
X128787451Y-117537552D01*
X128592448Y-117342549D01*
X128363149Y-117189336D01*
X128292326Y-117160000D01*
X128363149Y-117130664D01*
X128592448Y-116977451D01*
X128787451Y-116782448D01*
X128940664Y-116553149D01*
X129046199Y-116298365D01*
X129100000Y-116027888D01*
X129100000Y-115752112D01*
X129046199Y-115481635D01*
X128940664Y-115226851D01*
X128787451Y-114997552D01*
X128592448Y-114802549D01*
X128363149Y-114649336D01*
X128292326Y-114620000D01*
X128363149Y-114590664D01*
X128592448Y-114437451D01*
X128787451Y-114242448D01*
X128940664Y-114013149D01*
X129046199Y-113758365D01*
X129100000Y-113487888D01*
X129100000Y-113212112D01*
X129046199Y-112941635D01*
X128940664Y-112686851D01*
X128787451Y-112457552D01*
X128592448Y-112262549D01*
X128363149Y-112109336D01*
X128292326Y-112080000D01*
X128363149Y-112050664D01*
X128592448Y-111897451D01*
X128787451Y-111702448D01*
X128792428Y-111695000D01*
X129843422Y-111695000D01*
X146715001Y-128566580D01*
X146715001Y-128855240D01*
X146550055Y-128990608D01*
X146539502Y-128955820D01*
X146480537Y-128845506D01*
X146401185Y-128748815D01*
X146304494Y-128669463D01*
X146194180Y-128610498D01*
X146074482Y-128574188D01*
X145950000Y-128561928D01*
X145385750Y-128565000D01*
X145227000Y-128723750D01*
X145227000Y-130073000D01*
X145247000Y-130073000D01*
X145247000Y-130327000D01*
X145227000Y-130327000D01*
X145227000Y-131676250D01*
X145385750Y-131835000D01*
X145950000Y-131838072D01*
X146074482Y-131825812D01*
X146194180Y-131789502D01*
X146304494Y-131730537D01*
X146401185Y-131651185D01*
X146480537Y-131554494D01*
X146539502Y-131444180D01*
X146550055Y-131409392D01*
X146770987Y-131590706D01*
X147028967Y-131728599D01*
X147308890Y-131813513D01*
X147600000Y-131842185D01*
X147891111Y-131813513D01*
X148171034Y-131728599D01*
X148429014Y-131590706D01*
X148655134Y-131405134D01*
X148840706Y-131179014D01*
X148978599Y-130921033D01*
X149063513Y-130641110D01*
X149085000Y-130422949D01*
X149085000Y-129977050D01*
X149063513Y-129758889D01*
X148978599Y-129478966D01*
X148840706Y-129220986D01*
X148655134Y-128994866D01*
X148485000Y-128855241D01*
X148485000Y-128243469D01*
X148489281Y-128200000D01*
X148485000Y-128156531D01*
X148485000Y-128156523D01*
X148472195Y-128026510D01*
X148421589Y-127859687D01*
X148339411Y-127705941D01*
X148228817Y-127571183D01*
X148195049Y-127543470D01*
X130866534Y-110214956D01*
X130838817Y-110181183D01*
X130704059Y-110070589D01*
X130550313Y-109988411D01*
X130383490Y-109937805D01*
X130253477Y-109925000D01*
X130253469Y-109925000D01*
X130210000Y-109920719D01*
X130166531Y-109925000D01*
X128792428Y-109925000D01*
X128787451Y-109917552D01*
X128592448Y-109722549D01*
X128363149Y-109569336D01*
X128292326Y-109540000D01*
X128363149Y-109510664D01*
X128592448Y-109357451D01*
X128787451Y-109162448D01*
X128940664Y-108933149D01*
X129046199Y-108678365D01*
X129100000Y-108407888D01*
X129100000Y-108132112D01*
X129046199Y-107861635D01*
X128940664Y-107606851D01*
X128787451Y-107377552D01*
X128592448Y-107182549D01*
X128363149Y-107029336D01*
X128292326Y-107000000D01*
X128363149Y-106970664D01*
X128592448Y-106817451D01*
X128787451Y-106622448D01*
X128940664Y-106393149D01*
X129046199Y-106138365D01*
X129100000Y-105867888D01*
X129100000Y-105592112D01*
X129046199Y-105321635D01*
X128940664Y-105066851D01*
X128787451Y-104837552D01*
X128592448Y-104642549D01*
X128363149Y-104489336D01*
X128292326Y-104460000D01*
X128363149Y-104430664D01*
X128592448Y-104277451D01*
X128625591Y-104244308D01*
X136543654Y-104244308D01*
X136543654Y-105755692D01*
X136712875Y-107257573D01*
X137049190Y-108731064D01*
X137548368Y-110157635D01*
X138204133Y-111519345D01*
X139008238Y-112799071D01*
X139950571Y-113980719D01*
X141019281Y-115049429D01*
X142200929Y-115991762D01*
X143480655Y-116795867D01*
X144842365Y-117451632D01*
X146268936Y-117950810D01*
X147742427Y-118287125D01*
X149244308Y-118456346D01*
X150755692Y-118456346D01*
X152257573Y-118287125D01*
X153731064Y-117950810D01*
X155157635Y-117451632D01*
X156519345Y-116795867D01*
X157799071Y-115991762D01*
X158980719Y-115049429D01*
X160049429Y-113980719D01*
X160991762Y-112799071D01*
X161795867Y-111519345D01*
X162451632Y-110157635D01*
X162950810Y-108731064D01*
X163287125Y-107257573D01*
X163456346Y-105755692D01*
X163456346Y-104244308D01*
X163287125Y-102742427D01*
X162950810Y-101268936D01*
X162451632Y-99842365D01*
X161795867Y-98480655D01*
X160991762Y-97200929D01*
X160049429Y-96019281D01*
X158980719Y-94950571D01*
X157799071Y-94008238D01*
X156519345Y-93204133D01*
X155157635Y-92548368D01*
X153731064Y-92049190D01*
X152257573Y-91712875D01*
X150755692Y-91543654D01*
X149244308Y-91543654D01*
X147742427Y-91712875D01*
X146268936Y-92049190D01*
X144842365Y-92548368D01*
X143480655Y-93204133D01*
X142200929Y-94008238D01*
X141019281Y-94950571D01*
X139950571Y-96019281D01*
X139008238Y-97200929D01*
X138204133Y-98480655D01*
X137548368Y-99842365D01*
X137049190Y-101268936D01*
X136712875Y-102742427D01*
X136543654Y-104244308D01*
X128625591Y-104244308D01*
X128787451Y-104082448D01*
X128940664Y-103853149D01*
X129046199Y-103598365D01*
X129100000Y-103327888D01*
X129100000Y-103052112D01*
X129046199Y-102781635D01*
X128940664Y-102526851D01*
X128787451Y-102297552D01*
X128592448Y-102102549D01*
X128363149Y-101949336D01*
X128292326Y-101920000D01*
X128363149Y-101890664D01*
X128592448Y-101737451D01*
X128787451Y-101542448D01*
X128940664Y-101313149D01*
X129046199Y-101058365D01*
X129100000Y-100787888D01*
X129100000Y-100512112D01*
X129046199Y-100241635D01*
X128940664Y-99986851D01*
X128787451Y-99757552D01*
X128592448Y-99562549D01*
X128363149Y-99409336D01*
X128292326Y-99380000D01*
X128363149Y-99350664D01*
X128592448Y-99197451D01*
X128787451Y-99002448D01*
X128940664Y-98773149D01*
X129046199Y-98518365D01*
X129100000Y-98247888D01*
X129100000Y-97972112D01*
X129046199Y-97701635D01*
X128940664Y-97446851D01*
X128787451Y-97217552D01*
X128592448Y-97022549D01*
X128363149Y-96869336D01*
X128292326Y-96840000D01*
X128363149Y-96810664D01*
X128592448Y-96657451D01*
X128787451Y-96462448D01*
X128940664Y-96233149D01*
X129046199Y-95978365D01*
X129100000Y-95707888D01*
X129100000Y-95432112D01*
X129046199Y-95161635D01*
X128940664Y-94906851D01*
X128787451Y-94677552D01*
X128592448Y-94482549D01*
X128363149Y-94329336D01*
X128292326Y-94300000D01*
X128363149Y-94270664D01*
X128592448Y-94117451D01*
X128787451Y-93922448D01*
X128940664Y-93693149D01*
X129046199Y-93438365D01*
X129100000Y-93167888D01*
X129100000Y-92892112D01*
X129046199Y-92621635D01*
X128940664Y-92366851D01*
X128787451Y-92137552D01*
X128592448Y-91942549D01*
X128363149Y-91789336D01*
X128292326Y-91760000D01*
X128363149Y-91730664D01*
X128592448Y-91577451D01*
X128787451Y-91382448D01*
X128940664Y-91153149D01*
X129046199Y-90898365D01*
X129100000Y-90627888D01*
X129100000Y-90352112D01*
X129046199Y-90081635D01*
X128940664Y-89826851D01*
X128787451Y-89597552D01*
X128592448Y-89402549D01*
X128363149Y-89249336D01*
X128298406Y-89222518D01*
X128304072Y-89220478D01*
X128420760Y-89158106D01*
X128488102Y-88917707D01*
X127700000Y-88129605D01*
X126911898Y-88917707D01*
X126979240Y-89158106D01*
X127109336Y-89219312D01*
X127036851Y-89249336D01*
X126807552Y-89402549D01*
X126612549Y-89597552D01*
X126459336Y-89826851D01*
X126353801Y-90081635D01*
X126300000Y-90352112D01*
X103700000Y-90352112D01*
X103646199Y-90081635D01*
X103540664Y-89826851D01*
X103387451Y-89597552D01*
X103192448Y-89402549D01*
X103111541Y-89348488D01*
X103189482Y-89340812D01*
X103309180Y-89304502D01*
X103419494Y-89245537D01*
X103516185Y-89166185D01*
X103595537Y-89069494D01*
X103654502Y-88959180D01*
X103690812Y-88839482D01*
X103703072Y-88715000D01*
X103703072Y-88021899D01*
X126295064Y-88021899D01*
X126336086Y-88294607D01*
X126429522Y-88554072D01*
X126491894Y-88670760D01*
X126732293Y-88738102D01*
X127520395Y-87950000D01*
X127879605Y-87950000D01*
X128667707Y-88738102D01*
X128908106Y-88670760D01*
X129025506Y-88421220D01*
X129091967Y-88153573D01*
X129104936Y-87878101D01*
X129063914Y-87605393D01*
X128970478Y-87345928D01*
X128908106Y-87229240D01*
X128667707Y-87161898D01*
X127879605Y-87950000D01*
X127520395Y-87950000D01*
X126732293Y-87161898D01*
X126491894Y-87229240D01*
X126374494Y-87478780D01*
X126308033Y-87746427D01*
X126295064Y-88021899D01*
X103703072Y-88021899D01*
X103703072Y-87185000D01*
X103690812Y-87060518D01*
X103667083Y-86982293D01*
X126911898Y-86982293D01*
X127700000Y-87770395D01*
X128488102Y-86982293D01*
X128420760Y-86741894D01*
X128171220Y-86624494D01*
X127903573Y-86558033D01*
X127628101Y-86545064D01*
X127355393Y-86586086D01*
X127095928Y-86679522D01*
X126979240Y-86741894D01*
X126911898Y-86982293D01*
X103667083Y-86982293D01*
X103654502Y-86940820D01*
X103595537Y-86830506D01*
X103516185Y-86733815D01*
X103419494Y-86654463D01*
X103309180Y-86595498D01*
X103189482Y-86559188D01*
X103065000Y-86546928D01*
X101535000Y-86546928D01*
X101410518Y-86559188D01*
X101290820Y-86595498D01*
X101180506Y-86654463D01*
X101083815Y-86733815D01*
X101004463Y-86830506D01*
X100945498Y-86940820D01*
X100909188Y-87060518D01*
X100896928Y-87185000D01*
X100710000Y-87185000D01*
X100710000Y-76550000D01*
X130661928Y-76550000D01*
X130674188Y-76674482D01*
X130710498Y-76794180D01*
X130769463Y-76904494D01*
X130848815Y-77001185D01*
X130945506Y-77080537D01*
X131055820Y-77139502D01*
X131175518Y-77175812D01*
X131300000Y-77188072D01*
X132014250Y-77185000D01*
X132173000Y-77026250D01*
X132173000Y-75827000D01*
X132427000Y-75827000D01*
X132427000Y-77026250D01*
X132585750Y-77185000D01*
X133300000Y-77188072D01*
X133424482Y-77175812D01*
X133544180Y-77139502D01*
X133654494Y-77080537D01*
X133751185Y-77001185D01*
X133830537Y-76904494D01*
X133889502Y-76794180D01*
X133925812Y-76674482D01*
X133938072Y-76550000D01*
X133935000Y-75985750D01*
X133776250Y-75827000D01*
X132427000Y-75827000D01*
X132173000Y-75827000D01*
X130823750Y-75827000D01*
X130665000Y-75985750D01*
X130661928Y-76550000D01*
X100710000Y-76550000D01*
X100710000Y-72700881D01*
X102478724Y-72700881D01*
X102838912Y-73190548D01*
X103502882Y-73550849D01*
X104224385Y-73774694D01*
X104975695Y-73853480D01*
X105727938Y-73784178D01*
X106452208Y-73569452D01*
X107120670Y-73217555D01*
X107161088Y-73190548D01*
X107521276Y-72700881D01*
X105000000Y-70179605D01*
X102478724Y-72700881D01*
X100710000Y-72700881D01*
X100710000Y-70031618D01*
X100714991Y-69975695D01*
X101146520Y-69975695D01*
X101215822Y-70727938D01*
X101430548Y-71452208D01*
X101782445Y-72120670D01*
X101809452Y-72161088D01*
X102299119Y-72521276D01*
X104820395Y-70000000D01*
X105179605Y-70000000D01*
X107700881Y-72521276D01*
X108190548Y-72161088D01*
X108550849Y-71497118D01*
X108774694Y-70775615D01*
X108853480Y-70024305D01*
X108784178Y-69272062D01*
X108569452Y-68547792D01*
X108217555Y-67879330D01*
X108190548Y-67838912D01*
X107700881Y-67478724D01*
X105179605Y-70000000D01*
X104820395Y-70000000D01*
X102299119Y-67478724D01*
X101809452Y-67838912D01*
X101449151Y-68502882D01*
X101225306Y-69224385D01*
X101146520Y-69975695D01*
X100714991Y-69975695D01*
X100780578Y-69240808D01*
X100981705Y-68505611D01*
X101309846Y-67817649D01*
X101682447Y-67299119D01*
X102478724Y-67299119D01*
X105000000Y-69820395D01*
X107521276Y-67299119D01*
X107161088Y-66809452D01*
X106497118Y-66449151D01*
X105775615Y-66225306D01*
X105024305Y-66146520D01*
X104272062Y-66215822D01*
X103547792Y-66430548D01*
X102879330Y-66782445D01*
X102838912Y-66809452D01*
X102478724Y-67299119D01*
X101682447Y-67299119D01*
X101754628Y-67198669D01*
X102301988Y-66668239D01*
X102934639Y-66243116D01*
X103632561Y-65936749D01*
X104379183Y-65757501D01*
X105026030Y-65710000D01*
X194968382Y-65710000D01*
X195759192Y-65780578D01*
G37*
X195759192Y-65780578D02*
X196494389Y-65981705D01*
X197182351Y-66309846D01*
X197801331Y-66754628D01*
X198331761Y-67301988D01*
X198756884Y-67934639D01*
X199063251Y-68632561D01*
X199242499Y-69379183D01*
X199290000Y-70026030D01*
X199290001Y-139968370D01*
X199219422Y-140759193D01*
X199018295Y-141494389D01*
X198690152Y-142182355D01*
X198245374Y-142801328D01*
X197698012Y-143331761D01*
X197065362Y-143756883D01*
X196367439Y-144063251D01*
X195620819Y-144242499D01*
X194973970Y-144290000D01*
X105031618Y-144290000D01*
X104240807Y-144219422D01*
X103505611Y-144018295D01*
X102817645Y-143690152D01*
X102198672Y-143245374D01*
X101668239Y-142698012D01*
X101243117Y-142065362D01*
X100936749Y-141367439D01*
X100757501Y-140620819D01*
X100710000Y-139973970D01*
X100710000Y-123372112D01*
X100900000Y-123372112D01*
X100900000Y-123647888D01*
X100953801Y-123918365D01*
X101059336Y-124173149D01*
X101212549Y-124402448D01*
X101407552Y-124597451D01*
X101636851Y-124750664D01*
X101707674Y-124780000D01*
X101636851Y-124809336D01*
X101407552Y-124962549D01*
X101212549Y-125157552D01*
X101059336Y-125386851D01*
X100953801Y-125641635D01*
X100900000Y-125912112D01*
X100900000Y-126187888D01*
X100953801Y-126458365D01*
X101059336Y-126713149D01*
X101212549Y-126942448D01*
X101407552Y-127137451D01*
X101636851Y-127290664D01*
X101707674Y-127320000D01*
X101636851Y-127349336D01*
X101407552Y-127502549D01*
X101212549Y-127697552D01*
X101059336Y-127926851D01*
X100953801Y-128181635D01*
X100900000Y-128452112D01*
X100900000Y-128727888D01*
X100953801Y-128998365D01*
X101059336Y-129253149D01*
X101212549Y-129482448D01*
X101407552Y-129677451D01*
X101636851Y-129830664D01*
X101707674Y-129860000D01*
X101636851Y-129889336D01*
X101407552Y-130042549D01*
X101212549Y-130237552D01*
X101059336Y-130466851D01*
X100953801Y-130721635D01*
X100900000Y-130992112D01*
X100900000Y-131267888D01*
X100953801Y-131538365D01*
X101059336Y-131793149D01*
X101212549Y-132022448D01*
X101407552Y-132217451D01*
X101636851Y-132370664D01*
X101707674Y-132400000D01*
X101636851Y-132429336D01*
X101407552Y-132582549D01*
X101212549Y-132777552D01*
X101059336Y-133006851D01*
X100953801Y-133261635D01*
X100900000Y-133532112D01*
X100900000Y-133807888D01*
X100953801Y-134078365D01*
X101059336Y-134333149D01*
X101212549Y-134562448D01*
X101407552Y-134757451D01*
X101636851Y-134910664D01*
X101891635Y-135016199D01*
X102078172Y-135053303D01*
X108588013Y-141563146D01*
X108623551Y-141606449D01*
X108666854Y-141641987D01*
X108666856Y-141641989D01*
X108796377Y-141748284D01*
X108993553Y-141853676D01*
X109207501Y-141918577D01*
X109430000Y-141940491D01*
X109485752Y-141935000D01*
X146644249Y-141935000D01*
X146700000Y-141940491D01*
X146755751Y-141935000D01*
X146755752Y-141935000D01*
X146922499Y-141918577D01*
X147136447Y-141853676D01*
X147333623Y-141748284D01*
X147506449Y-141606449D01*
X147541995Y-141563136D01*
X148363140Y-140741992D01*
X148406449Y-140706449D01*
X148548284Y-140533623D01*
X148653676Y-140336447D01*
X148718577Y-140122499D01*
X148735000Y-139955752D01*
X148735000Y-139955745D01*
X148740490Y-139900001D01*
X148735000Y-139844257D01*
X148735000Y-139207817D01*
X148840706Y-139079014D01*
X148978599Y-138821033D01*
X149063513Y-138541110D01*
X149085000Y-138322949D01*
X149085000Y-137877050D01*
X149063513Y-137658889D01*
X149015315Y-137500000D01*
X155857815Y-137500000D01*
X155886487Y-137791111D01*
X155971401Y-138071034D01*
X156109294Y-138329014D01*
X156294866Y-138555134D01*
X156358337Y-138607223D01*
X156256614Y-138661595D01*
X156122038Y-138772038D01*
X156011595Y-138906614D01*
X155929528Y-139060150D01*
X155878992Y-139226746D01*
X155861928Y-139400000D01*
X155861928Y-140600000D01*
X155878992Y-140773254D01*
X155929528Y-140939850D01*
X156011595Y-141093386D01*
X156122038Y-141227962D01*
X156256614Y-141338405D01*
X156410150Y-141420472D01*
X156576746Y-141471008D01*
X156750000Y-141488072D01*
X157736493Y-141488072D01*
X158233470Y-141985049D01*
X158261183Y-142018817D01*
X158294951Y-142046530D01*
X158294953Y-142046532D01*
X158384660Y-142120153D01*
X158395941Y-142129411D01*
X158549687Y-142211589D01*
X158716510Y-142262195D01*
X158846523Y-142275000D01*
X158846531Y-142275000D01*
X158890000Y-142279281D01*
X158933469Y-142275000D01*
X162545078Y-142275000D01*
X162661310Y-142391232D01*
X162872430Y-142532297D01*
X163107013Y-142629465D01*
X163356045Y-142679000D01*
X163609955Y-142679000D01*
X163858987Y-142629465D01*
X164093570Y-142532297D01*
X164304690Y-142391232D01*
X164484232Y-142211690D01*
X164625297Y-142000570D01*
X164722465Y-141765987D01*
X164772000Y-141516955D01*
X164772000Y-141263045D01*
X180228000Y-141263045D01*
X180228000Y-141516955D01*
X180277535Y-141765987D01*
X180374703Y-142000570D01*
X180515768Y-142211690D01*
X180695310Y-142391232D01*
X180906430Y-142532297D01*
X181141013Y-142629465D01*
X181390045Y-142679000D01*
X181643955Y-142679000D01*
X181892987Y-142629465D01*
X182127570Y-142532297D01*
X182338690Y-142391232D01*
X182454922Y-142275000D01*
X183511928Y-142275000D01*
X183511928Y-143350000D01*
X183524188Y-143474482D01*
X183560498Y-143594180D01*
X183619463Y-143704494D01*
X183698815Y-143801185D01*
X183795506Y-143880537D01*
X183905820Y-143939502D01*
X184025518Y-143975812D01*
X184150000Y-143988072D01*
X185850000Y-143988072D01*
X185974482Y-143975812D01*
X186094180Y-143939502D01*
X186204494Y-143880537D01*
X186301185Y-143801185D01*
X186380537Y-143704494D01*
X186439502Y-143594180D01*
X186475812Y-143474482D01*
X186488072Y-143350000D01*
X186488072Y-142700881D01*
X192478724Y-142700881D01*
X192838912Y-143190548D01*
X193502882Y-143550849D01*
X194224385Y-143774694D01*
X194975695Y-143853480D01*
X195727938Y-143784178D01*
X196452208Y-143569452D01*
X197120670Y-143217555D01*
X197161088Y-143190548D01*
X197521276Y-142700881D01*
X195000000Y-140179605D01*
X192478724Y-142700881D01*
X186488072Y-142700881D01*
X186488072Y-141650000D01*
X186475812Y-141525518D01*
X186439502Y-141405820D01*
X186380537Y-141295506D01*
X186301185Y-141198815D01*
X186204494Y-141119463D01*
X186094180Y-141060498D01*
X185974482Y-141024188D01*
X185850000Y-141011928D01*
X184763506Y-141011928D01*
X184546534Y-140794956D01*
X184518817Y-140761183D01*
X184384059Y-140650589D01*
X184230313Y-140568411D01*
X184063490Y-140517805D01*
X183933477Y-140505000D01*
X183933469Y-140505000D01*
X183890000Y-140500719D01*
X183846531Y-140505000D01*
X182454922Y-140505000D01*
X182338690Y-140388768D01*
X182127570Y-140247703D01*
X181892987Y-140150535D01*
X181739001Y-140119906D01*
X181844079Y-140103259D01*
X182082293Y-140015368D01*
X182156515Y-139975695D01*
X191146520Y-139975695D01*
X191215822Y-140727938D01*
X191430548Y-141452208D01*
X191782445Y-142120670D01*
X191809452Y-142161088D01*
X192299119Y-142521276D01*
X194820395Y-140000000D01*
X195179605Y-140000000D01*
X197700881Y-142521276D01*
X198190548Y-142161088D01*
X198550849Y-141497118D01*
X198774694Y-140775615D01*
X198853480Y-140024305D01*
X198784178Y-139272062D01*
X198569452Y-138547792D01*
X198217555Y-137879330D01*
X198190548Y-137838912D01*
X197700881Y-137478724D01*
X195179605Y-140000000D01*
X194820395Y-140000000D01*
X192299119Y-137478724D01*
X191809452Y-137838912D01*
X191449151Y-138502882D01*
X191225306Y-139224385D01*
X191146520Y-139975695D01*
X182156515Y-139975695D01*
X182171907Y-139967468D01*
X182225782Y-139738387D01*
X181517000Y-139029605D01*
X180808218Y-139738387D01*
X180862093Y-139967468D01*
X181092684Y-140073763D01*
X181289484Y-140121003D01*
X181141013Y-140150535D01*
X180906430Y-140247703D01*
X180695310Y-140388768D01*
X180515768Y-140568310D01*
X180374703Y-140779430D01*
X180277535Y-141014013D01*
X180228000Y-141263045D01*
X164772000Y-141263045D01*
X164722465Y-141014013D01*
X164625297Y-140779430D01*
X164484232Y-140568310D01*
X164304690Y-140388768D01*
X164093570Y-140247703D01*
X163858987Y-140150535D01*
X163705001Y-140119906D01*
X163810079Y-140103259D01*
X164048293Y-140015368D01*
X164137907Y-139967468D01*
X164191782Y-139738387D01*
X163483000Y-139029605D01*
X162774218Y-139738387D01*
X162828093Y-139967468D01*
X163058684Y-140073763D01*
X163255484Y-140121003D01*
X163107013Y-140150535D01*
X162872430Y-140247703D01*
X162661310Y-140388768D01*
X162545078Y-140505000D01*
X159256579Y-140505000D01*
X159138072Y-140386493D01*
X159138072Y-139400000D01*
X159121008Y-139226746D01*
X159070472Y-139060150D01*
X158998926Y-138926296D01*
X162190012Y-138926296D01*
X162229741Y-139177079D01*
X162317632Y-139415293D01*
X162365532Y-139504907D01*
X162594613Y-139558782D01*
X163303395Y-138850000D01*
X163662605Y-138850000D01*
X164371387Y-139558782D01*
X164600468Y-139504907D01*
X164706763Y-139274316D01*
X164766028Y-139027419D01*
X164769997Y-138926296D01*
X180224012Y-138926296D01*
X180263741Y-139177079D01*
X180351632Y-139415293D01*
X180399532Y-139504907D01*
X180628613Y-139558782D01*
X181337395Y-138850000D01*
X181696605Y-138850000D01*
X182405387Y-139558782D01*
X182634468Y-139504907D01*
X182740763Y-139274316D01*
X182800028Y-139027419D01*
X182809988Y-138773704D01*
X182770259Y-138522921D01*
X182682368Y-138284707D01*
X182634468Y-138195093D01*
X182405387Y-138141218D01*
X181696605Y-138850000D01*
X181337395Y-138850000D01*
X180628613Y-138141218D01*
X180399532Y-138195093D01*
X180293237Y-138425684D01*
X180233972Y-138672581D01*
X180224012Y-138926296D01*
X164769997Y-138926296D01*
X164775988Y-138773704D01*
X164736259Y-138522921D01*
X164648368Y-138284707D01*
X164600468Y-138195093D01*
X164371387Y-138141218D01*
X163662605Y-138850000D01*
X163303395Y-138850000D01*
X162594613Y-138141218D01*
X162365532Y-138195093D01*
X162259237Y-138425684D01*
X162199972Y-138672581D01*
X162190012Y-138926296D01*
X158998926Y-138926296D01*
X158988405Y-138906614D01*
X158877962Y-138772038D01*
X158743386Y-138661595D01*
X158641663Y-138607223D01*
X158705134Y-138555134D01*
X158890706Y-138329014D01*
X159028599Y-138071034D01*
X159113513Y-137791111D01*
X159142185Y-137500000D01*
X159113513Y-137208889D01*
X159109300Y-137195000D01*
X162545078Y-137195000D01*
X162661310Y-137311232D01*
X162872430Y-137452297D01*
X163107013Y-137549465D01*
X163260999Y-137580094D01*
X163155921Y-137596741D01*
X162917707Y-137684632D01*
X162828093Y-137732532D01*
X162774218Y-137961613D01*
X163483000Y-138670395D01*
X164191782Y-137961613D01*
X164137907Y-137732532D01*
X163907316Y-137626237D01*
X163710516Y-137578997D01*
X163858987Y-137549465D01*
X164093570Y-137452297D01*
X164304690Y-137311232D01*
X164484232Y-137131690D01*
X164625297Y-136920570D01*
X164722465Y-136685987D01*
X164772000Y-136436955D01*
X164772000Y-136183045D01*
X164722465Y-135934013D01*
X164625297Y-135699430D01*
X164484232Y-135488310D01*
X164304690Y-135308768D01*
X164093570Y-135167703D01*
X163858987Y-135070535D01*
X163705476Y-135040000D01*
X163858987Y-135009465D01*
X164093570Y-134912297D01*
X164304690Y-134771232D01*
X164484232Y-134591690D01*
X164625297Y-134380570D01*
X164722465Y-134145987D01*
X164772000Y-133896955D01*
X164772000Y-133643045D01*
X164722465Y-133394013D01*
X164625297Y-133159430D01*
X164484232Y-132948310D01*
X164304690Y-132768768D01*
X164093570Y-132627703D01*
X163858987Y-132530535D01*
X163705476Y-132500000D01*
X163858987Y-132469465D01*
X164093570Y-132372297D01*
X164304690Y-132231232D01*
X164484232Y-132051690D01*
X164625297Y-131840570D01*
X164722465Y-131605987D01*
X164772000Y-131356955D01*
X164772000Y-131103045D01*
X164722465Y-130854013D01*
X164625297Y-130619430D01*
X164484232Y-130408310D01*
X164304690Y-130228768D01*
X164093570Y-130087703D01*
X163858987Y-129990535D01*
X163705476Y-129960000D01*
X163858987Y-129929465D01*
X164093570Y-129832297D01*
X164304690Y-129691232D01*
X164484232Y-129511690D01*
X164625297Y-129300570D01*
X164722465Y-129065987D01*
X164772000Y-128816955D01*
X164772000Y-128563045D01*
X164722465Y-128314013D01*
X164625297Y-128079430D01*
X164484232Y-127868310D01*
X164304690Y-127688768D01*
X164093570Y-127547703D01*
X163858987Y-127450535D01*
X163705476Y-127420000D01*
X163858987Y-127389465D01*
X164093570Y-127292297D01*
X164304690Y-127151232D01*
X164484232Y-126971690D01*
X164625297Y-126760570D01*
X164722465Y-126525987D01*
X164772000Y-126276955D01*
X164772000Y-126023045D01*
X164722465Y-125774013D01*
X164625297Y-125539430D01*
X164484232Y-125328310D01*
X164304690Y-125148768D01*
X164093570Y-125007703D01*
X163858987Y-124910535D01*
X163816440Y-124902072D01*
X164137000Y-124902072D01*
X164261482Y-124889812D01*
X164381180Y-124853502D01*
X164491494Y-124794537D01*
X164588185Y-124715185D01*
X164667537Y-124618494D01*
X164726502Y-124508180D01*
X164762812Y-124388482D01*
X164775072Y-124264000D01*
X164775072Y-123483045D01*
X180228000Y-123483045D01*
X180228000Y-123736955D01*
X180277535Y-123985987D01*
X180374703Y-124220570D01*
X180515768Y-124431690D01*
X180695310Y-124611232D01*
X180906430Y-124752297D01*
X181141013Y-124849465D01*
X181294524Y-124880000D01*
X181141013Y-124910535D01*
X180906430Y-125007703D01*
X180695310Y-125148768D01*
X180515768Y-125328310D01*
X180374703Y-125539430D01*
X180277535Y-125774013D01*
X180228000Y-126023045D01*
X180228000Y-126276955D01*
X180277535Y-126525987D01*
X180374703Y-126760570D01*
X180515768Y-126971690D01*
X180695310Y-127151232D01*
X180906430Y-127292297D01*
X181141013Y-127389465D01*
X181294524Y-127420000D01*
X181141013Y-127450535D01*
X180906430Y-127547703D01*
X180695310Y-127688768D01*
X180515768Y-127868310D01*
X180374703Y-128079430D01*
X180277535Y-128314013D01*
X180228000Y-128563045D01*
X180228000Y-128816955D01*
X180277535Y-129065987D01*
X180374703Y-129300570D01*
X180515768Y-129511690D01*
X180695310Y-129691232D01*
X180906430Y-129832297D01*
X181141013Y-129929465D01*
X181294524Y-129960000D01*
X181141013Y-129990535D01*
X180906430Y-130087703D01*
X180695310Y-130228768D01*
X180515768Y-130408310D01*
X180374703Y-130619430D01*
X180277535Y-130854013D01*
X180228000Y-131103045D01*
X180228000Y-131356955D01*
X180277535Y-131605987D01*
X180374703Y-131840570D01*
X180515768Y-132051690D01*
X180695310Y-132231232D01*
X180906430Y-132372297D01*
X181141013Y-132469465D01*
X181294524Y-132500000D01*
X181141013Y-132530535D01*
X180906430Y-132627703D01*
X180695310Y-132768768D01*
X180515768Y-132948310D01*
X180374703Y-133159430D01*
X180277535Y-133394013D01*
X180228000Y-133643045D01*
X180228000Y-133896955D01*
X180277535Y-134145987D01*
X180374703Y-134380570D01*
X180515768Y-134591690D01*
X180695310Y-134771232D01*
X180906430Y-134912297D01*
X181141013Y-135009465D01*
X181294524Y-135040000D01*
X181141013Y-135070535D01*
X180906430Y-135167703D01*
X180695310Y-135308768D01*
X180515768Y-135488310D01*
X180374703Y-135699430D01*
X180277535Y-135934013D01*
X180228000Y-136183045D01*
X180228000Y-136436955D01*
X180277535Y-136685987D01*
X180374703Y-136920570D01*
X180515768Y-137131690D01*
X180695310Y-137311232D01*
X180906430Y-137452297D01*
X181141013Y-137549465D01*
X181294999Y-137580094D01*
X181189921Y-137596741D01*
X180951707Y-137684632D01*
X180862093Y-137732532D01*
X180808218Y-137961613D01*
X181517000Y-138670395D01*
X182225782Y-137961613D01*
X182171907Y-137732532D01*
X181941316Y-137626237D01*
X181744516Y-137578997D01*
X181892987Y-137549465D01*
X182127570Y-137452297D01*
X182338690Y-137311232D01*
X182350803Y-137299119D01*
X192478724Y-137299119D01*
X195000000Y-139820395D01*
X197521276Y-137299119D01*
X197161088Y-136809452D01*
X196497118Y-136449151D01*
X195775615Y-136225306D01*
X195024305Y-136146520D01*
X194272062Y-136215822D01*
X193547792Y-136430548D01*
X192879330Y-136782445D01*
X192838912Y-136809452D01*
X192478724Y-137299119D01*
X182350803Y-137299119D01*
X182454922Y-137195000D01*
X183646531Y-137195000D01*
X183690000Y-137199281D01*
X183733469Y-137195000D01*
X183733477Y-137195000D01*
X183863490Y-137182195D01*
X184030313Y-137131589D01*
X184184059Y-137049411D01*
X184318817Y-136938817D01*
X184346534Y-136905044D01*
X184763506Y-136488072D01*
X185850000Y-136488072D01*
X185974482Y-136475812D01*
X186094180Y-136439502D01*
X186204494Y-136380537D01*
X186301185Y-136301185D01*
X186380537Y-136204494D01*
X186439502Y-136094180D01*
X186475812Y-135974482D01*
X186488072Y-135850000D01*
X186488072Y-134150000D01*
X186475812Y-134025518D01*
X186439502Y-133905820D01*
X186380537Y-133795506D01*
X186301185Y-133698815D01*
X186204494Y-133619463D01*
X186094180Y-133560498D01*
X185974482Y-133524188D01*
X185850000Y-133511928D01*
X184150000Y-133511928D01*
X184025518Y-133524188D01*
X183905820Y-133560498D01*
X183795506Y-133619463D01*
X183698815Y-133698815D01*
X183619463Y-133795506D01*
X183560498Y-133905820D01*
X183524188Y-134025518D01*
X183511928Y-134150000D01*
X183511928Y-135236494D01*
X183323422Y-135425000D01*
X182454922Y-135425000D01*
X182338690Y-135308768D01*
X182127570Y-135167703D01*
X181892987Y-135070535D01*
X181739476Y-135040000D01*
X181892987Y-135009465D01*
X182127570Y-134912297D01*
X182338690Y-134771232D01*
X182518232Y-134591690D01*
X182659297Y-134380570D01*
X182756465Y-134145987D01*
X182806000Y-133896955D01*
X182806000Y-133643045D01*
X182756465Y-133394013D01*
X182659297Y-133159430D01*
X182518232Y-132948310D01*
X182338690Y-132768768D01*
X182127570Y-132627703D01*
X181892987Y-132530535D01*
X181739476Y-132500000D01*
X181892987Y-132469465D01*
X182127570Y-132372297D01*
X182338690Y-132231232D01*
X182518232Y-132051690D01*
X182659297Y-131840570D01*
X182756465Y-131605987D01*
X182806000Y-131356955D01*
X182806000Y-131103045D01*
X182756465Y-130854013D01*
X182659297Y-130619430D01*
X182518232Y-130408310D01*
X182338690Y-130228768D01*
X182127570Y-130087703D01*
X181892987Y-129990535D01*
X181739476Y-129960000D01*
X181892987Y-129929465D01*
X182127570Y-129832297D01*
X182338690Y-129691232D01*
X182518232Y-129511690D01*
X182659297Y-129300570D01*
X182756465Y-129065987D01*
X182806000Y-128816955D01*
X182806000Y-128563045D01*
X182756465Y-128314013D01*
X182659297Y-128079430D01*
X182518232Y-127868310D01*
X182338690Y-127688768D01*
X182127570Y-127547703D01*
X181892987Y-127450535D01*
X181739476Y-127420000D01*
X181892987Y-127389465D01*
X182127570Y-127292297D01*
X182338690Y-127151232D01*
X182518232Y-126971690D01*
X182659297Y-126760570D01*
X182756465Y-126525987D01*
X182806000Y-126276955D01*
X182806000Y-126023045D01*
X182756465Y-125774013D01*
X182659297Y-125539430D01*
X182518232Y-125328310D01*
X182338690Y-125148768D01*
X182127570Y-125007703D01*
X181892987Y-124910535D01*
X181739476Y-124880000D01*
X181892987Y-124849465D01*
X182127570Y-124752297D01*
X182338690Y-124611232D01*
X182454922Y-124495000D01*
X183846531Y-124495000D01*
X183890000Y-124499281D01*
X183933469Y-124495000D01*
X183933477Y-124495000D01*
X184063490Y-124482195D01*
X184230313Y-124431589D01*
X184384059Y-124349411D01*
X184518817Y-124238817D01*
X184546534Y-124205044D01*
X184763506Y-123988072D01*
X185850000Y-123988072D01*
X185974482Y-123975812D01*
X186094180Y-123939502D01*
X186204494Y-123880537D01*
X186301185Y-123801185D01*
X186380537Y-123704494D01*
X186439502Y-123594180D01*
X186475812Y-123474482D01*
X186488072Y-123350000D01*
X186488072Y-121650000D01*
X186475812Y-121525518D01*
X186439502Y-121405820D01*
X186380537Y-121295506D01*
X186301185Y-121198815D01*
X186204494Y-121119463D01*
X186094180Y-121060498D01*
X185974482Y-121024188D01*
X185850000Y-121011928D01*
X184150000Y-121011928D01*
X184025518Y-121024188D01*
X183905820Y-121060498D01*
X183795506Y-121119463D01*
X183698815Y-121198815D01*
X183619463Y-121295506D01*
X183560498Y-121405820D01*
X183524188Y-121525518D01*
X183511928Y-121650000D01*
X183511928Y-122725000D01*
X182454922Y-122725000D01*
X182338690Y-122608768D01*
X182127570Y-122467703D01*
X181892987Y-122370535D01*
X181643955Y-122321000D01*
X181390045Y-122321000D01*
X181141013Y-122370535D01*
X180906430Y-122467703D01*
X180695310Y-122608768D01*
X180515768Y-122788310D01*
X180374703Y-122999430D01*
X180277535Y-123234013D01*
X180228000Y-123483045D01*
X164775072Y-123483045D01*
X164775072Y-122956000D01*
X164762812Y-122831518D01*
X164726502Y-122711820D01*
X164667537Y-122601506D01*
X164588185Y-122504815D01*
X164491494Y-122425463D01*
X164381180Y-122366498D01*
X164261482Y-122330188D01*
X164137000Y-122317928D01*
X162829000Y-122317928D01*
X162704518Y-122330188D01*
X162584820Y-122366498D01*
X162474506Y-122425463D01*
X162377815Y-122504815D01*
X162298463Y-122601506D01*
X162239498Y-122711820D01*
X162203188Y-122831518D01*
X162190928Y-122956000D01*
X162190928Y-124264000D01*
X162203188Y-124388482D01*
X162239498Y-124508180D01*
X162298463Y-124618494D01*
X162377815Y-124715185D01*
X162474506Y-124794537D01*
X162584820Y-124853502D01*
X162704518Y-124889812D01*
X162829000Y-124902072D01*
X163149560Y-124902072D01*
X163107013Y-124910535D01*
X162872430Y-125007703D01*
X162661310Y-125148768D01*
X162481768Y-125328310D01*
X162340703Y-125539430D01*
X162243535Y-125774013D01*
X162194000Y-126023045D01*
X162194000Y-126276955D01*
X162243535Y-126525987D01*
X162340703Y-126760570D01*
X162481768Y-126971690D01*
X162661310Y-127151232D01*
X162872430Y-127292297D01*
X163107013Y-127389465D01*
X163260524Y-127420000D01*
X163107013Y-127450535D01*
X162872430Y-127547703D01*
X162661310Y-127688768D01*
X162481768Y-127868310D01*
X162340703Y-128079430D01*
X162243535Y-128314013D01*
X162194000Y-128563045D01*
X162194000Y-128816955D01*
X162243535Y-129065987D01*
X162340703Y-129300570D01*
X162481768Y-129511690D01*
X162661310Y-129691232D01*
X162872430Y-129832297D01*
X163107013Y-129929465D01*
X163260524Y-129960000D01*
X163107013Y-129990535D01*
X162872430Y-130087703D01*
X162661310Y-130228768D01*
X162481768Y-130408310D01*
X162340703Y-130619430D01*
X162243535Y-130854013D01*
X162194000Y-131103045D01*
X162194000Y-131356955D01*
X162243535Y-131605987D01*
X162340703Y-131840570D01*
X162481768Y-132051690D01*
X162661310Y-132231232D01*
X162872430Y-132372297D01*
X163107013Y-132469465D01*
X163260524Y-132500000D01*
X163107013Y-132530535D01*
X162872430Y-132627703D01*
X162661310Y-132768768D01*
X162481768Y-132948310D01*
X162340703Y-133159430D01*
X162243535Y-133394013D01*
X162194000Y-133643045D01*
X162194000Y-133896955D01*
X162243535Y-134145987D01*
X162340703Y-134380570D01*
X162481768Y-134591690D01*
X162661310Y-134771232D01*
X162872430Y-134912297D01*
X163107013Y-135009465D01*
X163260524Y-135040000D01*
X163107013Y-135070535D01*
X162872430Y-135167703D01*
X162661310Y-135308768D01*
X162545078Y-135425000D01*
X158733465Y-135425000D01*
X158689999Y-135420719D01*
X158646533Y-135425000D01*
X158646523Y-135425000D01*
X158516510Y-135437805D01*
X158349687Y-135488411D01*
X158195941Y-135570589D01*
X158195939Y-135570590D01*
X158195940Y-135570590D01*
X158094953Y-135653468D01*
X158094951Y-135653470D01*
X158061183Y-135681183D01*
X158033470Y-135714951D01*
X157732482Y-136015939D01*
X157722950Y-136015000D01*
X157277050Y-136015000D01*
X157058889Y-136036487D01*
X156778966Y-136121401D01*
X156520986Y-136259294D01*
X156294866Y-136444866D01*
X156109294Y-136670986D01*
X155971401Y-136928966D01*
X155886487Y-137208889D01*
X155857815Y-137500000D01*
X149015315Y-137500000D01*
X148978599Y-137378966D01*
X148925502Y-137279629D01*
X155063141Y-131141991D01*
X155106449Y-131106449D01*
X155248284Y-130933623D01*
X155353676Y-130736447D01*
X155418577Y-130522499D01*
X155435000Y-130355752D01*
X155440491Y-130300000D01*
X155435000Y-130244248D01*
X155435000Y-128270131D01*
X170763141Y-112941991D01*
X170806449Y-112906449D01*
X170948284Y-112733623D01*
X171053676Y-112536447D01*
X171118577Y-112322499D01*
X171135000Y-112155752D01*
X171140491Y-112100000D01*
X171135000Y-112044249D01*
X171135000Y-79037683D01*
X171204494Y-79000537D01*
X171301185Y-78921185D01*
X171380537Y-78824494D01*
X171439502Y-78714180D01*
X171475812Y-78594482D01*
X171488072Y-78470000D01*
X171488072Y-76770000D01*
X171475812Y-76645518D01*
X171439502Y-76525820D01*
X171380537Y-76415506D01*
X171326778Y-76350000D01*
X171380537Y-76284494D01*
X171439502Y-76174180D01*
X171475812Y-76054482D01*
X171488072Y-75930000D01*
X171488072Y-74230000D01*
X171475812Y-74105518D01*
X171439502Y-73985820D01*
X171380537Y-73875506D01*
X171326778Y-73810000D01*
X171380537Y-73744494D01*
X171439502Y-73634180D01*
X171475812Y-73514482D01*
X171488072Y-73390000D01*
X171485000Y-72825750D01*
X171326250Y-72667000D01*
X170127000Y-72667000D01*
X170127000Y-72687000D01*
X169873000Y-72687000D01*
X169873000Y-72667000D01*
X168673750Y-72667000D01*
X168515000Y-72825750D01*
X168511928Y-73390000D01*
X168524188Y-73514482D01*
X168560498Y-73634180D01*
X168619463Y-73744494D01*
X168673222Y-73810000D01*
X168619463Y-73875506D01*
X168560498Y-73985820D01*
X168524188Y-74105518D01*
X168515375Y-74195000D01*
X164063465Y-74195000D01*
X164019999Y-74190719D01*
X163976533Y-74195000D01*
X163976523Y-74195000D01*
X163846510Y-74207805D01*
X163679687Y-74258411D01*
X163525941Y-74340589D01*
X163496452Y-74364790D01*
X163424953Y-74423468D01*
X163424951Y-74423470D01*
X163391183Y-74451183D01*
X163363470Y-74484951D01*
X159933422Y-77915000D01*
X150266579Y-77915000D01*
X148801579Y-76450000D01*
X153861928Y-76450000D01*
X153874188Y-76574482D01*
X153910498Y-76694180D01*
X153969463Y-76804494D01*
X154048815Y-76901185D01*
X154145506Y-76980537D01*
X154255820Y-77039502D01*
X154375518Y-77075812D01*
X154500000Y-77088072D01*
X155214250Y-77085000D01*
X155373000Y-76926250D01*
X155373000Y-75727000D01*
X155627000Y-75727000D01*
X155627000Y-76926250D01*
X155785750Y-77085000D01*
X156500000Y-77088072D01*
X156624482Y-77075812D01*
X156744180Y-77039502D01*
X156854494Y-76980537D01*
X156951185Y-76901185D01*
X157030537Y-76804494D01*
X157089502Y-76694180D01*
X157125812Y-76574482D01*
X157138072Y-76450000D01*
X157135000Y-75885750D01*
X156976250Y-75727000D01*
X155627000Y-75727000D01*
X155373000Y-75727000D01*
X154023750Y-75727000D01*
X153865000Y-75885750D01*
X153861928Y-76450000D01*
X148801579Y-76450000D01*
X148488072Y-76136494D01*
X148488072Y-75150000D01*
X148471008Y-74976746D01*
X148420472Y-74810150D01*
X148338405Y-74656614D01*
X148227962Y-74522038D01*
X148093386Y-74411595D01*
X147939850Y-74329528D01*
X147773254Y-74278992D01*
X147600000Y-74261928D01*
X146400000Y-74261928D01*
X146226746Y-74278992D01*
X146060150Y-74329528D01*
X145906614Y-74411595D01*
X145772038Y-74522038D01*
X145661595Y-74656614D01*
X145607223Y-74758337D01*
X145555134Y-74694866D01*
X145329014Y-74509294D01*
X145071034Y-74371401D01*
X144791111Y-74286487D01*
X144500000Y-74257815D01*
X144208890Y-74286487D01*
X143928967Y-74371401D01*
X143670987Y-74509294D01*
X143444866Y-74694866D01*
X143259294Y-74920986D01*
X143209043Y-75015000D01*
X142066579Y-75015000D01*
X140151579Y-73100000D01*
X153857815Y-73100000D01*
X153886487Y-73391111D01*
X153971401Y-73671034D01*
X154109294Y-73929014D01*
X154290608Y-74149945D01*
X154255820Y-74160498D01*
X154145506Y-74219463D01*
X154048815Y-74298815D01*
X153969463Y-74395506D01*
X153910498Y-74505820D01*
X153874188Y-74625518D01*
X153861928Y-74750000D01*
X153865000Y-75314250D01*
X154023750Y-75473000D01*
X155373000Y-75473000D01*
X155373000Y-75453000D01*
X155627000Y-75453000D01*
X155627000Y-75473000D01*
X156976250Y-75473000D01*
X157135000Y-75314250D01*
X157138072Y-74750000D01*
X157125812Y-74625518D01*
X157089502Y-74505820D01*
X157030537Y-74395506D01*
X156951185Y-74298815D01*
X156854494Y-74219463D01*
X156744180Y-74160498D01*
X156709392Y-74149945D01*
X156890706Y-73929014D01*
X157028599Y-73671034D01*
X157113513Y-73391111D01*
X157142185Y-73100000D01*
X157138863Y-73066269D01*
X159070132Y-71135000D01*
X168582317Y-71135000D01*
X168619463Y-71204494D01*
X168673222Y-71270000D01*
X168619463Y-71335506D01*
X168560498Y-71445820D01*
X168524188Y-71565518D01*
X168511928Y-71690000D01*
X168515000Y-72254250D01*
X168673750Y-72413000D01*
X169873000Y-72413000D01*
X169873000Y-72393000D01*
X170127000Y-72393000D01*
X170127000Y-72413000D01*
X171326250Y-72413000D01*
X171485000Y-72254250D01*
X171488072Y-71690000D01*
X171475812Y-71565518D01*
X171439502Y-71445820D01*
X171380537Y-71335506D01*
X171326778Y-71270000D01*
X171380537Y-71204494D01*
X171439502Y-71094180D01*
X171475812Y-70974482D01*
X171488072Y-70850000D01*
X171488072Y-69150000D01*
X171475812Y-69025518D01*
X171439502Y-68905820D01*
X171380537Y-68795506D01*
X171301185Y-68698815D01*
X171204494Y-68619463D01*
X171094180Y-68560498D01*
X170974482Y-68524188D01*
X170850000Y-68511928D01*
X169150000Y-68511928D01*
X169025518Y-68524188D01*
X168905820Y-68560498D01*
X168795506Y-68619463D01*
X168698815Y-68698815D01*
X168619463Y-68795506D01*
X168582317Y-68865000D01*
X158655751Y-68865000D01*
X158599999Y-68859509D01*
X158544248Y-68865000D01*
X158377501Y-68881423D01*
X158163553Y-68946324D01*
X157966377Y-69051716D01*
X157793551Y-69193551D01*
X157758009Y-69236859D01*
X155379869Y-71615000D01*
X155277050Y-71615000D01*
X155058889Y-71636487D01*
X154778966Y-71721401D01*
X154520986Y-71859294D01*
X154294866Y-72044866D01*
X154109294Y-72270986D01*
X153971401Y-72528966D01*
X153886487Y-72808889D01*
X153857815Y-73100000D01*
X140151579Y-73100000D01*
X139656534Y-72604956D01*
X139628817Y-72571183D01*
X139494059Y-72460589D01*
X139340313Y-72378411D01*
X139173490Y-72327805D01*
X139043477Y-72315000D01*
X139043469Y-72315000D01*
X139000000Y-72310719D01*
X138956531Y-72315000D01*
X133644759Y-72315000D01*
X133505134Y-72144866D01*
X133279014Y-71959294D01*
X133021034Y-71821401D01*
X132741111Y-71736487D01*
X132522950Y-71715000D01*
X132077050Y-71715000D01*
X131858889Y-71736487D01*
X131578966Y-71821401D01*
X131320986Y-71959294D01*
X131094866Y-72144866D01*
X130909294Y-72370986D01*
X130771401Y-72628966D01*
X130686487Y-72908889D01*
X130657815Y-73200000D01*
X130686487Y-73491111D01*
X130771401Y-73771034D01*
X130909294Y-74029014D01*
X131090608Y-74249945D01*
X131055820Y-74260498D01*
X130945506Y-74319463D01*
X130848815Y-74398815D01*
X130769463Y-74495506D01*
X130710498Y-74605820D01*
X130674188Y-74725518D01*
X130661928Y-74850000D01*
X130665000Y-75414250D01*
X130823750Y-75573000D01*
X132173000Y-75573000D01*
X132173000Y-75553000D01*
X132427000Y-75553000D01*
X132427000Y-75573000D01*
X133776250Y-75573000D01*
X133935000Y-75414250D01*
X133938072Y-74850000D01*
X133925812Y-74725518D01*
X133889502Y-74605820D01*
X133830537Y-74495506D01*
X133751185Y-74398815D01*
X133654494Y-74319463D01*
X133544180Y-74260498D01*
X133509392Y-74249945D01*
X133644759Y-74085000D01*
X138633422Y-74085000D01*
X141043470Y-76495049D01*
X141071183Y-76528817D01*
X141104951Y-76556530D01*
X141104953Y-76556532D01*
X141205941Y-76639411D01*
X141359686Y-76721589D01*
X141519274Y-76770000D01*
X141526510Y-76772195D01*
X141656523Y-76785000D01*
X141656531Y-76785000D01*
X141700000Y-76789281D01*
X141743469Y-76785000D01*
X143209043Y-76785000D01*
X143259294Y-76879013D01*
X143444866Y-77105134D01*
X143670986Y-77290706D01*
X143928966Y-77428599D01*
X144208889Y-77513513D01*
X144500000Y-77542185D01*
X144791110Y-77513513D01*
X145071033Y-77428599D01*
X145329013Y-77290706D01*
X145555134Y-77105134D01*
X145607223Y-77041663D01*
X145661595Y-77143386D01*
X145772038Y-77277962D01*
X145906614Y-77388405D01*
X146060150Y-77470472D01*
X146226746Y-77521008D01*
X146400000Y-77538072D01*
X147386494Y-77538072D01*
X149243470Y-79395049D01*
X149271183Y-79428817D01*
X149304951Y-79456530D01*
X149304953Y-79456532D01*
X149376452Y-79515210D01*
X149405941Y-79539411D01*
X149559687Y-79621589D01*
X149726510Y-79672195D01*
X149856523Y-79685000D01*
X149856533Y-79685000D01*
X149899999Y-79689281D01*
X149943465Y-79685000D01*
X160256531Y-79685000D01*
X160300000Y-79689281D01*
X160343469Y-79685000D01*
X160343477Y-79685000D01*
X160473490Y-79672195D01*
X160640313Y-79621589D01*
X160794059Y-79539411D01*
X160928817Y-79428817D01*
X160956534Y-79395044D01*
X164386579Y-75965000D01*
X168515375Y-75965000D01*
X168524188Y-76054482D01*
X168560498Y-76174180D01*
X168619463Y-76284494D01*
X168673222Y-76350000D01*
X168619463Y-76415506D01*
X168560498Y-76525820D01*
X168524188Y-76645518D01*
X168511928Y-76770000D01*
X168511928Y-78470000D01*
X168524188Y-78594482D01*
X168560498Y-78714180D01*
X168619463Y-78824494D01*
X168698815Y-78921185D01*
X168795506Y-79000537D01*
X168865000Y-79037683D01*
X168865001Y-111629867D01*
X153536865Y-126958004D01*
X153493551Y-126993551D01*
X153351716Y-127166377D01*
X153274565Y-127310718D01*
X153246324Y-127363554D01*
X153181423Y-127577502D01*
X153159509Y-127800000D01*
X153165000Y-127855752D01*
X153165001Y-129829867D01*
X146836860Y-136158009D01*
X146793552Y-136193551D01*
X146651717Y-136366377D01*
X146546324Y-136563553D01*
X146502114Y-136709294D01*
X146481423Y-136777502D01*
X146468150Y-136912263D01*
X146438405Y-136856614D01*
X146327962Y-136722038D01*
X146193386Y-136611595D01*
X146039850Y-136529528D01*
X145873254Y-136478992D01*
X145700000Y-136461928D01*
X144500000Y-136461928D01*
X144326746Y-136478992D01*
X144160150Y-136529528D01*
X144006614Y-136611595D01*
X143872038Y-136722038D01*
X143761595Y-136856614D01*
X143679528Y-137010150D01*
X143628992Y-137176746D01*
X143611928Y-137350000D01*
X143611928Y-138850000D01*
X143628992Y-139023254D01*
X143679528Y-139189850D01*
X143761595Y-139343386D01*
X143872038Y-139477962D01*
X144006614Y-139588405D01*
X144149913Y-139665000D01*
X109900133Y-139665000D01*
X103683303Y-133448172D01*
X103646199Y-133261635D01*
X103540664Y-133006851D01*
X103387451Y-132777552D01*
X103192448Y-132582549D01*
X102963149Y-132429336D01*
X102892326Y-132400000D01*
X102963149Y-132370664D01*
X103192448Y-132217451D01*
X103387451Y-132022448D01*
X103540664Y-131793149D01*
X103646199Y-131538365D01*
X103700000Y-131267888D01*
X103700000Y-130992112D01*
X103646199Y-130721635D01*
X103540664Y-130466851D01*
X103387451Y-130237552D01*
X103192448Y-130042549D01*
X102963149Y-129889336D01*
X102892326Y-129860000D01*
X102963149Y-129830664D01*
X103192448Y-129677451D01*
X103387451Y-129482448D01*
X103540664Y-129253149D01*
X103646199Y-128998365D01*
X103700000Y-128727888D01*
X103700000Y-128452112D01*
X103646199Y-128181635D01*
X103540664Y-127926851D01*
X103387451Y-127697552D01*
X103192448Y-127502549D01*
X102963149Y-127349336D01*
X102892326Y-127320000D01*
X102963149Y-127290664D01*
X103192448Y-127137451D01*
X103387451Y-126942448D01*
X103540664Y-126713149D01*
X103646199Y-126458365D01*
X103700000Y-126187888D01*
X103700000Y-125912112D01*
X103646199Y-125641635D01*
X103540664Y-125386851D01*
X103387451Y-125157552D01*
X103192448Y-124962549D01*
X102963149Y-124809336D01*
X102892326Y-124780000D01*
X102963149Y-124750664D01*
X103192448Y-124597451D01*
X103387451Y-124402448D01*
X103540664Y-124173149D01*
X103646199Y-123918365D01*
X103700000Y-123647888D01*
X103700000Y-123372112D01*
X103646199Y-123101635D01*
X103540664Y-122846851D01*
X103387451Y-122617552D01*
X103192448Y-122422549D01*
X102963149Y-122269336D01*
X102898406Y-122242518D01*
X102904072Y-122240478D01*
X103020760Y-122178106D01*
X103088102Y-121937707D01*
X102300000Y-121149605D01*
X101511898Y-121937707D01*
X101579240Y-122178106D01*
X101709336Y-122239312D01*
X101636851Y-122269336D01*
X101407552Y-122422549D01*
X101212549Y-122617552D01*
X101059336Y-122846851D01*
X100953801Y-123101635D01*
X100900000Y-123372112D01*
X100710000Y-123372112D01*
X100710000Y-121041899D01*
X100895064Y-121041899D01*
X100936086Y-121314607D01*
X101029522Y-121574072D01*
X101091894Y-121690760D01*
X101332293Y-121758102D01*
X102120395Y-120970000D01*
X102479605Y-120970000D01*
X103267707Y-121758102D01*
X103508106Y-121690760D01*
X103625506Y-121441220D01*
X103691967Y-121173573D01*
X103704936Y-120898101D01*
X103663914Y-120625393D01*
X103570478Y-120365928D01*
X103508106Y-120249240D01*
X103267707Y-120181898D01*
X102479605Y-120970000D01*
X102120395Y-120970000D01*
X101332293Y-120181898D01*
X101091894Y-120249240D01*
X100974494Y-120498780D01*
X100908033Y-120766427D01*
X100895064Y-121041899D01*
X100710000Y-121041899D01*
X100710000Y-87185000D01*
X100896928Y-87185000D01*
X100896928Y-88715000D01*
X100909188Y-88839482D01*
X100945498Y-88959180D01*
X101004463Y-89069494D01*
X101083815Y-89166185D01*
X101180506Y-89245537D01*
X101290820Y-89304502D01*
X101410518Y-89340812D01*
X101488459Y-89348488D01*
X101407552Y-89402549D01*
X101212549Y-89597552D01*
X101059336Y-89826851D01*
X100953801Y-90081635D01*
X100900000Y-90352112D01*
X100900000Y-90627888D01*
X100953801Y-90898365D01*
X101059336Y-91153149D01*
X101212549Y-91382448D01*
X101407552Y-91577451D01*
X101636851Y-91730664D01*
X101707674Y-91760000D01*
X101636851Y-91789336D01*
X101407552Y-91942549D01*
X101212549Y-92137552D01*
X101059336Y-92366851D01*
X100953801Y-92621635D01*
X100900000Y-92892112D01*
X100900000Y-93167888D01*
X100953801Y-93438365D01*
X101059336Y-93693149D01*
X101212549Y-93922448D01*
X101407552Y-94117451D01*
X101636851Y-94270664D01*
X101707674Y-94300000D01*
X101636851Y-94329336D01*
X101407552Y-94482549D01*
X101212549Y-94677552D01*
X101059336Y-94906851D01*
X100953801Y-95161635D01*
X100900000Y-95432112D01*
X100900000Y-95707888D01*
X100953801Y-95978365D01*
X101059336Y-96233149D01*
X101212549Y-96462448D01*
X101407552Y-96657451D01*
X101636851Y-96810664D01*
X101707674Y-96840000D01*
X101636851Y-96869336D01*
X101407552Y-97022549D01*
X101212549Y-97217552D01*
X101059336Y-97446851D01*
X100953801Y-97701635D01*
X100900000Y-97972112D01*
X100900000Y-98247888D01*
X100953801Y-98518365D01*
X101059336Y-98773149D01*
X101212549Y-99002448D01*
X101407552Y-99197451D01*
X101636851Y-99350664D01*
X101707674Y-99380000D01*
X101636851Y-99409336D01*
X101407552Y-99562549D01*
X101212549Y-99757552D01*
X101059336Y-99986851D01*
X100953801Y-100241635D01*
X100900000Y-100512112D01*
X100900000Y-100787888D01*
X100953801Y-101058365D01*
X101059336Y-101313149D01*
X101212549Y-101542448D01*
X101407552Y-101737451D01*
X101636851Y-101890664D01*
X101707674Y-101920000D01*
X101636851Y-101949336D01*
X101407552Y-102102549D01*
X101212549Y-102297552D01*
X101059336Y-102526851D01*
X100953801Y-102781635D01*
X100900000Y-103052112D01*
X100900000Y-103327888D01*
X100953801Y-103598365D01*
X101059336Y-103853149D01*
X101212549Y-104082448D01*
X101407552Y-104277451D01*
X101636851Y-104430664D01*
X101707674Y-104460000D01*
X101636851Y-104489336D01*
X101407552Y-104642549D01*
X101212549Y-104837552D01*
X101059336Y-105066851D01*
X100953801Y-105321635D01*
X100900000Y-105592112D01*
X100900000Y-105867888D01*
X100953801Y-106138365D01*
X101059336Y-106393149D01*
X101212549Y-106622448D01*
X101407552Y-106817451D01*
X101636851Y-106970664D01*
X101707674Y-107000000D01*
X101636851Y-107029336D01*
X101407552Y-107182549D01*
X101212549Y-107377552D01*
X101059336Y-107606851D01*
X100953801Y-107861635D01*
X100900000Y-108132112D01*
X100900000Y-108407888D01*
X100953801Y-108678365D01*
X101059336Y-108933149D01*
X101212549Y-109162448D01*
X101407552Y-109357451D01*
X101636851Y-109510664D01*
X101707674Y-109540000D01*
X101636851Y-109569336D01*
X101407552Y-109722549D01*
X101212549Y-109917552D01*
X101059336Y-110146851D01*
X100953801Y-110401635D01*
X100900000Y-110672112D01*
X100900000Y-110947888D01*
X100953801Y-111218365D01*
X101059336Y-111473149D01*
X101212549Y-111702448D01*
X101407552Y-111897451D01*
X101636851Y-112050664D01*
X101707674Y-112080000D01*
X101636851Y-112109336D01*
X101407552Y-112262549D01*
X101212549Y-112457552D01*
X101059336Y-112686851D01*
X100953801Y-112941635D01*
X100900000Y-113212112D01*
X100900000Y-113487888D01*
X100953801Y-113758365D01*
X101059336Y-114013149D01*
X101212549Y-114242448D01*
X101407552Y-114437451D01*
X101636851Y-114590664D01*
X101707674Y-114620000D01*
X101636851Y-114649336D01*
X101407552Y-114802549D01*
X101212549Y-114997552D01*
X101059336Y-115226851D01*
X100953801Y-115481635D01*
X100900000Y-115752112D01*
X100900000Y-116027888D01*
X100953801Y-116298365D01*
X101059336Y-116553149D01*
X101212549Y-116782448D01*
X101407552Y-116977451D01*
X101636851Y-117130664D01*
X101707674Y-117160000D01*
X101636851Y-117189336D01*
X101407552Y-117342549D01*
X101212549Y-117537552D01*
X101059336Y-117766851D01*
X100953801Y-118021635D01*
X100900000Y-118292112D01*
X100900000Y-118567888D01*
X100953801Y-118838365D01*
X101059336Y-119093149D01*
X101212549Y-119322448D01*
X101407552Y-119517451D01*
X101636851Y-119670664D01*
X101701594Y-119697482D01*
X101695928Y-119699522D01*
X101579240Y-119761894D01*
X101511898Y-120002293D01*
X102300000Y-120790395D01*
X103088102Y-120002293D01*
X103020760Y-119761894D01*
X102890664Y-119700688D01*
X102963149Y-119670664D01*
X103192448Y-119517451D01*
X103387451Y-119322448D01*
X103540664Y-119093149D01*
X103646199Y-118838365D01*
X103700000Y-118567888D01*
X103700000Y-118292112D01*
X103646199Y-118021635D01*
X103540664Y-117766851D01*
X103387451Y-117537552D01*
X103192448Y-117342549D01*
X102963149Y-117189336D01*
X102892326Y-117160000D01*
X102963149Y-117130664D01*
X103192448Y-116977451D01*
X103387451Y-116782448D01*
X103540664Y-116553149D01*
X103646199Y-116298365D01*
X103700000Y-116027888D01*
X103700000Y-115752112D01*
X103646199Y-115481635D01*
X103540664Y-115226851D01*
X103387451Y-114997552D01*
X103192448Y-114802549D01*
X102963149Y-114649336D01*
X102892326Y-114620000D01*
X102963149Y-114590664D01*
X103192448Y-114437451D01*
X103387451Y-114242448D01*
X103540664Y-114013149D01*
X103646199Y-113758365D01*
X103700000Y-113487888D01*
X103700000Y-113212112D01*
X103646199Y-112941635D01*
X103540664Y-112686851D01*
X103387451Y-112457552D01*
X103192448Y-112262549D01*
X102963149Y-112109336D01*
X102892326Y-112080000D01*
X102963149Y-112050664D01*
X103192448Y-111897451D01*
X103387451Y-111702448D01*
X103540664Y-111473149D01*
X103646199Y-111218365D01*
X103700000Y-110947888D01*
X103700000Y-110672112D01*
X103646199Y-110401635D01*
X103540664Y-110146851D01*
X103387451Y-109917552D01*
X103192448Y-109722549D01*
X102963149Y-109569336D01*
X102892326Y-109540000D01*
X102963149Y-109510664D01*
X103192448Y-109357451D01*
X103387451Y-109162448D01*
X103540664Y-108933149D01*
X103646199Y-108678365D01*
X103700000Y-108407888D01*
X103700000Y-108132112D01*
X103646199Y-107861635D01*
X103540664Y-107606851D01*
X103387451Y-107377552D01*
X103192448Y-107182549D01*
X102963149Y-107029336D01*
X102892326Y-107000000D01*
X102963149Y-106970664D01*
X103192448Y-106817451D01*
X103387451Y-106622448D01*
X103540664Y-106393149D01*
X103646199Y-106138365D01*
X103700000Y-105867888D01*
X103700000Y-105592112D01*
X103646199Y-105321635D01*
X103540664Y-105066851D01*
X103387451Y-104837552D01*
X103192448Y-104642549D01*
X102963149Y-104489336D01*
X102892326Y-104460000D01*
X102963149Y-104430664D01*
X103192448Y-104277451D01*
X103387451Y-104082448D01*
X103540664Y-103853149D01*
X103646199Y-103598365D01*
X103700000Y-103327888D01*
X103700000Y-103052112D01*
X103646199Y-102781635D01*
X103540664Y-102526851D01*
X103387451Y-102297552D01*
X103192448Y-102102549D01*
X102963149Y-101949336D01*
X102892326Y-101920000D01*
X102963149Y-101890664D01*
X103192448Y-101737451D01*
X103387451Y-101542448D01*
X103540664Y-101313149D01*
X103646199Y-101058365D01*
X103700000Y-100787888D01*
X103700000Y-100512112D01*
X103646199Y-100241635D01*
X103540664Y-99986851D01*
X103387451Y-99757552D01*
X103192448Y-99562549D01*
X102963149Y-99409336D01*
X102892326Y-99380000D01*
X102963149Y-99350664D01*
X103192448Y-99197451D01*
X103387451Y-99002448D01*
X103540664Y-98773149D01*
X103646199Y-98518365D01*
X103700000Y-98247888D01*
X103700000Y-97972112D01*
X103646199Y-97701635D01*
X103540664Y-97446851D01*
X103387451Y-97217552D01*
X103192448Y-97022549D01*
X102963149Y-96869336D01*
X102892326Y-96840000D01*
X102963149Y-96810664D01*
X103192448Y-96657451D01*
X103387451Y-96462448D01*
X103540664Y-96233149D01*
X103646199Y-95978365D01*
X103700000Y-95707888D01*
X103700000Y-95432112D01*
X103646199Y-95161635D01*
X103540664Y-94906851D01*
X103387451Y-94677552D01*
X103192448Y-94482549D01*
X102963149Y-94329336D01*
X102892326Y-94300000D01*
X102963149Y-94270664D01*
X103192448Y-94117451D01*
X103387451Y-93922448D01*
X103540664Y-93693149D01*
X103646199Y-93438365D01*
X103700000Y-93167888D01*
X103700000Y-92892112D01*
X103646199Y-92621635D01*
X103540664Y-92366851D01*
X103387451Y-92137552D01*
X103192448Y-91942549D01*
X102963149Y-91789336D01*
X102892326Y-91760000D01*
X102963149Y-91730664D01*
X103192448Y-91577451D01*
X103387451Y-91382448D01*
X103540664Y-91153149D01*
X103646199Y-90898365D01*
X103700000Y-90627888D01*
X103700000Y-90352112D01*
X126300000Y-90352112D01*
X126300000Y-90627888D01*
X126353801Y-90898365D01*
X126459336Y-91153149D01*
X126612549Y-91382448D01*
X126807552Y-91577451D01*
X127036851Y-91730664D01*
X127107674Y-91760000D01*
X127036851Y-91789336D01*
X126807552Y-91942549D01*
X126612549Y-92137552D01*
X126459336Y-92366851D01*
X126353801Y-92621635D01*
X126300000Y-92892112D01*
X126300000Y-93167888D01*
X126353801Y-93438365D01*
X126459336Y-93693149D01*
X126612549Y-93922448D01*
X126807552Y-94117451D01*
X127036851Y-94270664D01*
X127107674Y-94300000D01*
X127036851Y-94329336D01*
X126807552Y-94482549D01*
X126612549Y-94677552D01*
X126459336Y-94906851D01*
X126353801Y-95161635D01*
X126300000Y-95432112D01*
X126300000Y-95707888D01*
X126353801Y-95978365D01*
X126459336Y-96233149D01*
X126612549Y-96462448D01*
X126807552Y-96657451D01*
X127036851Y-96810664D01*
X127107674Y-96840000D01*
X127036851Y-96869336D01*
X126807552Y-97022549D01*
X126612549Y-97217552D01*
X126459336Y-97446851D01*
X126353801Y-97701635D01*
X126300000Y-97972112D01*
X126300000Y-98247888D01*
X126353801Y-98518365D01*
X126459336Y-98773149D01*
X126612549Y-99002448D01*
X126807552Y-99197451D01*
X127036851Y-99350664D01*
X127107674Y-99380000D01*
X127036851Y-99409336D01*
X126807552Y-99562549D01*
X126612549Y-99757552D01*
X126459336Y-99986851D01*
X126353801Y-100241635D01*
X126300000Y-100512112D01*
X126300000Y-100787888D01*
X126353801Y-101058365D01*
X126459336Y-101313149D01*
X126612549Y-101542448D01*
X126807552Y-101737451D01*
X127036851Y-101890664D01*
X127107674Y-101920000D01*
X127036851Y-101949336D01*
X126807552Y-102102549D01*
X126612549Y-102297552D01*
X126459336Y-102526851D01*
X126353801Y-102781635D01*
X126300000Y-103052112D01*
X126300000Y-103327888D01*
X126353801Y-103598365D01*
X126459336Y-103853149D01*
X126612549Y-104082448D01*
X126807552Y-104277451D01*
X127036851Y-104430664D01*
X127107674Y-104460000D01*
X127036851Y-104489336D01*
X126807552Y-104642549D01*
X126612549Y-104837552D01*
X126459336Y-105066851D01*
X126353801Y-105321635D01*
X126300000Y-105592112D01*
X126300000Y-105867888D01*
X126353801Y-106138365D01*
X126459336Y-106393149D01*
X126612549Y-106622448D01*
X126807552Y-106817451D01*
X127036851Y-106970664D01*
X127107674Y-107000000D01*
X127036851Y-107029336D01*
X126807552Y-107182549D01*
X126612549Y-107377552D01*
X126459336Y-107606851D01*
X126353801Y-107861635D01*
X126300000Y-108132112D01*
X126300000Y-108407888D01*
X126353801Y-108678365D01*
X126459336Y-108933149D01*
X126612549Y-109162448D01*
X126807552Y-109357451D01*
X127036851Y-109510664D01*
X127107674Y-109540000D01*
X127036851Y-109569336D01*
X126807552Y-109722549D01*
X126612549Y-109917552D01*
X126459336Y-110146851D01*
X126353801Y-110401635D01*
X126300000Y-110672112D01*
X126300000Y-110947888D01*
X126353801Y-111218365D01*
X126459336Y-111473149D01*
X126612549Y-111702448D01*
X126807552Y-111897451D01*
X127036851Y-112050664D01*
X127107674Y-112080000D01*
X127036851Y-112109336D01*
X126807552Y-112262549D01*
X126612549Y-112457552D01*
X126459336Y-112686851D01*
X126353801Y-112941635D01*
X126300000Y-113212112D01*
X126300000Y-113487888D01*
X126353801Y-113758365D01*
X126459336Y-114013149D01*
X126612549Y-114242448D01*
X126807552Y-114437451D01*
X127036851Y-114590664D01*
X127107674Y-114620000D01*
X127036851Y-114649336D01*
X126807552Y-114802549D01*
X126612549Y-114997552D01*
X126459336Y-115226851D01*
X126353801Y-115481635D01*
X126300000Y-115752112D01*
X126300000Y-116027888D01*
X126353801Y-116298365D01*
X126459336Y-116553149D01*
X126612549Y-116782448D01*
X126807552Y-116977451D01*
X127036851Y-117130664D01*
X127107674Y-117160000D01*
X127036851Y-117189336D01*
X126807552Y-117342549D01*
X126612549Y-117537552D01*
X126459336Y-117766851D01*
X126353801Y-118021635D01*
X126300000Y-118292112D01*
X126300000Y-118567888D01*
X126353801Y-118838365D01*
X126459336Y-119093149D01*
X126612549Y-119322448D01*
X126807552Y-119517451D01*
X127036851Y-119670664D01*
X127107674Y-119700000D01*
X127036851Y-119729336D01*
X126807552Y-119882549D01*
X126612549Y-120077552D01*
X126459336Y-120306851D01*
X126353801Y-120561635D01*
X126300000Y-120832112D01*
X126300000Y-121107888D01*
X126353801Y-121378365D01*
X126459336Y-121633149D01*
X126612549Y-121862448D01*
X126807552Y-122057451D01*
X127036851Y-122210664D01*
X127107674Y-122240000D01*
X127036851Y-122269336D01*
X126807552Y-122422549D01*
X126612549Y-122617552D01*
X126459336Y-122846851D01*
X126353801Y-123101635D01*
X126300000Y-123372112D01*
X126300000Y-123647888D01*
X126353801Y-123918365D01*
X126459336Y-124173149D01*
X126612549Y-124402448D01*
X126807552Y-124597451D01*
X127036851Y-124750664D01*
X127107674Y-124780000D01*
X127036851Y-124809336D01*
X126807552Y-124962549D01*
X126612549Y-125157552D01*
X126459336Y-125386851D01*
X126353801Y-125641635D01*
X126300000Y-125912112D01*
X126300000Y-126187888D01*
X126353801Y-126458365D01*
X126459336Y-126713149D01*
X126612549Y-126942448D01*
X126807552Y-127137451D01*
X127036851Y-127290664D01*
X127107674Y-127320000D01*
X127036851Y-127349336D01*
X126807552Y-127502549D01*
X126612549Y-127697552D01*
X126459336Y-127926851D01*
X126353801Y-128181635D01*
X126300000Y-128452112D01*
X126300000Y-128727888D01*
X126353801Y-128998365D01*
X126459336Y-129253149D01*
X126612549Y-129482448D01*
X126807552Y-129677451D01*
X127036851Y-129830664D01*
X127107674Y-129860000D01*
X127036851Y-129889336D01*
X126807552Y-130042549D01*
X126612549Y-130237552D01*
X126459336Y-130466851D01*
X126353801Y-130721635D01*
X126300000Y-130992112D01*
X126300000Y-131267888D01*
X126353801Y-131538365D01*
X126459336Y-131793149D01*
X126612549Y-132022448D01*
X126807552Y-132217451D01*
X127036851Y-132370664D01*
X127107674Y-132400000D01*
X127036851Y-132429336D01*
X126807552Y-132582549D01*
X126612549Y-132777552D01*
X126459336Y-133006851D01*
X126353801Y-133261635D01*
X126300000Y-133532112D01*
X126300000Y-133807888D01*
X126353801Y-134078365D01*
X126459336Y-134333149D01*
X126612549Y-134562448D01*
X126807552Y-134757451D01*
X127036851Y-134910664D01*
X127291635Y-135016199D01*
X127562112Y-135070000D01*
X127837888Y-135070000D01*
X128108365Y-135016199D01*
X128363149Y-134910664D01*
X128592448Y-134757451D01*
X128787451Y-134562448D01*
X128940664Y-134333149D01*
X129046199Y-134078365D01*
X129100000Y-133807888D01*
X129100000Y-133532112D01*
X129046199Y-133261635D01*
X128940664Y-133006851D01*
X128787451Y-132777552D01*
X128592448Y-132582549D01*
X128363149Y-132429336D01*
X128292326Y-132400000D01*
X128363149Y-132370664D01*
X128592448Y-132217451D01*
X128787451Y-132022448D01*
X128940664Y-131793149D01*
X129046199Y-131538365D01*
X129100000Y-131267888D01*
X129100000Y-131200000D01*
X143611928Y-131200000D01*
X143624188Y-131324482D01*
X143660498Y-131444180D01*
X143719463Y-131554494D01*
X143798815Y-131651185D01*
X143895506Y-131730537D01*
X144005820Y-131789502D01*
X144125518Y-131825812D01*
X144250000Y-131838072D01*
X144814250Y-131835000D01*
X144973000Y-131676250D01*
X144973000Y-130327000D01*
X143773750Y-130327000D01*
X143615000Y-130485750D01*
X143611928Y-131200000D01*
X129100000Y-131200000D01*
X129100000Y-130992112D01*
X129046199Y-130721635D01*
X128940664Y-130466851D01*
X128787451Y-130237552D01*
X128592448Y-130042549D01*
X128363149Y-129889336D01*
X128292326Y-129860000D01*
X128363149Y-129830664D01*
X128592448Y-129677451D01*
X128787451Y-129482448D01*
X128940664Y-129253149D01*
X128962679Y-129200000D01*
X143611928Y-129200000D01*
X143615000Y-129914250D01*
X143773750Y-130073000D01*
X144973000Y-130073000D01*
X144973000Y-128723750D01*
X144814250Y-128565000D01*
X144250000Y-128561928D01*
X144125518Y-128574188D01*
X144005820Y-128610498D01*
X143895506Y-128669463D01*
X143798815Y-128748815D01*
X143719463Y-128845506D01*
X143660498Y-128955820D01*
X143624188Y-129075518D01*
X143611928Y-129200000D01*
X128962679Y-129200000D01*
X129046199Y-128998365D01*
X129100000Y-128727888D01*
X129100000Y-128452112D01*
X129046199Y-128181635D01*
X128940664Y-127926851D01*
X128787451Y-127697552D01*
X128592448Y-127502549D01*
X128363149Y-127349336D01*
X128292326Y-127320000D01*
X128363149Y-127290664D01*
X128592448Y-127137451D01*
X128787451Y-126942448D01*
X128940664Y-126713149D01*
X129046199Y-126458365D01*
X129100000Y-126187888D01*
X129100000Y-125912112D01*
X129046199Y-125641635D01*
X128940664Y-125386851D01*
X128787451Y-125157552D01*
X128592448Y-124962549D01*
X128363149Y-124809336D01*
X128292326Y-124780000D01*
X128363149Y-124750664D01*
X128592448Y-124597451D01*
X128787451Y-124402448D01*
X128940664Y-124173149D01*
X129046199Y-123918365D01*
X129100000Y-123647888D01*
X129100000Y-123372112D01*
X129046199Y-123101635D01*
X128940664Y-122846851D01*
X128787451Y-122617552D01*
X128592448Y-122422549D01*
X128363149Y-122269336D01*
X128292326Y-122240000D01*
X128363149Y-122210664D01*
X128592448Y-122057451D01*
X128787451Y-121862448D01*
X128940664Y-121633149D01*
X129046199Y-121378365D01*
X129100000Y-121107888D01*
X129100000Y-120832112D01*
X129046199Y-120561635D01*
X128940664Y-120306851D01*
X128787451Y-120077552D01*
X128592448Y-119882549D01*
X128363149Y-119729336D01*
X128292326Y-119700000D01*
X128363149Y-119670664D01*
X128592448Y-119517451D01*
X128787451Y-119322448D01*
X128940664Y-119093149D01*
X129046199Y-118838365D01*
X129100000Y-118567888D01*
X129100000Y-118292112D01*
X129046199Y-118021635D01*
X128940664Y-117766851D01*
X128787451Y-117537552D01*
X128592448Y-117342549D01*
X128363149Y-117189336D01*
X128292326Y-117160000D01*
X128363149Y-117130664D01*
X128592448Y-116977451D01*
X128787451Y-116782448D01*
X128940664Y-116553149D01*
X129046199Y-116298365D01*
X129100000Y-116027888D01*
X129100000Y-115752112D01*
X129046199Y-115481635D01*
X128940664Y-115226851D01*
X128787451Y-114997552D01*
X128592448Y-114802549D01*
X128363149Y-114649336D01*
X128292326Y-114620000D01*
X128363149Y-114590664D01*
X128592448Y-114437451D01*
X128787451Y-114242448D01*
X128940664Y-114013149D01*
X129046199Y-113758365D01*
X129100000Y-113487888D01*
X129100000Y-113212112D01*
X129046199Y-112941635D01*
X128940664Y-112686851D01*
X128787451Y-112457552D01*
X128592448Y-112262549D01*
X128363149Y-112109336D01*
X128292326Y-112080000D01*
X128363149Y-112050664D01*
X128592448Y-111897451D01*
X128787451Y-111702448D01*
X128792428Y-111695000D01*
X129843422Y-111695000D01*
X146715001Y-128566580D01*
X146715001Y-128855240D01*
X146550055Y-128990608D01*
X146539502Y-128955820D01*
X146480537Y-128845506D01*
X146401185Y-128748815D01*
X146304494Y-128669463D01*
X146194180Y-128610498D01*
X146074482Y-128574188D01*
X145950000Y-128561928D01*
X145385750Y-128565000D01*
X145227000Y-128723750D01*
X145227000Y-130073000D01*
X145247000Y-130073000D01*
X145247000Y-130327000D01*
X145227000Y-130327000D01*
X145227000Y-131676250D01*
X145385750Y-131835000D01*
X145950000Y-131838072D01*
X146074482Y-131825812D01*
X146194180Y-131789502D01*
X146304494Y-131730537D01*
X146401185Y-131651185D01*
X146480537Y-131554494D01*
X146539502Y-131444180D01*
X146550055Y-131409392D01*
X146770987Y-131590706D01*
X147028967Y-131728599D01*
X147308890Y-131813513D01*
X147600000Y-131842185D01*
X147891111Y-131813513D01*
X148171034Y-131728599D01*
X148429014Y-131590706D01*
X148655134Y-131405134D01*
X148840706Y-131179014D01*
X148978599Y-130921033D01*
X149063513Y-130641110D01*
X149085000Y-130422949D01*
X149085000Y-129977050D01*
X149063513Y-129758889D01*
X148978599Y-129478966D01*
X148840706Y-129220986D01*
X148655134Y-128994866D01*
X148485000Y-128855241D01*
X148485000Y-128243469D01*
X148489281Y-128200000D01*
X148485000Y-128156531D01*
X148485000Y-128156523D01*
X148472195Y-128026510D01*
X148421589Y-127859687D01*
X148339411Y-127705941D01*
X148228817Y-127571183D01*
X148195049Y-127543470D01*
X130866534Y-110214956D01*
X130838817Y-110181183D01*
X130704059Y-110070589D01*
X130550313Y-109988411D01*
X130383490Y-109937805D01*
X130253477Y-109925000D01*
X130253469Y-109925000D01*
X130210000Y-109920719D01*
X130166531Y-109925000D01*
X128792428Y-109925000D01*
X128787451Y-109917552D01*
X128592448Y-109722549D01*
X128363149Y-109569336D01*
X128292326Y-109540000D01*
X128363149Y-109510664D01*
X128592448Y-109357451D01*
X128787451Y-109162448D01*
X128940664Y-108933149D01*
X129046199Y-108678365D01*
X129100000Y-108407888D01*
X129100000Y-108132112D01*
X129046199Y-107861635D01*
X128940664Y-107606851D01*
X128787451Y-107377552D01*
X128592448Y-107182549D01*
X128363149Y-107029336D01*
X128292326Y-107000000D01*
X128363149Y-106970664D01*
X128592448Y-106817451D01*
X128787451Y-106622448D01*
X128940664Y-106393149D01*
X129046199Y-106138365D01*
X129100000Y-105867888D01*
X129100000Y-105592112D01*
X129046199Y-105321635D01*
X128940664Y-105066851D01*
X128787451Y-104837552D01*
X128592448Y-104642549D01*
X128363149Y-104489336D01*
X128292326Y-104460000D01*
X128363149Y-104430664D01*
X128592448Y-104277451D01*
X128625591Y-104244308D01*
X136543654Y-104244308D01*
X136543654Y-105755692D01*
X136712875Y-107257573D01*
X137049190Y-108731064D01*
X137548368Y-110157635D01*
X138204133Y-111519345D01*
X139008238Y-112799071D01*
X139950571Y-113980719D01*
X141019281Y-115049429D01*
X142200929Y-115991762D01*
X143480655Y-116795867D01*
X144842365Y-117451632D01*
X146268936Y-117950810D01*
X147742427Y-118287125D01*
X149244308Y-118456346D01*
X150755692Y-118456346D01*
X152257573Y-118287125D01*
X153731064Y-117950810D01*
X155157635Y-117451632D01*
X156519345Y-116795867D01*
X157799071Y-115991762D01*
X158980719Y-115049429D01*
X160049429Y-113980719D01*
X160991762Y-112799071D01*
X161795867Y-111519345D01*
X162451632Y-110157635D01*
X162950810Y-108731064D01*
X163287125Y-107257573D01*
X163456346Y-105755692D01*
X163456346Y-104244308D01*
X163287125Y-102742427D01*
X162950810Y-101268936D01*
X162451632Y-99842365D01*
X161795867Y-98480655D01*
X160991762Y-97200929D01*
X160049429Y-96019281D01*
X158980719Y-94950571D01*
X157799071Y-94008238D01*
X156519345Y-93204133D01*
X155157635Y-92548368D01*
X153731064Y-92049190D01*
X152257573Y-91712875D01*
X150755692Y-91543654D01*
X149244308Y-91543654D01*
X147742427Y-91712875D01*
X146268936Y-92049190D01*
X144842365Y-92548368D01*
X143480655Y-93204133D01*
X142200929Y-94008238D01*
X141019281Y-94950571D01*
X139950571Y-96019281D01*
X139008238Y-97200929D01*
X138204133Y-98480655D01*
X137548368Y-99842365D01*
X137049190Y-101268936D01*
X136712875Y-102742427D01*
X136543654Y-104244308D01*
X128625591Y-104244308D01*
X128787451Y-104082448D01*
X128940664Y-103853149D01*
X129046199Y-103598365D01*
X129100000Y-103327888D01*
X129100000Y-103052112D01*
X129046199Y-102781635D01*
X128940664Y-102526851D01*
X128787451Y-102297552D01*
X128592448Y-102102549D01*
X128363149Y-101949336D01*
X128292326Y-101920000D01*
X128363149Y-101890664D01*
X128592448Y-101737451D01*
X128787451Y-101542448D01*
X128940664Y-101313149D01*
X129046199Y-101058365D01*
X129100000Y-100787888D01*
X129100000Y-100512112D01*
X129046199Y-100241635D01*
X128940664Y-99986851D01*
X128787451Y-99757552D01*
X128592448Y-99562549D01*
X128363149Y-99409336D01*
X128292326Y-99380000D01*
X128363149Y-99350664D01*
X128592448Y-99197451D01*
X128787451Y-99002448D01*
X128940664Y-98773149D01*
X129046199Y-98518365D01*
X129100000Y-98247888D01*
X129100000Y-97972112D01*
X129046199Y-97701635D01*
X128940664Y-97446851D01*
X128787451Y-97217552D01*
X128592448Y-97022549D01*
X128363149Y-96869336D01*
X128292326Y-96840000D01*
X128363149Y-96810664D01*
X128592448Y-96657451D01*
X128787451Y-96462448D01*
X128940664Y-96233149D01*
X129046199Y-95978365D01*
X129100000Y-95707888D01*
X129100000Y-95432112D01*
X129046199Y-95161635D01*
X128940664Y-94906851D01*
X128787451Y-94677552D01*
X128592448Y-94482549D01*
X128363149Y-94329336D01*
X128292326Y-94300000D01*
X128363149Y-94270664D01*
X128592448Y-94117451D01*
X128787451Y-93922448D01*
X128940664Y-93693149D01*
X129046199Y-93438365D01*
X129100000Y-93167888D01*
X129100000Y-92892112D01*
X129046199Y-92621635D01*
X128940664Y-92366851D01*
X128787451Y-92137552D01*
X128592448Y-91942549D01*
X128363149Y-91789336D01*
X128292326Y-91760000D01*
X128363149Y-91730664D01*
X128592448Y-91577451D01*
X128787451Y-91382448D01*
X128940664Y-91153149D01*
X129046199Y-90898365D01*
X129100000Y-90627888D01*
X129100000Y-90352112D01*
X129046199Y-90081635D01*
X128940664Y-89826851D01*
X128787451Y-89597552D01*
X128592448Y-89402549D01*
X128363149Y-89249336D01*
X128298406Y-89222518D01*
X128304072Y-89220478D01*
X128420760Y-89158106D01*
X128488102Y-88917707D01*
X127700000Y-88129605D01*
X126911898Y-88917707D01*
X126979240Y-89158106D01*
X127109336Y-89219312D01*
X127036851Y-89249336D01*
X126807552Y-89402549D01*
X126612549Y-89597552D01*
X126459336Y-89826851D01*
X126353801Y-90081635D01*
X126300000Y-90352112D01*
X103700000Y-90352112D01*
X103646199Y-90081635D01*
X103540664Y-89826851D01*
X103387451Y-89597552D01*
X103192448Y-89402549D01*
X103111541Y-89348488D01*
X103189482Y-89340812D01*
X103309180Y-89304502D01*
X103419494Y-89245537D01*
X103516185Y-89166185D01*
X103595537Y-89069494D01*
X103654502Y-88959180D01*
X103690812Y-88839482D01*
X103703072Y-88715000D01*
X103703072Y-88021899D01*
X126295064Y-88021899D01*
X126336086Y-88294607D01*
X126429522Y-88554072D01*
X126491894Y-88670760D01*
X126732293Y-88738102D01*
X127520395Y-87950000D01*
X127879605Y-87950000D01*
X128667707Y-88738102D01*
X128908106Y-88670760D01*
X129025506Y-88421220D01*
X129091967Y-88153573D01*
X129104936Y-87878101D01*
X129063914Y-87605393D01*
X128970478Y-87345928D01*
X128908106Y-87229240D01*
X128667707Y-87161898D01*
X127879605Y-87950000D01*
X127520395Y-87950000D01*
X126732293Y-87161898D01*
X126491894Y-87229240D01*
X126374494Y-87478780D01*
X126308033Y-87746427D01*
X126295064Y-88021899D01*
X103703072Y-88021899D01*
X103703072Y-87185000D01*
X103690812Y-87060518D01*
X103667083Y-86982293D01*
X126911898Y-86982293D01*
X127700000Y-87770395D01*
X128488102Y-86982293D01*
X128420760Y-86741894D01*
X128171220Y-86624494D01*
X127903573Y-86558033D01*
X127628101Y-86545064D01*
X127355393Y-86586086D01*
X127095928Y-86679522D01*
X126979240Y-86741894D01*
X126911898Y-86982293D01*
X103667083Y-86982293D01*
X103654502Y-86940820D01*
X103595537Y-86830506D01*
X103516185Y-86733815D01*
X103419494Y-86654463D01*
X103309180Y-86595498D01*
X103189482Y-86559188D01*
X103065000Y-86546928D01*
X101535000Y-86546928D01*
X101410518Y-86559188D01*
X101290820Y-86595498D01*
X101180506Y-86654463D01*
X101083815Y-86733815D01*
X101004463Y-86830506D01*
X100945498Y-86940820D01*
X100909188Y-87060518D01*
X100896928Y-87185000D01*
X100710000Y-87185000D01*
X100710000Y-76550000D01*
X130661928Y-76550000D01*
X130674188Y-76674482D01*
X130710498Y-76794180D01*
X130769463Y-76904494D01*
X130848815Y-77001185D01*
X130945506Y-77080537D01*
X131055820Y-77139502D01*
X131175518Y-77175812D01*
X131300000Y-77188072D01*
X132014250Y-77185000D01*
X132173000Y-77026250D01*
X132173000Y-75827000D01*
X132427000Y-75827000D01*
X132427000Y-77026250D01*
X132585750Y-77185000D01*
X133300000Y-77188072D01*
X133424482Y-77175812D01*
X133544180Y-77139502D01*
X133654494Y-77080537D01*
X133751185Y-77001185D01*
X133830537Y-76904494D01*
X133889502Y-76794180D01*
X133925812Y-76674482D01*
X133938072Y-76550000D01*
X133935000Y-75985750D01*
X133776250Y-75827000D01*
X132427000Y-75827000D01*
X132173000Y-75827000D01*
X130823750Y-75827000D01*
X130665000Y-75985750D01*
X130661928Y-76550000D01*
X100710000Y-76550000D01*
X100710000Y-72700881D01*
X102478724Y-72700881D01*
X102838912Y-73190548D01*
X103502882Y-73550849D01*
X104224385Y-73774694D01*
X104975695Y-73853480D01*
X105727938Y-73784178D01*
X106452208Y-73569452D01*
X107120670Y-73217555D01*
X107161088Y-73190548D01*
X107521276Y-72700881D01*
X105000000Y-70179605D01*
X102478724Y-72700881D01*
X100710000Y-72700881D01*
X100710000Y-70031618D01*
X100714991Y-69975695D01*
X101146520Y-69975695D01*
X101215822Y-70727938D01*
X101430548Y-71452208D01*
X101782445Y-72120670D01*
X101809452Y-72161088D01*
X102299119Y-72521276D01*
X104820395Y-70000000D01*
X105179605Y-70000000D01*
X107700881Y-72521276D01*
X108190548Y-72161088D01*
X108550849Y-71497118D01*
X108774694Y-70775615D01*
X108853480Y-70024305D01*
X108784178Y-69272062D01*
X108569452Y-68547792D01*
X108217555Y-67879330D01*
X108190548Y-67838912D01*
X107700881Y-67478724D01*
X105179605Y-70000000D01*
X104820395Y-70000000D01*
X102299119Y-67478724D01*
X101809452Y-67838912D01*
X101449151Y-68502882D01*
X101225306Y-69224385D01*
X101146520Y-69975695D01*
X100714991Y-69975695D01*
X100780578Y-69240808D01*
X100981705Y-68505611D01*
X101309846Y-67817649D01*
X101682447Y-67299119D01*
X102478724Y-67299119D01*
X105000000Y-69820395D01*
X107521276Y-67299119D01*
X107161088Y-66809452D01*
X106497118Y-66449151D01*
X105775615Y-66225306D01*
X105024305Y-66146520D01*
X104272062Y-66215822D01*
X103547792Y-66430548D01*
X102879330Y-66782445D01*
X102838912Y-66809452D01*
X102478724Y-67299119D01*
X101682447Y-67299119D01*
X101754628Y-67198669D01*
X102301988Y-66668239D01*
X102934639Y-66243116D01*
X103632561Y-65936749D01*
X104379183Y-65757501D01*
X105026030Y-65710000D01*
X194968382Y-65710000D01*
X195759192Y-65780578D01*
%TD*%
M02*
